<?xml version="1.0" encoding="utf-8"?>
<!-- Generator: Adobe Illustrator 27.6.1, SVG Export Plug-In . SVG Version: 6.00 Build 0)  -->
<svg version="1.1" id="Layer_1" xmlns="http://www.w3.org/2000/svg" xmlns:xlink="http://www.w3.org/1999/xlink" x="0px" y="0px"
	 viewBox="0 0 125.6 46.6" style="enable-background:new 0 0 125.6 46.6;" xml:space="preserve">
<style type="text/css">
	.st0{fill:#FFFFFF;}
</style>
<g>
	<path class="st0" d="M22.6,9.1c-6.4,2.2-11.2,8.2-11.2,15.4c0,1,0.1,1.9,0.2,2.8l10.8,0.1l-5.3,9.5c2.8,2.4,6.5,3.9,10.5,3.9
		c4.1,0,7.8-1.5,10.7-4l-5.2-9.2l10.5,0c0.2-1,0.3-2,0.3-3.1c0-7-4.5-13.1-10.7-15.3l-5.4,9.2L22.5,9l-1.9-3.8L18,0.9l9.1,3
		c0.2,0,0.5,0,0.7,0l10-2.9l-2.5,4.3c7.7,3,13.2,10.5,13.2,19.3c0,1.1,0,2-0.2,3l4.9,0L46,34.4c-0.3,0.6-0.3,0.5-0.7,1.1l-2,9.5
		l-2.6-4.3c-3.5,2.8-8,4.5-12.8,4.5c-4.9,0-9.5-1.7-13-4.6l-2.5,4.3L9.9,34.8c0-0.1-0.1-0.1-0.1-0.2l-7.6-7.2h5.2
		c-0.1-0.9-0.2-1.9-0.2-2.8c0-8.8,5.6-16.3,13.4-19.3L22.6,9.1z"/>
	<g>
		<path class="st0" d="M82,1.1v9.4h-3V1.1h-6.3v24.5h-9.6V7.3H69V1.1H56.8v27.1c0,0-0.3,3.9,3.7,3.9h18.1v-0.2H79V16.8h3v15.1h6.3
			V1.1H82z"/>
		<g>
			<path class="st0" d="M109.5,16.4c-7.1,0-12.8,3.8-12.8,8.5c0,4.7,5.7,8.5,12.8,8.5c7,0,12.8-3.8,12.8-8.5
				C122.2,20.2,116.5,16.4,109.5,16.4z M109.5,28.7c-3.6,0-6.2-1.7-6.2-3.8c0-2.1,2.6-3.8,6.2-3.8c3.6,0,6.2,1.7,6.2,3.8
				C115.7,27,113.1,28.7,109.5,28.7z"/>
			<path class="st0" d="M100.8,10.5c0.6,1.2,1.7,2.3,3.3,3.3c1.7,1,4.3,1.2,6.2,1.4V9.3c-2.3-0.4-4.7-1.1-5.6-2.6
				c-0.8-1.4-1.3-2.5-1.2-5.2h-5.4c0,2.8-0.4,4-1.2,5.3c-0.9,1.5-3.2,2.2-5.6,2.6v5.8c1.8-0.1,4.3-0.4,6-1.3
				C99,12.8,100.2,11.7,100.8,10.5z"/>
			<polygon class="st0" points="116.3,16.3 122,16.3 122,1.2 116.3,1.2 116.3,2.9 111.4,2.9 111.4,9 116.3,9 			"/>
		</g>
	</g>
	<g>
		<path class="st0" d="M70,40"/>
		<polyline class="st0" points="70,38.5 72.4,44.6 74.9,44.6 71.1,35.5 68.9,35.5 65.1,44.6 67.6,44.6 70,38.5 		"/>
		<path class="st0" d="M79.1,40"/>
		<path class="st0" d="M76.1,44.6c0.5,0,0.8-0.4,0.8-1c0-0.6-0.4-1-0.8-1c-0.5,0-0.8,0.4-0.8,1C75.2,44.1,75.6,44.6,76.1,44.6z"/>
		<path class="st0" d="M76.1,43.5"/>
		<path class="st0" d="M79.4,43.5"/>
		<polygon class="st0" points="77.4,42.5 77.4,40.9 82.6,40.9 82.6,38.9 77.4,38.9 77.4,37.5 82.9,37.5 82.9,35.5 77.4,35.5 
			77.4,35.5 75.2,35.5 75.2,43.6 76.1,43.6 76.1,44.6 83,44.6 83,42.5 		"/>
		<path class="st0" d="M76.3,40"/>
		<path class="st0" d="M95.1,38"/>
		<path class="st0" d="M108,40"/>
		<path class="st0" d="M104.9,40"/>
		<path class="st0" d="M111.2,40"/>
		<polygon class="st0" points="110.1,35.5 110.1,41 110.1,41 106,35.5 106,35.5 106,35.5 103.7,35.5 103.7,44.6 106,44.6 106,39 
			106,39 110.1,44.5 110.1,44.6 112.3,44.6 112.3,35.5 		"/>
		<path class="st0" d="M120.5,41.9"/>
		<path class="st0" d="M69.7,37.9"/>
		<path class="st0" d="M98.1,40.3"/>
		<path class="st0" d="M101.2,38"/>
		<path class="st0" d="M98.1,43"/>
		<path class="st0" d="M98.1,45.1"/>
		<path class="st0" d="M102.3,41.3l0-0.7v-5h-2.2v5.1v0.5c0,0,0.1,1.9-1.9,1.9c-2.1,0-1.9-1.9-1.9-1.9l0-0.5v-5.1H94v5v0.7
			c0,0-0.2,4,4.2,3.8C102.4,45.2,102.3,41.3,102.3,41.3z"/>
		<path class="st0" d="M86.5,38.3"/>
		<path class="st0" d="M86.7,38.3"/>
		<path class="st0" d="M88.5,40"/>
		<path class="st0" d="M89.1,36.5"/>
		<path class="st0" d="M88.5,39.9"/>
		<path class="st0" d="M90.5,38.9h-0.6l0,0h-0.2h-2.1h-0.4c-0.4,0-0.6-0.3-0.6-0.8c0-0.4,0.3-0.6,0.7-0.6l0.4,0h5v-2h-5l-0.9,0
			c-1.3,0-2.4,1.1-2.4,2.6c0,1.5,1.1,2.7,2.4,2.7l0.6,0v0h2.3l0.4,0c0.4,0,0.6,0.3,0.6,0.8c0,0.4-0.3,0.9-0.6,0.9l-0.4,0h-5v2h5h0.9
			c1.3,0,2.4-1.4,2.4-2.9C92.9,40.2,91.8,38.9,90.5,38.9z"/>
		<path class="st0" d="M120,39.7v2.8h-0.8h-1.3c0,0-2,0.2-2-2.5c0-2.7,2-2.5,2-2.5h1h3.3v-2h-3.3h-1.7c-2,0-3.6,2-3.6,4.5
			c0,2.5,1.6,4.5,3.6,4.5h2h3v-0.5v-1.5v-2.8C122.2,39.7,120,39.7,120,39.7z"/>
		<path class="st0" d="M121.1,41.9"/>
		<path class="st0" d="M58.9,36.5"/>
		<path class="st0" d="M61,40"/>
		<path class="st0" d="M57.9,40"/>
		<path class="st0" d="M58.9,43.6"/>
		<path class="st0" d="M61.8,40"/>
		<path class="st0" d="M61.8,35.5h-1.7H59v0h-2.2l0,9H59l0,0h0.9h1.9c2,0,3.6-2,3.6-4.5C65.4,37.6,63.8,35.5,61.8,35.5z M61.1,42.6
			h-1.2H59l0-5h1.1h1c0,0,2-0.2,2,2.5C63.1,42.7,61.1,42.6,61.1,42.6z"/>
	</g>
</g>
</svg>
