<?xml version="1.0" encoding="utf-8"?>
<!-- Generator: Adobe Illustrator 27.6.1, SVG Export Plug-In . SVG Version: 6.00 Build 0)  -->
<svg version="1.1" id="Layer_1" xmlns="http://www.w3.org/2000/svg" xmlns:xlink="http://www.w3.org/1999/xlink" x="0px" y="0px"
	 viewBox="0 0 125.6 46.6" style="enable-background:new 0 0 125.6 46.6;" xml:space="preserve">
<style type="text/css">
	.st0{fill:#EB2027;}
</style>
<g>
	<path class="st0" d="M22.4,9c-6.4,2.2-11.2,8.2-11.2,15.4c0,1,0.1,1.9,0.2,2.8l10.8,0.1L17,36.8c2.8,2.4,6.5,3.9,10.5,3.9
		c4.1,0,7.8-1.5,10.7-4L33,27.5l10.5,0c0.2-1,0.3-2,0.3-3.1c0-7-4.5-13.1-10.7-15.3l-5.4,9.2L22.2,9l-1.9-3.8l-2.5-4.4l9.1,3
		c0.2,0,0.5,0,0.7,0l10-2.9l-2.5,4.3c7.7,3,13.2,10.5,13.2,19.3c0,1.1,0,2-0.2,3l4.9,0l-7.3,6.8c-0.3,0.6-0.3,0.5-0.7,1.1l-2,9.5
		l-2.6-4.3c-3.5,2.8-8,4.5-12.8,4.5c-4.9,0-9.5-1.7-13-4.6l-2.5,4.3L9.7,34.7c0-0.1-0.1-0.1-0.1-0.2L2,27.3h5.2
		C7.1,26.4,7,25.5,7,24.5c0-8.8,5.6-16.3,13.4-19.3L22.4,9z"/>
	<g>
		<path class="st0" d="M81.8,1v9.4h-3V1h-6.3v24.5h-9.6V7.2h5.9V1H56.6v27.1c0,0-0.3,3.9,3.7,3.9h18.1v-0.2h0.5V16.7h3v15.1h6.3V1
			H81.8z"/>
		<g>
			<path class="st0" d="M109.2,16.3c-7.1,0-12.8,3.8-12.8,8.5c0,4.7,5.7,8.5,12.8,8.5c7,0,12.8-3.8,12.8-8.5
				C122,20.1,116.3,16.3,109.2,16.3z M109.2,28.6c-3.6,0-6.2-1.7-6.2-3.8c0-2.1,2.6-3.8,6.2-3.8c3.6,0,6.2,1.7,6.2,3.8
				C115.4,26.9,112.8,28.6,109.2,28.6z"/>
			<path class="st0" d="M100.6,10.4c0.6,1.2,1.7,2.3,3.3,3.3c1.7,1,4.3,1.2,6.2,1.4V9.2c-2.3-0.4-4.7-1.1-5.6-2.6
				c-0.8-1.4-1.3-2.5-1.2-5.2h-5.4c0,2.8-0.4,4-1.2,5.3c-0.9,1.5-3.2,2.2-5.6,2.6V15c1.8-0.1,4.3-0.4,6-1.3
				C98.8,12.8,100,11.6,100.6,10.4z"/>
			<polygon class="st0" points="116.1,16.3 121.8,16.3 121.8,1.2 116.1,1.2 116.1,2.9 111.2,2.9 111.2,9 116.1,9 			"/>
		</g>
	</g>
	<g>
		<path class="st0" d="M69.8,40"/>
		<polyline class="st0" points="69.8,38.5 72.1,44.5 74.6,44.5 70.9,35.5 68.7,35.5 64.9,44.5 67.4,44.5 69.8,38.5 		"/>
		<path class="st0" d="M78.9,40"/>
		<path class="st0" d="M75.8,44.5c0.5,0,0.8-0.4,0.8-1c0-0.6-0.4-1-0.8-1c-0.5,0-0.8,0.4-0.8,1C75,44,75.4,44.5,75.8,44.5z"/>
		<path class="st0" d="M75.8,43.5"/>
		<path class="st0" d="M79.2,43.5"/>
		<polygon class="st0" points="77.2,42.5 77.2,40.9 82.4,40.9 82.4,38.9 77.2,38.9 77.2,37.5 82.6,37.5 82.6,35.5 77.2,35.5 
			77.2,35.5 75,35.5 75,43.5 75.8,43.5 75.8,44.5 82.8,44.5 82.8,42.5 		"/>
		<path class="st0" d="M76.1,40"/>
		<path class="st0" d="M94.9,38"/>
		<path class="st0" d="M107.8,40"/>
		<path class="st0" d="M104.6,40"/>
		<path class="st0" d="M111,40"/>
		<polygon class="st0" points="109.9,35.5 109.9,41 109.9,41 105.7,35.5 105.7,35.5 105.7,35.5 103.5,35.5 103.5,44.5 105.7,44.5 
			105.7,39 105.8,39 109.9,44.5 109.9,44.5 112.1,44.5 112.1,35.5 		"/>
		<path class="st0" d="M120.3,41.8"/>
		<path class="st0" d="M69.5,37.9"/>
		<path class="st0" d="M97.9,40.2"/>
		<path class="st0" d="M101,38"/>
		<path class="st0" d="M97.9,43"/>
		<path class="st0" d="M97.9,45"/>
		<path class="st0" d="M102.1,41.2l0-0.7v-5h-2.2v5.1V41c0,0,0.1,1.9-1.9,1.9C95.8,43,96,41,96,41l0-0.5v-5.1h-2.2v5v0.7
			c0,0-0.2,4,4.2,3.8C102.2,45.2,102.1,41.2,102.1,41.2z"/>
		<path class="st0" d="M86.3,38.2"/>
		<path class="st0" d="M86.5,38.2"/>
		<path class="st0" d="M88.3,40"/>
		<path class="st0" d="M88.9,36.5"/>
		<path class="st0" d="M88.3,39.9"/>
		<path class="st0" d="M90.3,38.9h-0.6l0,0h-0.2h-2.1h-0.4c-0.4,0-0.6-0.3-0.6-0.8c0-0.4,0.3-0.6,0.7-0.6l0.4,0h5v-2h-5l-0.9,0
			c-1.3,0-2.4,1.1-2.4,2.6s1.1,2.7,2.4,2.7l0.6,0v0h2.3l0.4,0c0.4,0,0.6,0.3,0.6,0.8s-0.3,0.9-0.6,0.9l-0.4,0h-5v2h5h0.9
			c1.3,0,2.4-1.4,2.4-2.9C92.7,40.1,91.6,38.9,90.3,38.9z"/>
		<path class="st0" d="M119.8,39.6v2.8H119h-1.3c0,0-2,0.2-2-2.5c0-2.7,2-2.5,2-2.5h1h3.3v-2h-3.3H117c-2,0-3.6,2-3.6,4.5
			c0,2.5,1.6,4.5,3.6,4.5h2h3V44v-1.5v-2.8C122,39.6,119.8,39.6,119.8,39.6z"/>
		<path class="st0" d="M120.9,41.8"/>
		<path class="st0" d="M58.7,36.5"/>
		<path class="st0" d="M60.8,40"/>
		<path class="st0" d="M57.7,40"/>
		<path class="st0" d="M58.7,43.5"/>
		<path class="st0" d="M61.6,40"/>
		<path class="st0" d="M61.6,35.5h-1.7h-1.1v0h-2.2l0,9h2.2l0,0h0.9h1.9c2,0,3.6-2,3.6-4.5S63.6,35.5,61.6,35.5z M60.9,42.5h-1.2
			h-0.9l0-5h1.1h1c0,0,2-0.2,2,2.5C62.9,42.7,60.9,42.5,60.9,42.5z"/>
	</g>
</g>
</svg>
