<?xml version="1.0" encoding="utf-8"?>
<!-- Generator: Adobe Illustrator 27.6.1, SVG Export Plug-In . SVG Version: 6.00 Build 0)  -->
<svg version="1.1" id="Layer_1" xmlns="http://www.w3.org/2000/svg" xmlns:xlink="http://www.w3.org/1999/xlink" x="0px" y="0px"
	 viewBox="0 0 125.6 50" style="enable-background:new 0 0 125.6 50;" xml:space="preserve">
<style type="text/css">
	.st0{fill:#EB2027;}
</style>
<g>
	<path class="st0" d="M21.9,10.8c-6.5,2.2-11.4,8.3-11.4,15.6c0,1,0.1,1.9,0.3,2.9l11,0.1l-5.4,9.6c2.9,2.4,6.6,3.9,10.7,3.9
		c4.1,0,7.9-1.5,10.8-4l-5.3-9.4l10.7-0.1c0.2-1,0.3-2,0.3-3.1c0-7.2-4.5-13.3-10.9-15.6l-5.5,9.3l-5.5-9.4l-2-3.8l-2.5-4.4l9.2,3.1
		c0.2,0,0.5,0,0.7,0l10.2-2.9L34.9,7c7.8,3,13.4,10.6,13.4,19.6c0,1.1,0,2-0.2,3.1l5,0l-7.4,6.9c-0.3,0.6-0.3,0.5-0.7,1.1l-2,9.6
		L40.3,43c-3.6,2.8-8.1,4.5-13,4.5c-5,0-9.6-1.8-13.2-4.7l-2.5,4.4L9,36.9c0-0.1-0.1-0.1-0.1-0.2l-7.7-7.3h5.3
		c-0.1-0.9-0.2-1.9-0.2-2.9C6.3,17.6,12,10,19.9,7L21.9,10.8z"/>
	<g>
		<path class="st0" d="M82.2,2.7v9.6h-3.1V2.7h-6.4v24.9H63V9h6V2.7H56.6v27.6c0,0-0.3,4,3.7,4h18.4V34h0.5V18.7h3.1V34h6.4V2.7
			H82.2z"/>
		<g>
			<path class="st0" d="M110.1,18.3c-7.2,0-13,3.8-13,8.6c0,4.7,5.8,8.6,13,8.6c7.1,0,12.9-3.9,12.9-8.6
				C123,22.1,117.2,18.3,110.1,18.3z M110.1,30.8c-3.7,0-6.3-1.7-6.3-3.8c0-2.2,2.6-3.9,6.3-3.9c3.6,0,6.3,1.7,6.3,3.9
				C116.4,29,113.7,30.8,110.1,30.8z"/>
			<path class="st0" d="M101.3,12.2c0.6,1.2,1.7,2.4,3.3,3.3c1.7,1,4.3,1.3,6.3,1.4v-5.9c-2.4-0.4-4.7-1.1-5.7-2.6
				C104.5,7,104,5.9,104,3.1h-5.5c0,2.9-0.4,4-1.3,5.4c-0.9,1.6-3.3,2.2-5.6,2.6v5.9c1.8-0.1,4.4-0.4,6.1-1.3
				C99.5,14.6,100.7,13.5,101.3,12.2z"/>
			<polygon class="st0" points="117,18.2 122.9,18.2 122.9,2.9 117,2.9 117,4.6 112.1,4.6 112.1,10.8 117,10.8 			"/>
		</g>
	</g>
	<g>
		<path class="st0" d="M70,42.3"/>
		<polyline class="st0" points="70,40.7 72.4,46.8 75,46.8 71.2,37.7 68.9,37.7 65.1,46.8 67.6,46.8 70,40.7 		"/>
		<path class="st0" d="M79.3,42.3"/>
		<path class="st0" d="M76.2,46.8c0.5,0,0.8-0.5,0.8-1c0-0.6-0.4-1-0.8-1c-0.5,0-0.8,0.5-0.8,1C75.3,46.4,75.7,46.8,76.2,46.8z"/>
		<path class="st0" d="M76.2,45.8"/>
		<path class="st0" d="M79.6,45.8"/>
		<polygon class="st0" points="77.6,44.8 77.6,43.2 82.8,43.2 82.8,41.1 77.6,41.1 77.6,39.7 83.1,39.7 83.1,37.7 77.6,37.7 
			77.6,37.7 75.3,37.7 75.3,45.8 76.2,45.8 76.2,46.8 83.2,46.8 83.2,44.8 		"/>
		<path class="st0" d="M76.5,42.3"/>
		<path class="st0" d="M95.5,40.2"/>
		<path class="st0" d="M108.6,42.3"/>
		<path class="st0" d="M105.4,42.3"/>
		<path class="st0" d="M111.9,42.3"/>
		<polygon class="st0" points="110.8,37.7 110.8,43.3 110.8,43.3 106.5,37.7 106.5,37.7 106.5,37.7 104.3,37.7 104.3,46.8 
			106.5,46.8 106.5,41.2 106.5,41.2 110.8,46.8 110.8,46.8 113,46.8 113,37.7 		"/>
		<path class="st0" d="M121.3,44.1"/>
		<path class="st0" d="M69.7,40.1"/>
		<path class="st0" d="M98.6,42.5"/>
		<path class="st0" d="M101.7,40.2"/>
		<path class="st0" d="M98.6,45.3"/>
		<path class="st0" d="M98.6,47.3"/>
		<path class="st0" d="M102.8,43.5l0-0.7v-5.1h-2.3v5.2v0.5c0,0,0.1,2-2,1.9c-2.1,0-2-1.9-2-1.9l0-0.5v-5.2h-2.3v5.1v0.7
			c0,0-0.2,4,4.2,3.8C103,47.5,102.8,43.5,102.8,43.5z"/>
		<path class="st0" d="M86.8,40.5"/>
		<path class="st0" d="M87,40.5"/>
		<path class="st0" d="M88.8,42.3"/>
		<path class="st0" d="M89.4,38.7"/>
		<path class="st0" d="M88.8,42.1"/>
		<path class="st0" d="M90.8,41.1h-0.6l0,0H90h-2.1h-0.4c-0.4,0-0.7-0.3-0.7-0.8c0-0.4,0.3-0.6,0.7-0.6l0.4,0h5v-2h-5l-0.9,0
			c-1.4,0-2.5,1.1-2.5,2.7s1.1,2.8,2.5,2.8l0.6,0v0H90l0.4,0c0.4,0,0.7,0.3,0.7,0.8c0,0.4-0.3,0.9-0.7,0.9l-0.4,0h-5.1v2h5.1h0.9
			c1.4,0,2.5-1.4,2.5-2.9C93.3,42.4,92.2,41.1,90.8,41.1z"/>
		<path class="st0" d="M120.8,41.9v2.9H120h-1.3c0,0-2,0.2-2.1-2.5c0.1-2.7,2.1-2.5,2.1-2.5h1h3.3v-2h-3.3H118c-2,0-3.7,2.1-3.7,4.6
			c0,2.5,1.7,4.6,3.7,4.6h2h3.1v-0.5v-1.5v-2.9H120.8z"/>
		<path class="st0" d="M121.9,44.1"/>
		<path class="st0" d="M58.8,38.7"/>
		<path class="st0" d="M60.9,42.3"/>
		<path class="st0" d="M57.7,42.3"/>
		<path class="st0" d="M58.8,45.8"/>
		<path class="st0" d="M61.7,42.3"/>
		<path class="st0" d="M61.7,37.7H60h-1.1v0h-2.3l0,9.2h2.3l0,0h0.9h1.9c2,0,3.7-2.1,3.7-4.6C65.4,39.7,63.7,37.7,61.7,37.7z
			 M61,44.8h-1.2h-0.9l0-5.1H60h1c0,0,2-0.2,2.1,2.5C63,45,61,44.8,61,44.8z"/>
	</g>
</g>
</svg>
