<?xml version="1.0" encoding="utf-8"?>
<!-- Generator: Adobe Illustrator 27.6.1, SVG Export Plug-In . SVG Version: 6.00 Build 0)  -->
<svg version="1.1" id="레이어_1" xmlns="http://www.w3.org/2000/svg" xmlns:xlink="http://www.w3.org/1999/xlink" x="0px"
	 y="0px" viewBox="0 0 30 30" style="enable-background:new 0 0 30 30;" xml:space="preserve">
<style type="text/css">
	.st0{fill:#99CCFF;}
	.st1{fill:#FFFFFF;}
</style>
<g>
	<circle class="st0" cx="15" cy="15" r="14.6"/>
</g>
<path class="st1" d="M19.1,6.1c-1.4-0.9-2.5-0.4-3.1,1.2L15,10.9c-0.1,0.3,0.1,0.6,0.4,0.6h3.1c1,0,1.7,1.2,0.9,2.1l-5.1,6.1
	c-0.2,0.3-0.6,0.2-0.5-0.2l1.2-4.6c0.1-0.3-0.1-0.6-0.4-0.6h-2.1c-1.2,0-1.5-0.9-1.3-1.8l1.4-5.3c0.2-0.9-0.7-1.8-1.5-1.3
	c-2.2,1.3-3.6,3.7-3.6,6.4c0,5.7,4.7,6.8,3.8,11.9c4-1.6,11.2-6.1,11.2-11.9C22.5,9.8,21.2,7.4,19.1,6.1z"/>
</svg>
