<?xml version="1.0" encoding="utf-8"?>
<!-- Generator: Adobe Illustrator 27.6.1, SVG Export Plug-In . SVG Version: 6.00 Build 0)  -->
<svg version="1.1" id="레이어_1" xmlns="http://www.w3.org/2000/svg" xmlns:xlink="http://www.w3.org/1999/xlink" x="0px"
	 y="0px" viewBox="0 0 30 30" style="enable-background:new 0 0 30 30;" xml:space="preserve">
<style type="text/css">
	.st0{fill:#99CCFF;}
	.st1{fill:#FFFFFF;}
</style>
<g>
	<circle class="st0" cx="15" cy="15" r="14.6"/>
</g>
<g>
	<path class="st1" d="M6.7,13.8c0.3,0,0.6,0,0.9,0C8,13.6,8.3,13.4,8.4,13c0.1-0.2,0.1-0.3,0.1-0.5c0-0.3-0.1-0.6-0.4-0.9
		c-0.2-0.1-0.4-0.2-0.5-0.4c-0.1-0.1-0.3-0.2-0.4-0.3c-0.3-0.2-0.3-0.5-0.2-0.8c0-0.1,0.1-0.2,0.1-0.3c0.1-0.2,0.2-0.4,0.4-0.6
		c0-0.1,0.1-0.1,0.1-0.2C7.8,8.9,8.1,8.9,8.4,9c0.2,0.1,0.3,0.2,0.5,0.3c0.2,0.1,0.5,0.3,0.7,0.4c0.7,0.3,1.3,0,1.6-0.4
		c0.2-0.3,0.3-0.6,0.2-1c-0.1-0.2-0.1-0.4-0.2-0.5C11.1,7.6,11,7.5,11,7.3c0,0,0-0.1,0-0.1c-0.1-0.4,0-0.6,0.3-0.8
		C11.6,6.2,12,6.1,12.4,6c0.4-0.1,0.6,0,0.8,0.3c0.1,0.1,0.1,0.3,0.2,0.5c0.1,0.2,0.1,0.3,0.2,0.5c0,0.1,0.1,0.1,0.1,0.2
		c0.2,0.4,0.5,0.6,0.9,0.6c0.3,0,0.6,0,0.9,0c0.3,0,0.6-0.2,0.7-0.4c0.1-0.2,0.2-0.4,0.3-0.6c0-0.1,0.1-0.2,0.1-0.3
		c0.1-0.1,0.1-0.2,0.2-0.3C17,6,17.3,5.9,17.6,6c0.4,0.1,0.8,0.2,1.1,0.4c0.4,0.2,0.6,0.5,0.4,1C19,7.6,18.9,7.8,18.8,8
		c-0.1,0.2-0.1,0.4-0.1,0.6c0,0.2,0,0.4,0.2,0.5c0.3,0.4,0.7,0.6,1.2,0.6c0.2,0,0.5-0.1,0.7-0.2c0.2-0.1,0.5-0.3,0.7-0.4
		C21.5,9.1,21.6,9,21.8,9c0.2-0.1,0.5,0,0.6,0.2c0.3,0.3,0.5,0.6,0.7,1c0.1,0.3,0.1,0.5-0.1,0.8c-0.1,0.1-0.3,0.2-0.4,0.3
		c-0.2,0.1-0.4,0.2-0.5,0.4c-0.5,0.4-0.6,0.8-0.4,1.3c0,0.1,0.1,0.1,0.1,0.2c0.2,0.5,0.5,0.7,1,0.7c0.3,0,0.5,0,0.8,0
		c0.2,0,0.4,0,0.5,0c0.3,0,0.4,0.2,0.5,0.5c0.1,0.4,0.1,0.8,0,1.2c0,0.3-0.2,0.5-0.6,0.5c-0.2,0-0.5,0-0.7,0c-0.2,0-0.4,0-0.6,0
		c-0.3,0-0.5,0.2-0.7,0.4c-0.2,0.3-0.4,0.6-0.4,0.9c0,0.3,0,0.5,0.2,0.7c0.1,0.1,0.3,0.3,0.4,0.4c0.1,0.1,0.3,0.2,0.4,0.3
		c0.1,0.1,0.3,0.2,0.4,0.3c0.2,0.2,0.2,0.4,0.1,0.6c-0.1,0.4-0.4,0.8-0.7,1.1c-0.2,0.2-0.5,0.3-0.8,0.1c-0.2-0.1-0.4-0.3-0.6-0.4
		c-0.2-0.1-0.4-0.3-0.6-0.3c-0.2-0.1-0.4-0.1-0.6,0c-0.3,0.1-0.6,0.3-0.8,0.5c-0.2,0.3-0.3,0.6-0.2,1c0.1,0.2,0.1,0.4,0.2,0.6
		c0.1,0.2,0.1,0.4,0.2,0.5c0,0,0,0.1,0,0.1c0,0.3-0.1,0.5-0.4,0.7c-0.3,0.2-0.7,0.3-1.1,0.4c-0.1,0-0.2,0-0.3,0
		c-0.2,0-0.3-0.1-0.5-0.2c-0.1-0.1-0.2-0.3-0.2-0.4c-0.1-0.2-0.2-0.4-0.2-0.7c-0.1-0.1-0.1-0.3-0.2-0.4c-0.2-0.3-0.5-0.5-0.9-0.5
		c-0.3,0-0.7,0-1,0c-0.2,0-0.4,0.1-0.6,0.3c-0.1,0.1-0.2,0.3-0.3,0.5c-0.1,0.2-0.2,0.4-0.2,0.6c-0.1,0.1-0.1,0.3-0.2,0.4
		c-0.2,0.2-0.4,0.3-0.7,0.3c-0.4-0.1-0.9-0.2-1.2-0.5c-0.2-0.1-0.3-0.4-0.3-0.6c0-0.2,0.1-0.4,0.2-0.6c0.1-0.2,0.2-0.4,0.2-0.6
		c0.1-0.4,0-0.8-0.3-1.1c-0.1-0.2-0.3-0.3-0.5-0.4c-0.1-0.1-0.3-0.1-0.4-0.1c-0.2-0.1-0.5,0-0.7,0.1c-0.2,0.2-0.5,0.3-0.7,0.5
		c-0.1,0.1-0.2,0.1-0.4,0.2C8,21,7.7,21,7.5,20.6c-0.2-0.3-0.4-0.5-0.5-0.8c-0.2-0.3-0.1-0.6,0.1-0.9c0.2-0.1,0.3-0.3,0.5-0.4
		c0.2-0.1,0.3-0.2,0.5-0.4c0.3-0.3,0.4-0.7,0.3-1.1c0,0,0-0.1,0-0.1c-0.2-0.6-0.5-0.9-1.1-0.9c-0.3,0-0.7,0-1-0.1C6.1,16,6,16,6,16
		c-0.3-0.1-0.5-0.3-0.5-0.6c0-0.4,0-0.7,0-1.1c0-0.3,0.2-0.5,0.6-0.5c0.1,0,0.2,0,0.3,0C6.5,13.8,6.6,13.8,6.7,13.8z M14.9,10
		c-0.1,0-0.2,0-0.3,0c-0.1,0-0.2,0-0.3,0c-0.9,0.1-1.7,0.5-2.5,1c-1.1,0.9-1.7,2-1.9,3.3c-0.1,1,0.1,2,0.6,2.9
		c0.6,1,1.4,1.7,2.5,2.2c0.5,0.2,1.1,0.4,1.7,0.4c0.5,0,0.9,0,1.4-0.1c1.6-0.4,2.8-1.4,3.4-2.9C20,16,20.2,15,20,14
		c-0.3-1.5-1.1-2.6-2.5-3.4C16.7,10.2,15.8,9.9,14.9,10z"/>
	<path class="st1" d="M11,15.5c0.1,0,0.2,0,0.3,0c1,0,2,0,2.9,0c0,0,0.1,0,0.1,0c0,0.1,0,3.1,0,3.4c-0.1,0-0.1,0-0.2,0
		c-1.6-0.5-2.6-1.5-3.1-3.1C11,15.7,11,15.6,11,15.5z"/>
	<path class="st1" d="M15.9,18.9c0-1.1,0-2.3,0-3.4c0.1,0,2.9,0,3.2,0c0,0.4-0.4,1.4-0.8,1.9C17.6,18.2,16.8,18.6,15.9,18.9z"/>
	<path class="st1" d="M14.3,11c0,1,0,2,0,3c-0.1,0-3.1,0-3.2,0c0-0.3,0.6-1.4,1-1.9C12.6,11.6,13.8,11,14.3,11z"/>
	<path class="st1" d="M19,14c-1.1,0-2.1,0-3.2,0c0-0.1,0-0.1,0-0.2c0-0.7,0-1.3,0-2c0-0.2,0-0.3,0-0.5c0-0.1,0-0.2,0-0.3
		c0.9,0.2,1.6,0.5,2.2,1.2C18.5,12.7,18.8,13.3,19,14z"/>
</g>
</svg>
