<?xml version="1.0" encoding="utf-8"?>
<!-- Generator: Adobe Illustrator 27.6.1, SVG Export Plug-In . SVG Version: 6.00 Build 0)  -->
<svg version="1.1" id="레이어_1" xmlns="http://www.w3.org/2000/svg" xmlns:xlink="http://www.w3.org/1999/xlink" x="0px"
	 y="0px" viewBox="0 0 30 30" style="enable-background:new 0 0 30 30;" xml:space="preserve">
<style type="text/css">
	.st0{fill:#99CCFF;}
	.st1{fill:#FFFFFF;}
</style>
<g>
	<circle class="st0" cx="15" cy="15" r="14.6"/>
</g>
<g>
	<path class="st1" d="M19.5,8.7C18.1,8,16.6,7.6,15,7.6c-5.6,0-10.1,4.5-10.1,10.1c0,0.1,0,0.3,0,0.4h4c0.4-5.3,4.8-9.4,10.1-9.4
		C19.2,8.6,19.3,8.6,19.5,8.7z"/>
	<path class="st1" d="M22.4,10.8c-0.2-0.2-0.5-0.5-0.7-0.7c-0.8-0.3-1.7-0.4-2.6-0.4c-4.8,0-8.7,3.7-9.1,8.4h4.1
		C14.9,14.1,18.3,11.1,22.4,10.8z"/>
	<path class="st1" d="M24.1,13.4c-0.3-0.6-0.6-1.1-0.9-1.6c-0.1,0-0.1,0-0.2,0c-3.8,0-7,2.7-7.9,6.2h4.3C20.3,16,22,14.3,24.1,13.4z
		"/>
	<path class="st1" d="M25.1,17.7c0-1.1-0.2-2.2-0.5-3.2c-1.7,0.7-3.1,2-3.9,3.6h4.4C25.1,17.9,25.1,17.8,25.1,17.7z"/>
</g>
</svg>
