<?xml version="1.0" encoding="utf-8"?>
<!-- Generator: Adobe Illustrator 27.6.1, SVG Export Plug-In . SVG Version: 6.00 Build 0)  -->
<svg version="1.1" id="레이어_1" xmlns="http://www.w3.org/2000/svg" xmlns:xlink="http://www.w3.org/1999/xlink" x="0px"
	 y="0px" viewBox="0 0 100 100" style="enable-background:new 0 0 100 100;" xml:space="preserve">
<style type="text/css">
	.st0{fill:#CC0000;}
</style>
<g>
	<path class="st0" d="M48.7,50.2c-0.2,0-0.5-0.1-0.7-0.2h-0.1L26.8,36c-0.4-0.2-0.6-0.6-0.6-1c0-0.4,0.2-0.8,0.6-1l21.4-13.9
		c0.4-0.3,1-0.3,1.4,0L70.9,34c0.4,0.2,0.6,0.6,0.6,1c0,0.4-0.2,0.8-0.6,1L49.4,49.9C49.2,50.2,49,50.2,48.7,50.2z M29.8,35
		l19.1,12.4L67.9,35L48.7,22.5L29.8,35z"/>
	<path class="st0" d="M48.7,66.5c-0.2,0-0.4,0-0.5-0.1l-16.4-7.6c-0.4-0.2-0.7-0.6-0.7-1.1v-19c0-0.7,0.6-1.3,1.3-1.3
		c0.7,0,1.3,0.6,1.3,1.3v18.1l15.1,7L64,55.7V39c0-0.7,0.6-1.3,1.3-1.3c0.7,0,1.3,0.6,1.3,1.3v17.4c0,0.5-0.3,0.9-0.7,1.1l-16.3,8.8
		C49.1,66.4,48.9,66.5,48.7,66.5z"/>
	<path class="st0" d="M68.9,69c-0.7,0-1.3-0.6-1.3-1.3V36.2c0-0.7,0.6-1.3,1.3-1.3c0.7,0,1.3,0.6,1.3,1.3v31.5
		C70.1,68.4,69.5,69,68.9,69z"/>
	<path class="st0" d="M68.9,76.6c-2.8,0-5-2.2-5-5c0-2.8,2.2-5,5-5c2.8,0,5,2.2,5,5C73.9,74.2,71.6,76.6,68.9,76.6z M68.9,69
		c-1.4,0-2.5,1.1-2.5,2.5c0,1.4,1.1,2.5,2.5,2.5c1.4,0,2.5-1.1,2.5-2.5C71.4,70.1,70.2,69,68.9,69z"/>
	<path class="st0" d="M48.7,65.7c-0.7,0-1.3-0.6-1.3-1.3V48.9c0-0.7,0.6-1.3,1.3-1.3c0.7,0,1.3,0.6,1.3,1.3v15.5
		C49.9,65.1,49.3,65.7,48.7,65.7z"/>
	<path class="st0" d="M52.6,37.4h-1.3c-0.7,0-1.3-0.6-1.3-1.3c0-0.7,0.6-1.3,1.3-1.3h1.3c0.7,0,1.3,0.6,1.3,1.3
		C53.8,36.8,53.3,37.4,52.6,37.4z"/>
	<path class="st0" d="M44.9,37.4h-1.2c-0.7,0-1.3-0.6-1.3-1.3c0-0.7,0.6-1.3,1.3-1.3h1.2c0.7,0,1.3,0.6,1.3,1.3
		C46.2,36.8,45.6,37.4,44.9,37.4z"/>
	<path class="st0" d="M51.3,37.4h-6.4c-0.7,0-1.3-0.6-1.3-1.3v-0.6c0-2.4,2-4.4,4.4-4.4c1.2,0,2.3,0.5,3.1,1.3
		c0.8,0.8,1.3,1.9,1.3,3.1v0.6C52.5,36.8,51.9,37.4,51.3,37.4z M46.3,34.9h3.5c-0.1-0.3-0.2-0.5-0.4-0.7c-0.4-0.4-0.8-0.5-1.3-0.5
		C47.2,33.7,46.5,34.2,46.3,34.9z"/>
	<path class="st0" d="M23.5,53.9c-2.1,0-3.8-1.7-3.8-3.8c0-2.1,1.7-3.8,3.8-3.8c2.1,0,3.8,1.7,3.8,3.8
		C27.4,52.2,25.6,53.9,23.5,53.9z M23.5,48.8c-0.7,0-1.3,0.6-1.3,1.3c0,0.7,0.6,1.3,1.3,1.3c0.7,0,1.3-0.6,1.3-1.3
		C24.8,49.4,24.1,48.8,23.5,48.8z"/>
	<path class="st0" d="M76.5,27.4c-2.1,0-3.8-1.7-3.8-3.8s1.7-3.8,3.8-3.8c2.1,0,3.8,1.7,3.8,3.8S78.5,27.4,76.5,27.4z M76.5,22.3
		c-0.7,0-1.3,0.6-1.3,1.3c0,0.7,0.6,1.3,1.3,1.3c0.7,0,1.3-0.6,1.3-1.3C77.7,22.9,77.1,22.3,76.5,22.3z"/>
	<path class="st0" d="M33.6,76.6c-2.1,0-3.8-1.7-3.8-3.8c0-2.1,1.7-3.8,3.8-3.8c2.1,0,3.7,1.7,3.7,3.8
		C37.3,74.9,35.6,76.6,33.6,76.6z M33.6,71.5c-0.7,0-1.3,0.6-1.3,1.3c0,0.7,0.6,1.3,1.3,1.3c0.7,0,1.3-0.6,1.3-1.3
		C34.8,72,34.2,71.5,33.6,71.5z"/>
	<path class="st0" d="M79,80.3H21c-0.7,0-1.3-0.6-1.3-1.3c0-0.7,0.6-1.3,1.3-1.3h58c0.7,0,1.3,0.6,1.3,1.3
		C80.2,79.7,79.6,80.3,79,80.3z"/>
</g>
</svg>
