<?xml version="1.0" encoding="utf-8"?>
<!-- Generator: Adobe Illustrator 27.6.1, SVG Export Plug-In . SVG Version: 6.00 Build 0)  -->
<svg version="1.1" id="레이어_1" xmlns="http://www.w3.org/2000/svg" xmlns:xlink="http://www.w3.org/1999/xlink" x="0px"
	 y="0px" viewBox="0 0 100 100" style="enable-background:new 0 0 100 100;" xml:space="preserve">
<style type="text/css">
	.st0{fill:#CC0000;}
</style>
<g>
	<path class="st0" d="M89.8,186.7c-0.2,0-0.5-0.1-0.7-0.2H89l-21.2-13.9c-0.4-0.2-0.6-0.6-0.6-1s0.2-0.8,0.6-1l21.4-13.9
		c0.4-0.3,1-0.3,1.4,0l21.4,13.9c0.4,0.2,0.6,0.6,0.6,1s-0.2,0.8-0.6,1l-21.5,13.9C90.3,186.7,90.1,186.7,89.8,186.7z M70.8,171.6
		L89.9,184l19.1-12.4l-19.2-12.5L70.8,171.6z"/>
	<path class="st0" d="M89.8,203.1c-0.2,0-0.4,0-0.5-0.1l-16.4-7.6c-0.4-0.2-0.7-0.6-0.7-1.1v-19c0-0.7,0.6-1.3,1.3-1.3
		c0.7,0,1.3,0.6,1.3,1.3v18.1l15.1,7l15.1-8.2v-16.7c0-0.7,0.6-1.3,1.3-1.3c0.7,0,1.3,0.6,1.3,1.3V193c0,0.5-0.3,0.9-0.7,1.1
		l-16.3,8.8C90.2,203,90,203.1,89.8,203.1z"/>
	<path class="st0" d="M110,205.6c-0.7,0-1.3-0.6-1.3-1.3v-31.5c0-0.7,0.6-1.3,1.3-1.3c0.7,0,1.3,0.6,1.3,1.3v31.5
		C111.2,205,110.6,205.6,110,205.6z"/>
	<path class="st0" d="M110,213.2c-2.8,0-5-2.2-5-5s2.2-5,5-5c2.8,0,5,2.2,5,5C115,210.8,112.7,213.2,110,213.2z M110,205.6
		c-1.4,0-2.5,1.1-2.5,2.5s1.1,2.5,2.5,2.5c1.4,0,2.5-1.1,2.5-2.5S111.3,205.6,110,205.6z"/>
	<path class="st0" d="M89.8,202.3c-0.7,0-1.3-0.6-1.3-1.3v-15.4c0-0.7,0.6-1.3,1.3-1.3c0.7,0,1.3,0.6,1.3,1.3v15.5
		C91,201.7,90.4,202.3,89.8,202.3z"/>
	<path class="st0" d="M93.6,174h-1.3c-0.7,0-1.3-0.6-1.3-1.3c0-0.7,0.6-1.3,1.3-1.3h1.3c0.7,0,1.3,0.6,1.3,1.3
		C94.8,173.4,94.3,174,93.6,174z"/>
	<path class="st0" d="M86,174h-1.2c-0.7,0-1.3-0.6-1.3-1.3c0-0.7,0.6-1.3,1.3-1.3H86c0.7,0,1.3,0.6,1.3,1.3
		C87.3,173.4,86.7,174,86,174z"/>
	<path class="st0" d="M92.3,174H86c-0.7,0-1.3-0.6-1.3-1.3v-0.6c0-2.4,2-4.4,4.4-4.4c1.2,0,2.3,0.5,3.1,1.3c0.8,0.8,1.3,1.9,1.3,3.1
		v0.6C93.5,173.4,92.9,174,92.3,174z M87.4,171.5h3.5c-0.1-0.3-0.2-0.5-0.4-0.7c-0.4-0.4-0.8-0.5-1.3-0.5
		C88.3,170.3,87.6,170.8,87.4,171.5z"/>
	<path class="st0" d="M64.6,190.5c-2.1,0-3.8-1.7-3.8-3.8c0-2.1,1.7-3.8,3.8-3.8c2.1,0,3.8,1.7,3.8,3.8
		C68.4,188.8,66.6,190.5,64.6,190.5z M64.6,185.4c-0.7,0-1.3,0.6-1.3,1.3c0,0.7,0.6,1.3,1.3,1.3c0.7,0,1.3-0.6,1.3-1.3
		C65.9,186,65.2,185.4,64.6,185.4z"/>
	<path class="st0" d="M117.5,163.9c-2.1,0-3.8-1.7-3.8-3.8c0-2.1,1.7-3.8,3.8-3.8c2.1,0,3.8,1.7,3.8,3.8
		C121.3,162.2,119.5,163.9,117.5,163.9z M117.5,158.9c-0.7,0-1.3,0.6-1.3,1.3c0,0.7,0.6,1.3,1.3,1.3c0.7,0,1.3-0.6,1.3-1.3
		C118.7,159.5,118.1,158.9,117.5,158.9z"/>
	<path class="st0" d="M74.7,213.2c-2.1,0-3.8-1.7-3.8-3.8c0-2.1,1.7-3.8,3.8-3.8c2.1,0,3.7,1.7,3.7,3.8
		C78.4,211.4,76.7,213.2,74.7,213.2z M74.7,208.1c-0.7,0-1.3,0.6-1.3,1.3c0,0.7,0.6,1.3,1.3,1.3c0.7,0,1.3-0.6,1.3-1.3
		C75.9,208.6,75.3,208.1,74.7,208.1z"/>
	<path class="st0" d="M120,216.9h-58c-0.7,0-1.3-0.6-1.3-1.3c0-0.7,0.6-1.3,1.3-1.3h58c0.7,0,1.3,0.6,1.3,1.3
		C121.2,216.3,120.6,216.9,120,216.9z"/>
</g>
<g id="A112__x2C_Agreement__x2C_Estate__x2C_Handshake__x2C_House__x2C_Real">
	<g>
		<path class="st0" d="M188.2,155.8l-1.2-1.2l3.8-3.8c0.2-0.2,0.3-0.4,0.3-0.6l0.4-1.6c0.5,0.3,1.1,0.2,1.5-0.2l6.9-6.8
			c0.5-0.5,0.5-1.3,0-1.8l-15.7-15.5c-0.5-0.5-1.3-0.5-1.8,0l-6.9,6.8c-0.1,0.1-0.1,0.2-0.2,0.2c-1.6-0.7-3.3-1-5-0.5
			c-1.4,0.4-2.4,1.4-3.6,2.2c0-0.3-0.1-0.5-0.4-0.7l-6.9-6.8c-0.5-0.5-1.3-0.5-1.8,0l-15.7,15.6c-0.5,0.5-0.5,1.3,0,1.8l6.9,6.8
			c0.1,0.1,0.3,0.3,0.5,0.3l0.7,2.3c0.1,0.2,0.2,0.4,0.3,0.5l1.8,1.8l-5.3,5.1c-1.5,1.5-1.5,4.1,0,5.6c1.5,1.5,4.1,1.5,5.7,0l0,0
			c1,2.4,4.1,3.2,6.2,1.6c1.1,2.5,4.6,3.2,6.6,1.3l0.3-0.3c1,2.6,4.6,3.3,6.6,1.3l5.5-5.5c1.9,0.5,4-0.4,4.9-2.3l0,0
			c1.6,1.6,4.3,1.5,5.9-0.2C189.8,159.8,189.7,157.3,188.2,155.8z M183.3,127l14,13.8l-5.1,5l-14-13.8L183.3,127z M169.1,134.4
			c1-0.8,2-1.5,3.4-1.3c0.6,0.1,1.2,0.3,1.8,0.5c0.6,0.3,1.1,0.6,1.7,0.3l0.3-0.2l13,12.9l-0.7,2.7l-3.5,3.6l-14.8-14.6
			c-0.2-0.2-0.6-0.4-0.9-0.4c-1.1,0-2.4,0.6-3.4,0.9c-1.3,0.3-2.6,0.6-3.9,0.5c-0.6,0-2.8-0.4-2.7-1.4c0.1-0.5,0.8-0.8,1.1-1
			c0.5-0.2,1-0.4,1.5-0.5c0.6-0.2,1.4-0.1,2-0.4c0.9-0.1,1.9-0.1,2.8-0.4C167.7,135.4,168.4,134.9,169.1,134.4
			C170.1,133.7,168,135.1,169.1,134.4z M144.7,142l14-13.9l5.1,5c-0.1,0-0.1,0.1-0.2,0.2l-0.3,0.3l-0.1,0.1l-0.1,0.1
			c-2.5,0.3-7.9,2.1-5.9,5.7l-7.6,7.6L144.7,142z M159.6,162.6l-2.2,2.2c-1.1,1.1-3.1-0.2-2.4-1.6c0.3-0.7,1-1.1,0.4-1.9
			c-0.4-0.7-1.4-0.8-1.9-0.2l-2.6,2.6c-1.4,1.3-3.5-0.7-2.1-2.1l5.3-5.1l6.1,6C159.8,162.4,159.7,162.5,159.6,162.6z M163.5,166.4
			c-0.6,0.6-1.5,0.5-2.1,0c-0.5-0.5-0.6-1.4,0-2l0,0c0.1-0.1,0.2-0.2,0.2-0.3l1.2,1.3c0.3,0.3,0.6,0.5,1,0.7L163.5,166.4
			L163.5,166.4z M170.4,167.5c-1.1,1.1-2.9-0.1-2.5-1.5c0.7-0.4,1.3-1.1,1.6-1.9l0.3,0.3c0.7,0.7,1.6,1.1,2.6,1.2L170.4,167.5z
			 M186.5,159.7c-0.6,0.6-1.5,0.5-2.1,0l-2.6-2.6c-0.5-0.5-1.3-0.5-1.8,0c-0.7,0.7-0.2,1.3,0.2,2c1,1.4-1.1,3-2.3,1.8l-2.2-2.2l0,0
			c-1.1-1.1-2.9,0.6-1.8,1.8l0,0c0.6,0.6,0.5,1.4,0,2c-0.6,0.5-1.5,0.6-2.1,0l-2.8-2.8c-0.8-0.8-2.2-0.2-2.1,0.9
			c0,0.6,0.6,1,0.7,1.5c0.1,0.5,0,1.1-0.5,1.5c-0.1,0.1-0.2,0.2-0.3,0.2c-0.1,0-0.2,0.1-0.2,0.1c-0.5,0.2-1.2,0-1.6-0.4l-2.8-2.9
			l0,0l-7.1-7l0,0l-2.4-2.4l-0.8-2.5l4.9-4.8l2.7-2.8l0,0c3,1.6,6.9,0.3,9.9-0.5l15.1,14.9l0,0l2.2,2.1
			C187.1,158.2,187.1,159.2,186.5,159.7C186.1,160,187.1,159.2,186.5,159.7z"/>
		<path class="st0" d="M149.8,143.7c2,0,2-3.1,0-3.1C147.8,140.6,147.8,143.7,149.8,143.7z"/>
		<path class="st0" d="M193.6,140.7c0-2-3-1.9-3,0C190.6,142.6,193.6,142.6,193.6,140.7C193.6,140.3,193.6,141.1,193.6,140.7z"/>
		<path class="st0" d="M146,129.2c2,0,3.8-1.7,3.8-3.8c0-2-1.7-3.8-3.8-3.8c-2.1,0-3.8,1.7-3.8,3.8C142.2,127.5,144,129.2,146,129.2
			z M146,124.2c1.6,0,1.6,2.5,0,2.5C144.4,126.7,144.4,124.2,146,124.2z"/>
		<path class="st0" d="M196,121.7c2.4,0,4.5-2,4.5-4.4c0-2.4-2-4.4-4.5-4.4c-2.4,0-4.5,2-4.5,4.4C191.5,119.7,193.5,121.7,196,121.7
			z M196,115.4c2.4,0,2.4,3.8,0,3.8C193.5,119.2,193.5,115.4,196,115.4z"/>
		<path class="st0" d="M191.5,161.7c-1.6,0-1.6,2.5,0,2.5h8.9c1.6,0,1.6-2.5,0-2.5H191.5z"/>
		<path class="st0" d="M200.4,165.4h-8.9c-1.6,0-1.6,2.5,0,2.5h8.9C202,167.9,202,165.4,200.4,165.4z"/>
		<path class="st0" d="M142.2,151.7h3.6c1.6,0,1.6-2.5,0-2.5h-3.6C140.5,149.2,140.5,151.7,142.2,151.7z"/>
		<path class="st0" d="M147.1,154.2c0-0.7-0.6-1.3-1.3-1.3h-3.6c-1.6,0-1.6,2.5,0,2.5h3.6C146.5,155.4,147.1,154.9,147.1,154.2z"/>
		<path class="st0" d="M162.5,119h0.2v7.6c0,0.7,0.6,1.3,1.3,1.3h4.1c0.7,0,1.3-0.6,1.3-1.3v-2.5c0-1.1,1.7-1.1,1.7,0v2.5
			c0,0.7,0.6,1.3,1.3,1.3h4c0.7,0,1.3-0.6,1.3-1.3V119h0.3l0,0c1.2,0,1.7-1.6,0.7-2.3l-7.7-6.1c-0.5-0.4-1.1-0.4-1.6,0l-7.9,6.2
			C160.8,117.5,161.3,119,162.5,119z M175.1,125.4h-1.5v-1.3c0-1.8-1.5-3.4-3.4-3.4c-1.9,0-3.4,1.5-3.4,3.4v1.3h-1.6V119h9.9v6.4
			H175.1z M170.2,113.3l4.1,3.3H166L170.2,113.3z"/>
	</g>
</g>
<g>
	<g id="_x31_024_x2C__Health_Care_x2C__Heart_Care_x2C__Heart_Disease_x2C__Insurance">
		<g>
			<path class="st0" d="M72.6,60.7c0-0.8-0.7-1.3-1.4-1.2c-1.7,0.2-3.7,0.2-5.2-0.9c-0.5-0.4-1.3-0.4-1.8,0.2
				c-0.4,0.5-0.4,1.3,0.2,1.8c1.2,1,3,1.7,5.7,1.6c0,2.3,0,4.6-0.2,5.8c-0.3,1.5-1.1,2.1-3.9,5.1c-0.5,0.5-0.5,1.3,0,1.8
				c0.5,0.5,1.3,0.5,1.8,0c2.7-2.8,4.1-3.9,4.6-6.3C72.7,66.8,72.6,64.8,72.6,60.7z"/>
			<path class="st0" d="M70.3,38.7c0.7,0,1.3,0.6,1.3,1.3c0,0.7-0.6,1.3-1.3,1.3c-0.7,0-1.3-0.6-1.3-1.3
				C69,39.2,69.6,38.7,70.3,38.7z"/>
			<path class="st0" d="M27.4,36.2c0.7,0,1.3,0.6,1.3,1.3c0,0.7-0.6,1.3-1.3,1.3c-0.7,0-1.3-0.6-1.3-1.3
				C26.1,36.7,26.7,36.2,27.4,36.2z"/>
			<path class="st0" d="M75.3,23.7c0.7,0,1.3,0.6,1.3,1.3c0,0.7-0.6,1.3-1.3,1.3c-0.7,0-1.3-0.6-1.3-1.3
				C74,24.2,74.6,23.7,75.3,23.7z"/>
			<path class="st0" d="M56.4,19.9c0.7,0,1.3,0.6,1.3,1.3c0,0.7-0.6,1.3-1.3,1.3c-0.7,0-1.3-0.6-1.3-1.3
				C55,20.5,55.6,19.9,56.4,19.9z"/>
			<ellipse class="st0" cx="26.1" cy="24.9" rx="1.3" ry="1.3"/>
			<path class="st0" d="M23.5,69.9c0.7,0,1.3,0.6,1.3,1.3c0,0.7-0.6,1.3-1.3,1.3c-0.7,0-1.3-0.6-1.3-1.3
				C22.2,70.5,22.8,69.9,23.5,69.9z"/>
			<path class="st0" d="M33.6,67.4c0.7,0,1.3,0.6,1.3,1.3c0,0.7-0.6,1.3-1.3,1.3c-0.7,0-1.3-0.6-1.3-1.3
				C32.3,68,32.9,67.4,33.6,67.4z"/>
			<path class="st0" d="M52.6,74.9c0.7,0,1.3,0.6,1.3,1.3c0,0.7-0.6,1.3-1.3,1.3c-0.7,0-1.3-0.6-1.3-1.3
				C51.3,75.5,51.9,74.9,52.6,74.9z"/>
			<path class="st0" d="M28.7,41.3c0-0.7-0.6-1.3-1.3-1.3c-0.7,0-1.3,0.6-1.3,1.3c0,10.7,10.4,14.4,20.5,24.5c0.5,0.5,1.3,0.5,1.8,0
				c0.5-0.5,0.5-1.3,0-1.8C38.4,54.2,28.7,50.7,28.7,41.3z"/>
			<path class="st0" d="M69,49.9c0.5,0,0.9-0.3,1.1-0.7c0.9-1.9,1.3-3.9,1.3-6.1c0-0.7-0.6-1.3-1.3-1.3c-0.7,0-1.3,0.6-1.3,1.3
				c0,1.8-0.4,3.5-1.1,5C67.5,48.9,68.1,49.9,69,49.9z"/>
			<path class="st0" d="M76.7,56.8c0-0.8-0.7-1.3-1.4-1.2c-1.8,0.3-3.2,0.3-4.4,0.1c4.3-4.4,7-8.9,7-15.1c0-8.3-6.8-15-15.1-15
				c-7,0-10.7,3.3-13.8,8.9c-3.1-5.5-6.9-8.9-13.8-8.9c-8.4,0-15.1,6.7-15.1,15c0,14.5,14.2,19.6,28.1,33.3c0.5,0.5,1.3,0.5,1.8,0
				c1.4-1.4,2.9-2.9,4.6-4.3c0.8,3.8,3,5.6,7.5,10c0.2,0.2,0.6,0.4,0.9,0.4h5.2c0.3,0,0.7-0.1,0.9-0.4c4.6-4.8,6.7-6.4,7.5-10.1
				C76.8,66.9,76.7,63.6,76.7,56.8z M48.8,71.2c-13.6-13.1-26.5-18-26.5-30.7c0-6.9,5.7-12.5,12.6-12.5c5.9,0,9.1,2.4,12.7,9.6
				c0.5,0.9,1.8,0.9,2.2,0c3.6-7.2,6.9-9.6,12.7-9.6c7,0,12.6,5.6,12.6,12.5c0,5.3-2.1,9.5-7.3,14.4c-0.7-0.3-1.3-0.7-1.8-1.1
				c-0.4-0.4-1-0.4-1.5-0.1c-2.8,1.9-6,2.4-9.2,1.8c-0.8-0.1-1.5,0.4-1.5,1.2c0,4.1,0,7.5,0.1,9.8C52,68.2,50.4,69.7,48.8,71.2z
				 M73.7,68.9c-0.6,2.8-2.1,4-6.5,8.5h-4.1c-2.5-2.6-4.4-4.4-5.5-6c-1.4-2.4-1.4-5.1-1.4-13.2c3.1,0.3,6.2-0.3,8.8-1.9
				c2.6,1.8,5.9,2.1,9,1.9C74.1,63.4,74.2,66.8,73.7,68.9z"/>
			<path class="st0" d="M24.9,59.9c-2.1,0-3.8,1.7-3.8,3.8c0,2.1,1.7,3.8,3.8,3.8s3.8-1.7,3.8-3.8C28.7,61.7,26.9,59.9,24.9,59.9z
				 M24.9,64.9c-0.7,0-1.3-0.6-1.3-1.3c0-0.7,0.6-1.3,1.3-1.3c0.7,0,1.3,0.6,1.3,1.3C26.1,64.3,25.5,64.9,24.9,64.9z"/>
			<path class="st0" d="M48.2,26.2c1.7,0,3.1-1.4,3.1-3.1c0-1.7-1.4-3.2-3.1-3.2c-1.7,0-3.1,1.4-3.1,3.1
				C45.1,24.7,46.5,26.2,48.2,26.2z M48.2,22.4c0.3,0,0.6,0.3,0.6,0.6c0,0.3-0.3,0.6-0.6,0.6c-0.3,0-0.6-0.3-0.6-0.6
				C47.6,22.7,47.8,22.4,48.2,22.4z"/>
			<path class="st0" d="M38.1,69.9c-2.4,0-4.4,2-4.4,4.4c0,2.4,2,4.4,4.4,4.4c2.4,0,4.4-2,4.4-4.4C42.5,71.9,40.5,69.9,38.1,69.9z
				 M38.1,76.2c-1,0-1.9-0.8-1.9-1.9c0-1.1,0.8-1.9,1.9-1.9c1.1,0,1.9,0.8,1.9,1.9C40,75.4,39.1,76.2,38.1,76.2z"/>
		</g>
	</g>
	<g id="Layer_1_00000121260136190418438210000018394289124442551435_">
	</g>
</g>
</svg>
