<?xml version="1.0" encoding="utf-8"?>
<!-- Generator: Adobe Illustrator 27.6.1, SVG Export Plug-In . SVG Version: 6.00 Build 0)  -->
<svg version="1.1" id="레이어_1" xmlns="http://www.w3.org/2000/svg" xmlns:xlink="http://www.w3.org/1999/xlink" x="0px"
	 y="0px" viewBox="0 0 100 100" style="enable-background:new 0 0 100 100;" xml:space="preserve">
<style type="text/css">
	.st0{fill:#CC0000;}
</style>
<g id="A112__x2C_Agreement__x2C_Estate__x2C_Handshake__x2C_House__x2C_Real">
	<g>
		<path class="st0" d="M66.9,65.5l-1.2-1.2l3.8-3.8c0.2-0.2,0.3-0.4,0.3-0.6l0.4-1.6c0.5,0.3,1.1,0.2,1.5-0.2l6.9-6.8
			c0.5-0.5,0.5-1.3,0-1.8L62.9,34c-0.5-0.5-1.3-0.5-1.8,0l-6.9,6.8C54.1,40.9,54.1,41,54,41c-1.6-0.7-3.3-1-5-0.5
			c-1.4,0.4-2.4,1.4-3.6,2.2c0-0.3-0.1-0.5-0.4-0.7l-6.9-6.8c-0.5-0.5-1.3-0.5-1.8,0L20.7,50.8c-0.5,0.5-0.5,1.3,0,1.8l6.9,6.8
			c0.1,0.1,0.3,0.3,0.5,0.3l0.7,2.3c0.1,0.2,0.2,0.4,0.3,0.5l1.8,1.8l-5.3,5.1c-1.5,1.5-1.5,4.1,0,5.6c1.5,1.5,4.1,1.5,5.7,0l0,0
			c1,2.4,4.1,3.2,6.2,1.6c1.1,2.5,4.6,3.2,6.6,1.3l0.3-0.3c1,2.6,4.6,3.3,6.6,1.3l5.5-5.5c1.9,0.5,4-0.4,4.9-2.3l0,0
			c1.6,1.6,4.3,1.5,5.9-0.2C68.5,69.5,68.4,67,66.9,65.5z M62,36.7l14,13.8l-5.1,5L57,41.7L62,36.7z M47.8,44.1c1-0.8,2-1.5,3.4-1.3
			c0.6,0.1,1.2,0.3,1.8,0.5c0.6,0.3,1.1,0.6,1.7,0.3l0.3-0.2l13,12.9L67.4,59l-3.5,3.6L49.1,48c-0.2-0.2-0.6-0.4-0.9-0.4
			c-1.1,0-2.4,0.6-3.4,0.9c-1.3,0.3-2.6,0.6-3.9,0.5c-0.6,0-2.8-0.4-2.7-1.4c0.1-0.5,0.8-0.8,1.1-1c0.5-0.2,1-0.4,1.5-0.5
			c0.6-0.2,1.4-0.1,2-0.4c0.9-0.1,1.9-0.1,2.8-0.4C46.5,45.1,47.2,44.6,47.8,44.1C48.8,43.4,46.8,44.8,47.8,44.1z M23.4,51.7
			l14-13.9l5.1,5c-0.1,0-0.1,0.1-0.2,0.2l-0.3,0.3l-0.1,0.1l-0.1,0.1c-2.5,0.3-7.9,2.1-5.9,5.7l-7.6,7.6L23.4,51.7z M38.4,72.3
			l-2.2,2.2c-1.1,1.1-3.1-0.2-2.4-1.6c0.3-0.7,1-1.1,0.4-1.9c-0.4-0.7-1.4-0.8-1.9-0.2l-2.6,2.6c-1.4,1.3-3.5-0.7-2.1-2.1l5.3-5.1
			l6.1,6C38.6,72.1,38.5,72.2,38.4,72.3z M42.2,76.1c-0.6,0.6-1.5,0.5-2.1,0c-0.5-0.5-0.6-1.4,0-2l0,0c0.1-0.1,0.2-0.2,0.2-0.3
			l1.2,1.3c0.3,0.3,0.6,0.5,1,0.7L42.2,76.1L42.2,76.1z M49.1,77.2c-1.1,1.1-2.9-0.1-2.5-1.5c0.7-0.4,1.3-1.1,1.6-1.9l0.3,0.3
			c0.7,0.7,1.6,1.1,2.6,1.2L49.1,77.2z M65.2,69.4c-0.6,0.6-1.5,0.5-2.1,0l-2.6-2.6c-0.5-0.5-1.3-0.5-1.8,0c-0.7,0.7-0.2,1.3,0.2,2
			c1,1.4-1.1,3-2.3,1.8l-2.2-2.2l0,0c-1.1-1.1-2.9,0.6-1.8,1.8l0,0c0.6,0.6,0.5,1.4,0,2c-0.6,0.5-1.5,0.6-2.1,0l-2.8-2.8
			c-0.8-0.8-2.2-0.2-2.1,0.9c0,0.6,0.6,1,0.7,1.5c0.1,0.5,0,1.1-0.5,1.5c-0.1,0.1-0.2,0.2-0.3,0.2c-0.1,0-0.2,0.1-0.2,0.1
			c-0.5,0.2-1.2,0-1.6-0.4l-2.8-2.9l0,0l-7.1-7l0,0l-2.4-2.4l-0.8-2.5l4.9-4.8l2.7-2.8l0,0c3,1.6,6.9,0.3,9.9-0.5l15.1,14.9l0,0
			l2.2,2.1C65.8,67.9,65.8,68.9,65.2,69.4C64.9,69.7,65.8,68.9,65.2,69.4z"/>
		<path class="st0" d="M28.6,53.4c2,0,2-3.1,0-3.1C26.5,50.3,26.5,53.4,28.6,53.4z"/>
		<path class="st0" d="M72.4,50.4c0-2-3-1.9-3,0C69.3,52.3,72.4,52.3,72.4,50.4C72.4,50,72.4,50.8,72.4,50.4z"/>
		<path class="st0" d="M24.7,38.9c2,0,3.8-1.7,3.8-3.8c0-2-1.7-3.8-3.8-3.8s-3.8,1.7-3.8,3.8C21,37.2,22.7,38.9,24.7,38.9z
			 M24.7,33.9c1.6,0,1.6,2.5,0,2.5C23.1,36.4,23.1,33.9,24.7,33.9z"/>
		<path class="st0" d="M74.7,31.4c2.4,0,4.5-2,4.5-4.4c0-2.4-2-4.4-4.5-4.4c-2.4,0-4.5,2-4.5,4.4C70.2,29.4,72.3,31.4,74.7,31.4z
			 M74.7,25.1c2.4,0,2.4,3.8,0,3.8C72.3,28.9,72.3,25.1,74.7,25.1z"/>
		<path class="st0" d="M70.2,71.4c-1.6,0-1.6,2.5,0,2.5h8.9c1.6,0,1.6-2.5,0-2.5H70.2z"/>
		<path class="st0" d="M79.1,75.1h-8.9c-1.6,0-1.6,2.5,0,2.5h8.9C80.8,77.6,80.8,75.1,79.1,75.1z"/>
		<path class="st0" d="M21,61.4h3.6c1.6,0,1.6-2.5,0-2.5H21C19.2,58.9,19.2,61.4,21,61.4z"/>
		<path class="st0" d="M25.8,63.9c0-0.7-0.6-1.3-1.3-1.3h-3.6c-1.6,0-1.6,2.5,0,2.5h3.6C25.2,65.1,25.8,64.6,25.8,63.9z"/>
		<path class="st0" d="M41.2,28.7h0.2v7.6c0,0.7,0.6,1.3,1.3,1.3h4.1c0.7,0,1.3-0.6,1.3-1.3v-2.5c0-1.1,1.7-1.1,1.7,0v2.5
			c0,0.7,0.6,1.3,1.3,1.3h4c0.7,0,1.3-0.6,1.3-1.3v-7.6h0.3l0,0c1.2,0,1.7-1.6,0.7-2.3l-7.7-6.1c-0.5-0.4-1.1-0.4-1.6,0l-7.9,6.2
			C39.5,27.2,40,28.7,41.2,28.7z M53.8,35.1h-1.5v-1.3c0-1.8-1.5-3.4-3.4-3.4c-1.9,0-3.4,1.5-3.4,3.4v1.3h-1.6v-6.4h9.9v6.4H53.8z
			 M48.9,23l4.1,3.3h-8.3L48.9,23z"/>
	</g>
</g>
</svg>
