<?xml version="1.0" encoding="utf-8"?>
<!-- Generator: Adobe Illustrator 27.6.1, SVG Export Plug-In . SVG Version: 6.00 Build 0)  -->
<svg version="1.1" id="Layer_1" xmlns="http://www.w3.org/2000/svg" xmlns:xlink="http://www.w3.org/1999/xlink" x="0px" y="0px"
	 viewBox="0 0 50 50" style="enable-background:new 0 0 50 50;" xml:space="preserve">
<style type="text/css">
	.st0{fill:#FF6652;}
	.st1{fill:#FFFFFF;}
</style>
<rect x="-5" y="-5" class="st0" width="60" height="60"/>
<g>
	<path class="st1" d="M16,29.5v-7.8h-2.6v-1.2h6.7v1.2h-2.6v7.8H16z"/>
	<path class="st1" d="M24.7,29.7c-0.8,0-1.4-0.2-2-0.6c-0.6-0.4-1.1-0.9-1.4-1.6c-0.3-0.7-0.5-1.5-0.5-2.5c0-1,0.2-1.8,0.5-2.5
		c0.3-0.7,0.8-1.2,1.4-1.6c0.6-0.4,1.3-0.6,2-0.6c0.8,0,1.5,0.2,2,0.6c0.6,0.4,1,0.9,1.4,1.6c0.3,0.7,0.5,1.5,0.5,2.5
		c0,1-0.2,1.8-0.5,2.5c-0.3,0.7-0.8,1.2-1.4,1.6C26.1,29.5,25.4,29.7,24.7,29.7z M24.7,28.4c0.5,0,0.9-0.1,1.3-0.4
		c0.4-0.3,0.7-0.7,0.9-1.2s0.3-1.1,0.3-1.8c0-0.7-0.1-1.3-0.3-1.8c-0.2-0.5-0.5-0.9-0.9-1.2c-0.4-0.3-0.8-0.4-1.3-0.4
		c-0.5,0-0.9,0.1-1.3,0.4c-0.4,0.3-0.7,0.7-0.9,1.2c-0.2,0.5-0.3,1.1-0.3,1.8c0,0.7,0.1,1.3,0.3,1.8c0.2,0.5,0.5,0.9,0.9,1.2
		C23.7,28.3,24.2,28.4,24.7,28.4z"/>
	<path class="st1" d="M30.5,29.5v-9h2.7c0.7,0,1.3,0.1,1.8,0.3c0.5,0.2,0.9,0.5,1.2,0.9c0.3,0.4,0.4,0.9,0.4,1.6
		c0,0.7-0.1,1.2-0.4,1.6c-0.3,0.4-0.7,0.7-1.2,0.9c-0.5,0.2-1.1,0.3-1.8,0.3h-1.4v3.4H30.5z M31.9,24.9h1.2c0.7,0,1.2-0.1,1.6-0.4
		c0.4-0.3,0.5-0.7,0.5-1.3c0-0.6-0.2-1-0.6-1.2c-0.4-0.2-0.9-0.3-1.6-0.3h-1.2V24.9z"/>
</g>
</svg>
