<?xml version="1.0" encoding="utf-8"?>
<!-- Generator: Adobe Illustrator 27.6.1, SVG Export Plug-In . SVG Version: 6.00 Build 0)  -->
<svg version="1.1" id="레이어_1" xmlns="http://www.w3.org/2000/svg" xmlns:xlink="http://www.w3.org/1999/xlink" x="0px"
	 y="0px" viewBox="0 0 730 730" style="enable-background:new 0 0 730 730;" xml:space="preserve">
<style type="text/css">
	.st0{fill:#595959;}
	.st1{fill:#FAFFF1;stroke:#EDF9D4;stroke-miterlimit:10;}
	.st2{opacity:0.24;fill:#CFD2CF;stroke:#C1C1C1;stroke-miterlimit:10;enable-background:new    ;}
	.st3{fill:#CFD2CF;stroke:#CECECE;stroke-miterlimit:10;}
	.st4{fill:#FFFFFF;}
	.st5{fill:none;stroke:#D8D8D8;stroke-width:0.5;stroke-miterlimit:10;}
	.st6{fill:#EB1D36;stroke:#DD1B3C;stroke-miterlimit:10;}
	
		.st7{opacity:0.39;clip-path:url(#SVGID_00000097485247298239608740000017995962719374626220_);fill:#D80B2E;enable-background:new    ;}
	
		.st8{opacity:0.39;clip-path:url(#SVGID_00000142856024114609784200000007407200224575820688_);fill:#D80B2E;enable-background:new    ;}
	
		.st9{opacity:0.39;clip-path:url(#SVGID_00000103982818383361117970000013884318933110942849_);fill:#D80B2E;enable-background:new    ;}
	.st10{fill:#333333;}
</style>
<g>
	<g>
		<path class="st0" d="M311.7,117l-4.8-15.6h3.3l2,7.6c0.2,0.8,0.5,1.7,0.7,2.5s0.4,1.7,0.6,2.5h0.1c0.2-0.9,0.5-1.7,0.7-2.5
			c0.2-0.8,0.4-1.6,0.6-2.5l2-7.6h3.1l-4.8,15.6H311.7z"/>
		<path class="st0" d="M322,117v-15.6h3.1V117H322z"/>
		<path class="st0" d="M333.6,117.3c-1,0-2-0.2-3-0.6s-1.9-0.9-2.6-1.7l1.8-2.1c0.5,0.5,1.2,0.9,1.9,1.2s1.4,0.5,2.1,0.5
			c0.8,0,1.4-0.2,1.9-0.5s0.6-0.8,0.6-1.3c0-0.4-0.1-0.7-0.3-0.9c-0.2-0.2-0.5-0.4-0.8-0.6c-0.4-0.2-0.8-0.4-1.2-0.6l-2.1-0.9
			c-0.5-0.2-1-0.5-1.5-0.8s-0.9-0.8-1.2-1.3c-0.3-0.6-0.5-1.2-0.5-1.9c0-0.8,0.2-1.6,0.7-2.3s1.1-1.2,1.9-1.6s1.7-0.6,2.8-0.6
			c0.9,0,1.8,0.2,2.7,0.5c0.9,0.3,1.6,0.8,2.2,1.5l-1.6,1.9c-0.5-0.4-1-0.7-1.5-0.9s-1.1-0.3-1.8-0.3c-0.7,0-1.2,0.1-1.6,0.4
			s-0.6,0.7-0.6,1.2c0,0.4,0.1,0.7,0.3,0.9c0.2,0.2,0.5,0.4,0.9,0.6c0.4,0.2,0.8,0.3,1.2,0.5l2,0.8c0.6,0.2,1.2,0.6,1.6,0.9
			c0.5,0.4,0.8,0.8,1.1,1.4c0.3,0.5,0.4,1.2,0.4,1.9c0,0.8-0.2,1.6-0.7,2.3c-0.5,0.7-1.1,1.3-2,1.7
			C335.8,117.1,334.8,117.3,333.6,117.3z"/>
		<path class="st0" d="M342,117v-15.6h3.1V117H342z"/>
		<path class="st0" d="M355.1,117.3c-1.4,0-2.6-0.3-3.6-1s-1.9-1.6-2.5-2.8c-0.6-1.2-0.9-2.7-0.9-4.4c0-1.7,0.3-3.1,0.9-4.3
			c0.6-1.2,1.4-2.1,2.5-2.7c1-0.6,2.2-0.9,3.6-0.9c1.4,0,2.6,0.3,3.6,1s1.9,1.6,2.4,2.7s0.9,2.6,0.9,4.3c0,1.7-0.3,3.2-0.9,4.4
			s-1.4,2.2-2.4,2.8S356.5,117.3,355.1,117.3z M355.1,114.6c0.8,0,1.4-0.2,2-0.7s1-1.1,1.3-1.9s0.5-1.8,0.5-2.9s-0.1-2.1-0.5-2.8
			c-0.3-0.8-0.8-1.4-1.3-1.8c-0.6-0.4-1.2-0.6-2-0.6s-1.4,0.2-2,0.6s-1,1-1.3,1.8s-0.5,1.7-0.5,2.8s0.1,2.1,0.5,2.9
			c0.3,0.8,0.7,1.4,1.3,1.9C353.7,114.4,354.4,114.6,355.1,114.6z"/>
		<path class="st0" d="M365.1,117v-15.6h3.2l4.5,8.3l1.6,3.4h0.1c-0.1-0.8-0.2-1.7-0.3-2.7c-0.1-1-0.1-1.9-0.1-2.8v-6.2h2.9V117
			h-3.2l-4.5-8.3l-1.6-3.3h-0.1c0.1,0.8,0.1,1.7,0.2,2.7s0.1,1.8,0.1,2.8v6.2L365.1,117L365.1,117z"/>
	</g>
</g>
<g>
	<g>
		<path class="st0" d="M513.5,261.7c-1.4,0-2.7-0.3-3.8-0.9s-2-1.5-2.7-2.7s-1-2.6-1-4.4c0-1.3,0.2-2.4,0.6-3.4
			c0.4-1,0.9-1.9,1.6-2.5c0.7-0.7,1.5-1.2,2.4-1.6c0.9-0.4,1.9-0.6,2.9-0.6c1.1,0,2.1,0.2,2.9,0.6s1.4,0.9,1.9,1.4l-1.7,2
			c-0.4-0.4-0.8-0.7-1.3-0.9s-1-0.4-1.8-0.4c-0.9,0-1.6,0.2-2.3,0.6s-1.2,1-1.5,1.8s-0.5,1.8-0.5,2.9c0,1.1,0.2,2.1,0.5,2.9
			s0.9,1.4,1.5,1.9c0.7,0.4,1.5,0.6,2.5,0.6c0.4,0,0.7,0,1.1-0.2c0.3-0.1,0.6-0.2,0.8-0.4v-3.1H513v-2.5h5.5v7
			c-0.5,0.5-1.2,1-2.1,1.3S514.6,261.7,513.5,261.7z"/>
		<path class="st0" d="M521.9,261.4v-15.6h3.1v13h6.3v2.6H521.9z"/>
		<path class="st0" d="M540.2,261.7c-1.4,0-2.6-0.3-3.6-1s-1.9-1.6-2.5-2.8c-0.6-1.2-0.9-2.7-0.9-4.4c0-1.7,0.3-3.1,0.9-4.3
			c0.6-1.2,1.4-2.1,2.5-2.7c1-0.6,2.2-0.9,3.6-0.9c1.4,0,2.6,0.3,3.6,1s1.8,1.5,2.4,2.7c0.6,1.2,0.9,2.6,0.9,4.3
			c0,1.7-0.3,3.1-0.9,4.4s-1.4,2.1-2.4,2.8S541.6,261.7,540.2,261.7z M540.2,259c0.8,0,1.4-0.2,2-0.7c0.6-0.5,1-1.1,1.3-1.9
			s0.5-1.8,0.5-2.9s-0.2-2-0.5-2.9c-0.3-0.8-0.8-1.4-1.3-1.8c-0.6-0.4-1.2-0.6-2-0.6c-0.8,0-1.4,0.2-2,0.6c-0.6,0.4-1,1-1.3,1.8
			c-0.3,0.8-0.5,1.7-0.5,2.9s0.2,2.1,0.5,2.9s0.7,1.5,1.3,1.9C538.8,258.8,539.4,259,540.2,259z"/>
		<path class="st0" d="M550.2,261.4v-15.6h5.2c1.1,0,2,0.1,2.9,0.4s1.5,0.6,2,1.2s0.8,1.3,0.8,2.3c0,0.5-0.1,0.9-0.3,1.4
			c-0.2,0.5-0.4,0.9-0.7,1.2c-0.3,0.4-0.7,0.6-1.1,0.8v0.1c0.8,0.2,1.5,0.6,2.1,1.2s0.8,1.4,0.8,2.5s-0.3,1.9-0.8,2.6
			s-1.2,1.2-2.1,1.5c-0.9,0.3-1.9,0.5-3.1,0.5L550.2,261.4L550.2,261.4z M553.3,252.2h1.8c1,0,1.7-0.2,2.1-0.6s0.7-0.9,0.7-1.5
			c0-0.7-0.2-1.2-0.7-1.5s-1.2-0.4-2.1-0.4h-1.8L553.3,252.2L553.3,252.2z M553.3,259h2.2c1.1,0,1.9-0.2,2.4-0.6
			c0.5-0.4,0.8-1,0.8-1.8c0-0.8-0.3-1.3-0.8-1.6s-1.4-0.5-2.4-0.5h-2.2V259z"/>
		<path class="st0" d="M562.5,261.4l5-15.6h3.7l5,15.6h-3.3l-2.2-8.1c-0.2-0.8-0.5-1.7-0.7-2.5s-0.4-1.7-0.7-2.5h-0.1
			c-0.2,0.8-0.4,1.7-0.6,2.6c-0.2,0.9-0.5,1.7-0.7,2.5l-2.2,8.1H562.5z M565.6,257.4V255h7.4v2.4H565.6z"/>
		<path class="st0" d="M578,261.4v-15.6h3.1v13h6.3v2.6H578z"/>
		<path class="st0" d="M594.9,261.4v-15.6h9.5v2.6H598v3.6h5.4v2.6H598v4.2h6.7v2.6L594.9,261.4L594.9,261.4z"/>
		<path class="st0" d="M606.2,261.4l4.3-8l-4.1-7.6h3.5l1.5,3.2c0.2,0.4,0.4,0.7,0.5,1.1c0.2,0.4,0.4,0.8,0.6,1.3h0.1
			c0.2-0.5,0.4-0.9,0.5-1.3s0.3-0.8,0.5-1.1l1.5-3.2h3.3l-4.1,7.7l4.4,7.9h-3.4l-1.7-3.4c-0.2-0.4-0.4-0.8-0.6-1.2s-0.4-0.9-0.6-1.3
			h-0.1c-0.2,0.5-0.4,0.9-0.6,1.3c-0.2,0.4-0.4,0.8-0.6,1.2l-1.7,3.4L606.2,261.4L606.2,261.4z"/>
		<path class="st0" d="M627.3,261.7c-1,0-1.9-0.2-2.8-0.5s-1.6-0.9-2.3-1.5c-0.7-0.7-1.2-1.5-1.5-2.5c-0.4-1-0.6-2.1-0.6-3.4
			s0.2-2.4,0.6-3.4s0.9-1.9,1.6-2.5s1.4-1.2,2.3-1.6c0.9-0.4,1.8-0.6,2.8-0.6c1,0,1.9,0.2,2.7,0.6c0.8,0.4,1.4,0.9,1.9,1.4l-1.6,2
			c-0.4-0.4-0.8-0.7-1.3-0.9c-0.5-0.2-1-0.4-1.6-0.4c-0.8,0-1.5,0.2-2.1,0.6s-1.1,1-1.5,1.8c-0.3,0.8-0.5,1.8-0.5,2.9
			c0,1.1,0.2,2.1,0.5,2.9s0.8,1.4,1.4,1.9s1.3,0.6,2.1,0.6c0.7,0,1.3-0.1,1.8-0.4c0.5-0.3,1-0.6,1.4-1.1l1.7,1.9
			c-0.6,0.8-1.4,1.3-2.2,1.7C629.2,261.5,628.3,261.7,627.3,261.7z"/>
		<path class="st0" d="M634.7,261.4v-15.6h9.5v2.6h-6.4v3.6h5.4v2.6h-5.4v4.2h6.7v2.6L634.7,261.4L634.7,261.4z"/>
		<path class="st0" d="M647.6,261.4v-15.6h3.1v13h6.3v2.6H647.6z"/>
		<path class="st0" d="M659.8,261.4v-15.6h3.1v13h6.3v2.6H659.8z"/>
		<path class="st0" d="M671.9,261.4v-15.6h9.5v2.6H675v3.6h5.4v2.6H675v4.2h6.7v2.6L671.9,261.4L671.9,261.4z"/>
		<path class="st0" d="M684.8,261.4v-15.6h3.2l4.5,8.3l1.6,3.4h0.1c-0.1-0.8-0.2-1.7-0.3-2.7c-0.1-1-0.2-1.9-0.2-2.8v-6.2h2.9v15.6
			h-3.2l-4.5-8.3l-1.6-3.3h-0.1c0.1,0.8,0.2,1.7,0.2,2.7s0.2,1.9,0.2,2.8v6.2L684.8,261.4L684.8,261.4z"/>
		<path class="st0" d="M706.9,261.7c-1,0-1.9-0.2-2.8-0.5s-1.6-0.9-2.3-1.5c-0.7-0.7-1.2-1.5-1.5-2.5c-0.4-1-0.6-2.1-0.6-3.4
			s0.2-2.4,0.6-3.4s0.9-1.9,1.6-2.5s1.4-1.2,2.3-1.6c0.9-0.4,1.8-0.6,2.8-0.6c1,0,1.9,0.2,2.7,0.6c0.8,0.4,1.4,0.9,1.9,1.4l-1.6,2
			c-0.4-0.4-0.8-0.7-1.3-0.9c-0.5-0.2-1-0.4-1.6-0.4c-0.8,0-1.5,0.2-2.1,0.6s-1.1,1-1.5,1.8c-0.3,0.8-0.5,1.8-0.5,2.9
			c0,1.1,0.2,2.1,0.5,2.9s0.8,1.4,1.4,1.9s1.3,0.6,2.1,0.6c0.7,0,1.3-0.1,1.8-0.4c0.5-0.3,1-0.6,1.4-1.1l1.7,1.9
			c-0.6,0.8-1.4,1.3-2.2,1.7C708.8,261.5,707.9,261.7,706.9,261.7z"/>
		<path class="st0" d="M714.3,261.4v-15.6h9.5v2.6h-6.4v3.6h5.4v2.6h-5.4v4.2h6.7v2.6L714.3,261.4L714.3,261.4z"/>
	</g>
</g>
<g>
	<g>
		<path class="st0" d="M248.7,142.4h13.2v1.4h-13.2L248.7,142.4L248.7,142.4z M250.2,144.9h10.1v3.9h-8.4v1.8h-1.7v-3h8.4v-1.3h-8.4
			L250.2,144.9L250.2,144.9z M250.2,150.2h10.4v1.3h-10.4V150.2z M250.3,137.7h9.3v1.3h-9.3L250.3,137.7L250.3,137.7z M258.6,137.7
			h1.6v1c0,0.5,0,1.1,0,1.8s-0.1,1.5-0.3,2.4l-1.6-0.2c0.2-0.9,0.3-1.6,0.3-2.3c0-0.6,0-1.2,0-1.7V137.7z"/>
		<path class="st0" d="M263.4,148.6h13.2v1.4h-13.2V148.6z M265,138.1h10.1v4.6h-8.4v2.7H265v-4h8.4v-1.9H265V138.1z M265,144.7
			h10.4v1.3H265V144.7z M269.1,145.6h1.7v3.5h-1.7V145.6z"/>
		<path class="st0" d="M278.8,137.7h1.7v1.9h3.4v-1.9h1.6v6.4h-6.7L278.8,137.7L278.8,137.7z M280.5,140.9v1.9h3.4v-1.9H280.5z
			 M280.7,145.2h9.5v3.7h-7.8v2h-1.6v-3.3h7.8v-1.1h-7.9L280.7,145.2L280.7,145.2z M280.7,150.2h10v1.3h-10V150.2z M285.1,140.2h4
			v1.3h-4V140.2z M288.5,137.1h1.7v7.5h-1.7V137.1z"/>
		<path class="st0" d="M297.3,143.4h13.2v1.3h-13.2V143.4z M298.5,137.5h10.8v1.3h-10.8V137.5z M298.6,141.1h10.6v1.3h-10.6V141.1z
			 M298.9,145.8h10v3.4h-8.3v1.6h-1.6V148h8.3v-1h-8.4V145.8z M298.9,150.3h10.4v1.2h-10.4V150.3z M300.6,138h1.7v4h-1.7V138z
			 M305.6,138h1.7v4h-1.7V138z"/>
		<path class="st0" d="M312.6,138.1h5.5v4.3h-3.9v2.7h-1.6v-3.9h3.9v-1.7h-3.9L312.6,138.1L312.6,138.1z M312.6,144.2h1
			c0.7,0,1.3,0,1.9,0c0.6,0,1.1-0.1,1.7-0.1s1.1-0.1,1.6-0.3l0.1,1.3c-0.6,0.1-1.1,0.2-1.7,0.3c-0.5,0.1-1.1,0.1-1.7,0.1
			c-0.6,0-1.2,0-2,0h-1L312.6,144.2L312.6,144.2z M318.6,146.3h1.4v0.3c0,0.6-0.1,1.2-0.4,1.8s-0.7,1.1-1.2,1.5s-1.1,0.8-1.8,1.1
			c-0.7,0.3-1.4,0.5-2.2,0.6l-0.7-1.3c0.6-0.1,1.1-0.2,1.6-0.4s0.9-0.4,1.3-0.6c0.4-0.2,0.7-0.5,1-0.8c0.3-0.3,0.5-0.6,0.7-0.9
			c0.1-0.3,0.2-0.7,0.2-1L318.6,146.3L318.6,146.3z M318.9,146.3h1.4v0.3c0,0.3,0.1,0.7,0.2,1c0.1,0.3,0.4,0.6,0.7,0.9
			s0.6,0.6,1,0.8c0.4,0.2,0.8,0.4,1.3,0.6c0.5,0.2,1,0.3,1.6,0.4l-0.7,1.3c-0.8-0.1-1.5-0.3-2.2-0.6c-0.7-0.3-1.3-0.7-1.8-1.1
			s-0.9-0.9-1.2-1.5s-0.4-1.1-0.4-1.8L318.9,146.3L318.9,146.3z M319.6,137.3h1.6v8.4h-1.6V137.3z M320.8,140.7h2.5v1.4h-2.5V140.7z
			 M322.8,137.1h1.6v9.9h-1.6V137.1z"/>
		<path class="st0" d="M326.8,144.3H340v1.3h-13.2V144.3z M327.9,137.5h10.8v1.3h-10.8V137.5z M328,141.5h10.6v1.3H328V141.5z
			 M328.3,146.8h10v4.7h-10V146.8z M336.7,148.1H330v2h6.8V148.1z M330,138h1.7v4.4H330V138z M332.5,142.5h1.7v2.4h-1.7V142.5z
			 M335,138h1.7v4.4H335V138z"/>
		<path class="st0" d="M346.7,138.2h1.7v3.7h3.7v-3.7h1.7v10h-7L346.7,138.2L346.7,138.2z M348.4,143.3v3.6h3.7v-3.6H348.4z
			 M356.3,137.1h1.7v14.7h-1.7V137.1z"/>
		<path class="st0" d="M360.7,148.5h13.2v1.4h-13.2V148.5z M366.4,139.1h1.4v1c0,0.6-0.1,1.2-0.3,1.7s-0.5,1.1-0.8,1.5
			s-0.8,0.9-1.3,1.3s-1,0.7-1.6,0.9c-0.6,0.3-1.2,0.5-1.9,0.6l-0.7-1.4c0.6-0.1,1.1-0.2,1.6-0.4c0.5-0.2,1-0.5,1.4-0.8
			c0.4-0.3,0.8-0.6,1.1-1c0.3-0.4,0.6-0.8,0.7-1.2s0.3-0.9,0.3-1.3L366.4,139.1L366.4,139.1z M361.8,138.4h11v1.4h-11V138.4z
			 M366.7,139.1h1.4v1c0,0.4,0.1,0.9,0.3,1.3c0.2,0.4,0.4,0.8,0.7,1.2c0.3,0.4,0.7,0.7,1.1,1s0.9,0.5,1.4,0.8s1.1,0.4,1.7,0.4
			l-0.7,1.3c-0.7-0.1-1.3-0.3-1.9-0.6s-1.1-0.6-1.6-0.9c-0.5-0.4-0.9-0.8-1.3-1.2c-0.4-0.5-0.6-1-0.9-1.5s-0.3-1.1-0.3-1.7
			L366.7,139.1L366.7,139.1z"/>
		<path class="st0" d="M376.2,138.5h1.7v9.1h-1.7V138.5z M376.2,146.6h1.2c1.1,0,2.2-0.1,3.4-0.1c1.2-0.1,2.4-0.3,3.6-0.5l0.2,1.4
			c-1.3,0.3-2.5,0.4-3.7,0.5s-2.4,0.1-3.5,0.1h-1.2L376.2,146.6L376.2,146.6z M385.8,137.1h1.7v14.6h-1.7V137.1z"/>
		<path class="st0" d="M390.1,148.4h13.2v1.4h-13.2V148.4z M395.8,138h1.5v1.1c0,0.6-0.1,1.2-0.3,1.8c-0.2,0.6-0.5,1.1-0.8,1.6
			c-0.4,0.5-0.8,1-1.3,1.4c-0.5,0.4-1,0.8-1.6,1s-1.2,0.5-1.9,0.6l-0.7-1.4c0.6-0.1,1.1-0.3,1.6-0.5s1-0.5,1.4-0.9
			c0.4-0.3,0.8-0.7,1.1-1.1c0.3-0.4,0.6-0.8,0.7-1.3s0.3-0.9,0.3-1.4V138z M396.1,138h1.5v1.1c0,0.5,0.1,0.9,0.3,1.4
			c0.2,0.4,0.4,0.9,0.7,1.3c0.3,0.4,0.7,0.8,1.1,1.1s0.9,0.6,1.4,0.8s1.1,0.4,1.6,0.5l-0.7,1.4c-0.6-0.1-1.3-0.4-1.9-0.6
			s-1.1-0.6-1.6-1s-0.9-0.9-1.3-1.4c-0.4-0.5-0.6-1.1-0.9-1.6s-0.3-1.2-0.3-1.8V138z"/>
		<path class="st0" d="M415.4,138.6h1.7c0,1.1-0.1,2.1-0.4,3.1c-0.2,1-0.6,1.9-1.1,2.8s-1.2,1.7-2.1,2.5s-1.9,1.4-3.2,2.1l-0.9-1.3
			c1.4-0.7,2.6-1.5,3.4-2.3c0.9-0.9,1.5-1.9,1.9-2.9c0.4-1.1,0.6-2.3,0.6-3.6V138.6z M410.1,138.6h6v1.3h-6V138.6z M419.7,137.1h1.7
			v14.6h-1.7V137.1z"/>
		<path class="st0" d="M428,137.7c0.7,0,1.4,0.1,2,0.4s1,0.7,1.4,1.2c0.3,0.5,0.5,1.1,0.5,1.8s-0.2,1.3-0.5,1.8
			c-0.3,0.5-0.8,0.9-1.4,1.2s-1.2,0.4-2,0.4c-0.7,0-1.4-0.1-2-0.4s-1-0.7-1.4-1.2c-0.3-0.5-0.5-1.1-0.5-1.8s0.2-1.3,0.5-1.8
			c0.3-0.5,0.8-0.9,1.4-1.2S427.3,137.7,428,137.7z M428,139.1c-0.4,0-0.8,0.1-1.1,0.2c-0.3,0.2-0.6,0.4-0.8,0.7
			c-0.2,0.3-0.3,0.7-0.3,1.1s0.1,0.8,0.3,1.1c0.2,0.3,0.5,0.6,0.8,0.7c0.3,0.2,0.7,0.2,1.1,0.2c0.4,0,0.8-0.1,1.1-0.2
			c0.3-0.2,0.6-0.4,0.8-0.7c0.2-0.3,0.3-0.7,0.3-1.1s-0.1-0.8-0.3-1.1c-0.2-0.3-0.5-0.6-0.8-0.7C428.9,139.2,428.5,139.1,428,139.1z
			 M426.6,145.6h1.7v1.6h6.2v-1.6h1.7v5.9h-9.5V145.6z M428.3,148.5v1.6h6.2v-1.6H428.3z M431.4,140.4h3.8v1.4h-3.8V140.4z
			 M434.5,137.1h1.7v7.8h-1.7V137.1z"/>
	</g>
</g>
<g>
	<g>
		<path class="st0" d="M506.8,286H520v1.4h-13.2L506.8,286L506.8,286z M508.3,288.6h10.1v3.9H510v1.8h-1.7v-3h8.4v-1.3h-8.4
			L508.3,288.6L508.3,288.6z M508.3,293.9h10.4v1.3h-10.4L508.3,293.9L508.3,293.9z M508.5,281.3h9.3v1.3h-9.3L508.5,281.3
			L508.5,281.3z M516.7,281.3h1.7v1c0,0.5,0,1.1,0,1.8c0,0.7-0.1,1.5-0.3,2.4l-1.7-0.2c0.2-0.9,0.3-1.6,0.3-2.3c0-0.6,0-1.2,0-1.7
			V281.3z"/>
		<path class="st0" d="M521.5,292.2h13.2v1.4h-13.2V292.2z M523.1,281.7h10.1v4.6h-8.4v2.7h-1.7v-4h8.4v-2h-8.5L523.1,281.7
			L523.1,281.7z M523.1,288.4h10.4v1.3h-10.4V288.4z M527.3,289.2h1.7v3.5h-1.7V289.2z"/>
		<path class="st0" d="M536.9,281.4h1.7v1.9h3.4v-1.9h1.7v6.4h-6.7L536.9,281.4L536.9,281.4z M538.6,284.5v1.9h3.4v-1.9H538.6z
			 M538.8,288.9h9.5v3.7h-7.8v2h-1.7v-3.3h7.8v-1.1h-7.9L538.8,288.9L538.8,288.9z M538.8,293.8h10v1.3h-10V293.8z M543.2,283.8h4
			v1.3h-4V283.8z M546.7,280.7h1.7v7.5h-1.7V280.7z"/>
		<path class="st0" d="M561.2,281.8h1.8c0,1.3-0.3,2.4-0.8,3.4c-0.5,1-1.3,1.9-2.3,2.6s-2.2,1.3-3.7,1.7l-0.7-1.3
			c1.2-0.4,2.3-0.8,3.1-1.4c0.8-0.5,1.5-1.2,1.9-1.9s0.6-1.5,0.6-2.3L561.2,281.8L561.2,281.8z M556.4,281.8h6v1.4h-6V281.8z
			 M562.8,289.5c1,0,1.8,0.1,2.6,0.4c0.7,0.2,1.3,0.6,1.7,1c0.4,0.4,0.6,0.9,0.6,1.5s-0.2,1.1-0.6,1.5c-0.4,0.4-1,0.8-1.7,1
			s-1.6,0.4-2.6,0.4c-1,0-1.8-0.1-2.6-0.4s-1.3-0.6-1.7-1s-0.6-1-0.6-1.5c0-0.6,0.2-1.1,0.6-1.5c0.4-0.4,1-0.8,1.7-1
			C560.9,289.6,561.8,289.5,562.8,289.5z M562.8,290.8c-0.7,0-1.2,0.1-1.7,0.2s-0.9,0.3-1.1,0.5c-0.3,0.2-0.4,0.5-0.4,0.9
			c0,0.3,0.1,0.6,0.4,0.9c0.3,0.2,0.6,0.4,1.1,0.5s1.1,0.2,1.7,0.2s1.2-0.1,1.7-0.2c0.5-0.1,0.8-0.3,1.1-0.5
			c0.3-0.2,0.4-0.5,0.4-0.9c0-0.3-0.1-0.6-0.4-0.9c-0.3-0.2-0.6-0.4-1.1-0.5C564,290.9,563.4,290.8,562.8,290.8z M562.3,286.3h3.7
			v1.4h-3.7V286.3z M562.5,283.2h3.7v1.3h-3.7V283.2z M565.9,280.7h1.7v8.6h-1.7V280.7z"/>
		<path class="st0" d="M573,282.5h1.3v1.1c0,0.8-0.1,1.6-0.4,2.3s-0.6,1.4-1.1,2c-0.5,0.6-1.1,1-1.9,1.3l-0.9-1.3
			c0.6-0.3,1.2-0.6,1.6-1.1c0.4-0.5,0.7-1,1-1.5s0.3-1.1,0.3-1.7L573,282.5L573,282.5z M570.5,281.9h6.5v1.4h-6.5V281.9z
			 M577.7,289.9c1,0,1.9,0.1,2.6,0.3c0.7,0.2,1.3,0.5,1.7,0.9s0.6,0.9,0.6,1.5c0,0.5-0.2,1-0.6,1.4s-1,0.7-1.7,0.9
			c-0.7,0.2-1.6,0.3-2.6,0.3c-1,0-1.9-0.1-2.6-0.3c-0.8-0.2-1.3-0.5-1.7-0.9c-0.4-0.4-0.6-0.9-0.6-1.4c0-0.6,0.2-1.1,0.6-1.5
			c0.4-0.4,1-0.7,1.7-0.9S576.7,289.9,577.7,289.9z M573.3,282.5h1.3v1.1c0,0.6,0.1,1.1,0.3,1.6c0.2,0.5,0.5,1,0.9,1.4
			s0.9,0.7,1.5,1l-0.9,1.3c-0.7-0.3-1.3-0.7-1.8-1.2c-0.5-0.5-0.8-1.1-1-1.8c-0.2-0.7-0.3-1.4-0.3-2.2L573.3,282.5L573.3,282.5z
			 M577.7,291.2c-1,0-1.8,0.1-2.4,0.4c-0.6,0.2-0.9,0.6-0.9,1.1c0,0.5,0.3,0.8,0.9,1s1.4,0.4,2.4,0.4c0.7,0,1.3-0.1,1.8-0.2
			c0.5-0.1,0.9-0.3,1.1-0.5s0.4-0.5,0.4-0.8c0-0.3-0.1-0.6-0.4-0.8s-0.6-0.4-1.1-0.5S578.3,291.2,577.7,291.2z M577.8,281h1.6v8.2
			h-1.6V281z M578.8,284.4h2.6v1.4h-2.6V284.4z M580.9,280.7h1.6v8.9h-1.6V280.7z"/>
		<path class="st0" d="M585.4,281.6h6.3v4.4h-4.7v2.8h-1.7v-4h4.7v-1.7h-4.7L585.4,281.6L585.4,281.6z M585.5,287.8h1.1
			c0.9,0,1.7,0,2.4,0c0.7,0,1.3,0,1.8-0.1c0.5,0,1.1-0.1,1.7-0.2l0.2,1.4c-0.5,0.1-0.9,0.1-1.3,0.2c-0.4,0-0.9,0.1-1.3,0.1
			c-0.5,0-1,0-1.5,0c-0.6,0-1.2,0-1.9,0h-1.1L585.5,287.8L585.5,287.8z M587.1,290.4h9.9v4.9h-1.7v-3.6h-8.2V290.4z M592.7,282.8h3
			v1.4h-3V282.8z M592.7,285.9h3v1.3h-3V285.9z M595.3,280.7h1.7v9h-1.7V280.7z"/>
		<path class="st0" d="M599.6,292.2l-0.2-1.4c0.9,0,1.8,0,2.8,0c1,0,2.1,0,3.1-0.1s2.1-0.1,3-0.3l0.1,1.2c-1,0.2-2,0.3-3.1,0.4
			s-2.1,0.1-3.1,0.1C601.4,292.2,600.5,292.2,599.6,292.2z M600.2,282.2h6.5v1.4h-6.5V282.2z M602.3,286.4h1.7v5h-1.7V286.4z
			 M606,282.2h1.7v1c0,0.6,0,1.4,0,2.4c0,0.9-0.2,2-0.4,3.3l-1.7-0.1c0.2-1.2,0.3-2.3,0.4-3.2s0.1-1.7,0.1-2.3V282.2z M609.2,280.7
			h1.7v14.6h-1.7V280.7z M610.4,286.7h2.7v1.4h-2.7V286.7z"/>
		<path class="st0" d="M507.1,311.7l-0.2-1.4c0.9,0,1.8,0,2.9,0c1.1,0,2.1-0.1,3.3-0.1s2.2-0.2,3.2-0.3l0.1,1.2
			c-1.1,0.2-2.2,0.4-3.3,0.4c-1.1,0.1-2.2,0.1-3.2,0.2C508.9,311.6,507.9,311.7,507.1,311.7z M510.8,302.5h1.3v0.3
			c0,0.8-0.2,1.6-0.5,2.3c-0.3,0.7-0.8,1.3-1.4,1.8c-0.6,0.5-1.4,0.9-2.2,1.1l-0.8-1.3c0.8-0.2,1.4-0.5,1.9-0.9s0.9-0.9,1.2-1.4
			s0.4-1.1,0.4-1.7L510.8,302.5L510.8,302.5z M507.6,301.7h8v1.3h-8L507.6,301.7L507.6,301.7z M510.8,300h1.7v2.3h-1.7L510.8,300
			L510.8,300z M510.8,307.7h1.7v3.1h-1.7L510.8,307.7L510.8,307.7z M511.1,302.5h1.4v0.3c0,0.6,0.1,1.1,0.4,1.6
			c0.3,0.5,0.7,1,1.2,1.4c0.5,0.4,1.2,0.7,1.9,0.9l-0.8,1.3c-0.9-0.2-1.6-0.6-2.2-1.1c-0.6-0.5-1.1-1.1-1.4-1.8
			c-0.3-0.7-0.5-1.5-0.5-2.3L511.1,302.5L511.1,302.5z M517.1,299.9h1.7v14.7h-1.7V299.9z"/>
		<path class="st0" d="M521.5,311.2h13.2v1.4h-13.2V311.2z M522.9,301.3h9.3v1.4h-9.3V301.3z M526.4,306.1h1.7v5.8h-1.7V306.1z
			 M531.6,301.3h1.7v1.4c0,0.6,0,1.2,0,1.9s0,1.4-0.1,2.2s-0.2,1.7-0.4,2.7l-1.7-0.2c0.3-1.4,0.4-2.7,0.5-3.8c0-1.1,0.1-2,0.1-2.9
			L531.6,301.3L531.6,301.3z"/>
		<path class="st0" d="M536.5,311.5l-0.2-1.4c0.9,0,1.9,0,2.9,0c1.1,0,2.1-0.1,3.3-0.1s2.2-0.2,3.2-0.3l0.1,1.2
			c-1.1,0.2-2.2,0.4-3.3,0.4c-1.1,0.1-2.2,0.1-3.2,0.2C538.3,311.4,537.4,311.5,536.5,311.5z M541,300.9c0.8,0,1.5,0.1,2,0.5
			c0.6,0.3,1.1,0.7,1.4,1.2c0.3,0.5,0.5,1.1,0.5,1.8c0,0.7-0.2,1.3-0.5,1.8s-0.8,1-1.4,1.2s-1.3,0.5-2,0.5c-0.8,0-1.4-0.1-2-0.5
			c-0.6-0.3-1.1-0.7-1.4-1.2s-0.5-1.1-0.5-1.8c0-0.7,0.2-1.3,0.5-1.8c0.3-0.5,0.8-0.9,1.4-1.2C539.5,301.1,540.2,300.9,541,300.9z
			 M541,302.4c-0.4,0-0.8,0.1-1.2,0.2s-0.6,0.4-0.8,0.7s-0.3,0.7-0.3,1.1s0.1,0.8,0.3,1.1c0.2,0.3,0.5,0.6,0.8,0.7
			c0.4,0.2,0.8,0.3,1.2,0.3c0.5,0,0.8-0.1,1.2-0.3s0.6-0.4,0.8-0.7c0.2-0.3,0.3-0.7,0.3-1.1c0-0.4-0.1-0.8-0.3-1.1s-0.5-0.5-0.8-0.7
			C541.8,302.5,541.4,302.4,541,302.4z M546.6,299.9h1.7v14.7h-1.7V299.9z"/>
		<path class="st0" d="M559.5,300.7c0.7,0,1.4,0.1,1.9,0.5c0.6,0.3,1,0.7,1.4,1.3c0.3,0.5,0.5,1.1,0.5,1.9s-0.2,1.3-0.5,1.9
			s-0.8,1-1.4,1.3s-1.2,0.5-1.9,0.5c-0.7,0-1.4-0.1-2-0.5s-1-0.7-1.4-1.3c-0.3-0.5-0.5-1.1-0.5-1.9s0.2-1.3,0.5-1.9s0.8-1,1.4-1.3
			C558.1,300.9,558.7,300.7,559.5,300.7z M559.4,302.1c-0.4,0-0.8,0.1-1.1,0.3s-0.6,0.4-0.8,0.8c-0.2,0.3-0.3,0.7-0.3,1.1
			s0.1,0.8,0.3,1.1s0.5,0.6,0.8,0.7c0.3,0.2,0.7,0.3,1.1,0.3s0.8-0.1,1.1-0.3c0.3-0.2,0.6-0.4,0.8-0.7c0.2-0.3,0.3-0.7,0.3-1.1
			s-0.1-0.8-0.3-1.1s-0.5-0.6-0.8-0.8C560.2,302.2,559.8,302.1,559.4,302.1z M557.7,309.3h9.8v5.2h-1.7v-3.9h-8.2L557.7,309.3
			L557.7,309.3z M562,302h4.4v1.3H562V302z M562,305.2h4.4v1.4H562V305.2z M565.9,299.9h1.7v8.6h-1.7V299.9z"/>
		<path class="st0" d="M570.7,300.8h6.6v4.2h-4.9v2.5h-1.7v-3.8h4.9v-1.5h-5L570.7,300.8L570.7,300.8z M570.7,306.6h1.2
			c0.9,0,1.8,0,2.5,0s1.5-0.1,2.1-0.1s1.4-0.2,2.1-0.3l0.2,1.4c-0.7,0.1-1.5,0.2-2.2,0.3c-0.7,0.1-1.4,0.1-2.2,0.1
			c-0.8,0-1.6,0-2.5,0h-1.2L570.7,306.6L570.7,306.6z M576.8,309.1c1,0,1.9,0.1,2.6,0.3c0.7,0.2,1.3,0.5,1.7,0.9
			c0.4,0.4,0.6,0.9,0.6,1.5c0,0.9-0.4,1.5-1.3,2s-2.1,0.7-3.6,0.7c-1,0-1.9-0.1-2.6-0.3c-0.7-0.2-1.3-0.5-1.7-0.9s-0.6-0.9-0.6-1.5
			c0-0.6,0.2-1.1,0.6-1.5s1-0.7,1.7-0.9S575.8,309.1,576.8,309.1z M576.8,310.4c-0.7,0-1.3,0-1.8,0.2c-0.5,0.1-0.8,0.3-1.1,0.5
			s-0.4,0.5-0.4,0.8s0.1,0.6,0.4,0.8c0.2,0.2,0.6,0.4,1.1,0.5c0.5,0.1,1.1,0.2,1.8,0.2s1.3,0,1.8-0.2c0.5-0.1,0.8-0.3,1.1-0.5
			c0.2-0.2,0.4-0.5,0.4-0.8s-0.1-0.6-0.4-0.8c-0.2-0.2-0.6-0.4-1.1-0.5C578.1,310.4,577.5,310.4,576.8,310.4z M579.9,299.9h1.7v8.8
			h-1.7V299.9z M581.1,302h2.6v1.4h-2.6V302z M581.1,305.1h2.6v1.4h-2.6V305.1z"/>
		<path class="st0" d="M584.9,306h13.2v1.3h-13.2V306z M591.5,300.1c1.6,0,2.9,0.2,3.8,0.6c0.9,0.4,1.4,1,1.4,1.9s-0.5,1.4-1.4,1.9
			s-2.2,0.7-3.8,0.7s-2.9-0.2-3.8-0.7s-1.4-1.1-1.4-1.9s0.5-1.4,1.4-1.9C588.5,300.4,589.8,300.1,591.5,300.1z M586.4,308.4h10v3.5
			h-8.3v1.5h-1.7v-2.7h8.3v-1.1h-8.3V308.4z M586.5,313.1h10.4v1.3h-10.4V313.1z M591.5,301.4c-0.8,0-1.4,0-1.9,0.1
			c-0.5,0.1-0.9,0.2-1.2,0.4c-0.3,0.2-0.4,0.4-0.4,0.7s0.1,0.5,0.4,0.7s0.7,0.3,1.2,0.4c0.5,0.1,1.2,0.1,1.9,0.1
			c0.8,0,1.4,0,1.9-0.1c0.5-0.1,0.9-0.2,1.2-0.4s0.4-0.4,0.4-0.7s-0.1-0.5-0.4-0.7s-0.7-0.3-1.2-0.4S592.2,301.4,591.5,301.4z"/>
		<path class="st0" d="M609.7,300.8h1.8c0,1.3-0.3,2.4-0.8,3.4c-0.5,1-1.3,1.8-2.3,2.5s-2.3,1.2-3.7,1.6l-0.6-1.3
			c1.3-0.3,2.3-0.7,3.1-1.2c0.8-0.5,1.5-1.1,1.9-1.8c0.4-0.7,0.6-1.4,0.6-2.2L609.7,300.8L609.7,300.8z M604.7,300.8h6v1.3h-6V300.8
			z M610,309.5h1.4v0.4c0,0.6-0.1,1.1-0.4,1.6c-0.3,0.5-0.6,1-1.1,1.4s-1,0.7-1.7,1c-0.7,0.3-1.4,0.5-2.2,0.6l-0.6-1.3
			c0.7-0.1,1.3-0.2,1.9-0.5c0.5-0.2,1-0.5,1.4-0.8c0.4-0.3,0.7-0.6,0.9-1c0.2-0.4,0.3-0.7,0.3-1.1L610,309.5L610,309.5z M606,308.8
			h9.7v1.3H606V308.8z M610.3,309.5h1.4v0.4c0,0.4,0.1,0.7,0.3,1.1s0.5,0.7,0.9,1c0.4,0.3,0.9,0.6,1.4,0.8s1.2,0.4,1.8,0.5l-0.6,1.3
			c-0.8-0.1-1.5-0.3-2.2-0.6c-0.7-0.3-1.2-0.6-1.7-1c-0.5-0.4-0.8-0.9-1.1-1.4c-0.3-0.5-0.4-1-0.4-1.6L610.3,309.5L610.3,309.5z
			 M613.8,299.9h1.7v8.3h-1.7V299.9z M615,303.5h2.5v1.4H615V303.5z"/>
		<path class="st0" d="M618.8,307.5H632v1.3h-13.2V307.5z M624.5,302.2h1.5v0.3c0,0.6-0.1,1.2-0.4,1.7s-0.7,0.9-1.2,1.3
			c-0.5,0.4-1.2,0.7-1.9,0.9c-0.7,0.2-1.5,0.4-2.4,0.5l-0.5-1.3c0.8-0.1,1.5-0.2,2.1-0.4s1.1-0.4,1.6-0.7s0.8-0.6,1-0.9
			c0.2-0.3,0.3-0.7,0.3-1.1L624.5,302.2L624.5,302.2z M620.1,301.4h10.6v1.3h-10.6V301.4z M620.4,310.2h1.7v3.2h-1.7V310.2z
			 M620.4,312.9h10.2v1.4h-10.2V312.9z M624.5,299.9h1.7v2.1h-1.7V299.9z M624.7,308.3h1.7v3.2h-1.7V308.3z M624.8,302.2h1.5v0.3
			c0,0.4,0.1,0.8,0.3,1.1c0.2,0.3,0.6,0.6,1,0.9s1,0.5,1.6,0.7s1.3,0.3,2.1,0.4l-0.5,1.3c-0.9-0.1-1.7-0.2-2.4-0.5
			c-0.7-0.2-1.3-0.5-1.9-0.9s-0.9-0.8-1.2-1.3s-0.4-1-0.4-1.7V302.2z"/>
		<path class="st0" d="M642.2,300.9c0.7,0,1.4,0.1,2,0.5c0.6,0.3,1,0.7,1.4,1.3c0.3,0.5,0.5,1.2,0.5,1.9c0,0.7-0.2,1.3-0.5,1.9
			c-0.3,0.5-0.8,1-1.4,1.3c-0.6,0.3-1.2,0.5-2,0.5c-0.7,0-1.4-0.1-2-0.5c-0.6-0.3-1-0.7-1.4-1.3c-0.3-0.5-0.5-1.2-0.5-1.9
			c0-0.7,0.2-1.4,0.5-1.9s0.8-1,1.4-1.3C640.8,301,641.4,300.9,642.2,300.9z M642.2,302.3c-0.4,0-0.8,0.1-1.2,0.3s-0.6,0.4-0.8,0.8
			c-0.2,0.3-0.3,0.7-0.3,1.2s0.1,0.8,0.3,1.2c0.2,0.3,0.5,0.6,0.8,0.8c0.3,0.2,0.7,0.3,1.2,0.3c0.4,0,0.8-0.1,1.2-0.3
			s0.6-0.4,0.8-0.8c0.2-0.3,0.3-0.7,0.3-1.2s-0.1-0.8-0.3-1.2c-0.2-0.3-0.5-0.6-0.8-0.8C643,302.4,642.6,302.3,642.2,302.3z
			 M640.5,309.5h1.7v4h-1.7V309.5z M640.5,312.9h10v1.4h-10V312.9z M648.4,299.9h1.7v10.6h-1.7V299.9z"/>
		<path class="st0" d="M655.5,302.2h1.3v1.5c0,0.9-0.1,1.7-0.2,2.5s-0.3,1.5-0.6,2.2s-0.6,1.3-1,1.8c-0.4,0.5-0.9,1-1.5,1.3l-1-1.3
			c0.7-0.4,1.3-0.9,1.7-1.6s0.8-1.4,1-2.3c0.2-0.9,0.3-1.8,0.3-2.7L655.5,302.2L655.5,302.2z M652.9,301.5h6.7v1.4h-6.7V301.5z
			 M655.9,302.2h1.3v1.5c0,0.9,0.1,1.7,0.3,2.5s0.5,1.5,1,2.1s1,1.1,1.7,1.5l-1,1.3c-0.8-0.4-1.4-1-1.9-1.8s-0.9-1.6-1.1-2.6
			s-0.3-2-0.3-3.1V302.2z M660.5,300.2h1.6v13.6h-1.6V300.2z M661.6,305.7h2.6v1.4h-2.6V305.7z M663.7,299.9h1.6v14.6h-1.6V299.9z"
			/>
	</g>
</g>
<path class="st1" d="M337.7,167.7L191.3,274c-2.1,1.5-3,4.2-2.2,6.7l55.9,172.1c0.8,2.5,3.1,4.1,5.7,4.1h180.9
	c2.6,0,4.9-1.7,5.7-4.1l55.9-172.1c0.8-2.5-0.1-5.2-2.2-6.7L344.8,167.7C342.7,166.2,339.8,166.2,337.7,167.7z"/>
<path class="st2" d="M226.5,216.7l-28.3,178.7c-0.4,2.6,0.9,5.1,3.2,6.3l161.2,82.1c2.3,1.2,5.1,0.7,7-1.1l127.9-128
	c1.8-1.8,2.3-4.7,1.1-7l-82.1-161.2c-1.2-2.3-3.7-3.6-6.3-3.2l-178.7,28.3C228.9,212.1,226.9,214.1,226.5,216.7z"/>
<path class="st3" d="M337.7,196.5l-119,86.4c-2.1,1.5-3,4.2-2.2,6.7L262,429.5c0.8,2.5,3.1,4.1,5.7,4.1h147.1c2.6,0,4.9-1.7,5.7-4.1
	l45.4-139.9c0.8-2.5-0.1-5.2-2.2-6.7l-119-86.4C342.7,195,339.8,195,337.7,196.5z"/>
<path class="st2" d="M246.9,237.1l-23,145.2c-0.4,2.6,0.9,5.1,3.2,6.3l131,66.8c2.3,1.2,5.1,0.7,7-1.1l104-104
	c1.8-1.8,2.3-4.7,1.1-7l-66.8-131c-1.2-2.3-3.7-3.6-6.3-3.2l-145.2,23C249.3,232.5,247.3,234.5,246.9,237.1z"/>
<path class="st4" d="M337.7,224.2l-92.6,67.3c-2.1,1.5-3,4.2-2.2,6.7l35.4,108.9c0.8,2.5,3.1,4.1,5.7,4.1h114.5
	c2.6,0,4.9-1.7,5.7-4.1l35.4-108.9c0.8-2.5-0.1-5.2-2.2-6.7l-92.6-67.3C342.7,222.7,339.8,222.7,337.7,224.2z"/>
<line class="st5" x1="189.4" y1="278.5" x2="344.8" y2="327.1"/>
<line class="st5" x1="247.5" y1="457.6" x2="345.6" y2="327.7"/>
<line class="st5" x1="435.3" y1="455.1" x2="344.8" y2="327.1"/>
<line class="st5" x1="492.5" y1="277.1" x2="344.8" y2="327.1"/>
<line class="st5" x1="341.2" y1="167.4" x2="344.8" y2="327.1"/>
<path class="st6" d="M337.7,250.6l-67.6,49.1c-2.1,1.5-3,4.2-2.2,6.7l25.8,79.4c0.8,2.5,3.1,4.1,5.7,4.1H383c2.6,0,4.9-1.7,5.7-4.1
	l25.8-79.4c0.8-2.5-0.1-5.2-2.2-6.7l-67.5-49.1C342.7,249.1,339.8,249.1,337.7,250.6z"/>
<g>
	<g>
		<defs>
			<path id="SVGID_1_" d="M337.7,250.6l-67.6,49.1c-2.1,1.5-3,4.2-2.2,6.7l25.8,79.4c0.8,2.5,3.1,4.1,5.7,4.1H383
				c2.6,0,4.9-1.7,5.7-4.1l25.8-79.4c0.8-2.5-0.1-5.2-2.2-6.7l-67.5-49.1C342.7,249.1,339.8,249.1,337.7,250.6z"/>
		</defs>
		<clipPath id="SVGID_00000090994653113940742260000011952929088283365557_">
			<use xlink:href="#SVGID_1_"  style="overflow:visible;"/>
		</clipPath>
		
			<circle style="opacity:0.39;clip-path:url(#SVGID_00000090994653113940742260000011952929088283365557_);fill:#D80B2E;enable-background:new    ;" cx="334.2" cy="264.5" r="28.2"/>
	</g>
	<g>
		<defs>
			<path id="SVGID_00000159467366031100911890000003964717073102134157_" d="M337.7,250.6l-67.6,49.1c-2.1,1.5-3,4.2-2.2,6.7
				l25.8,79.4c0.8,2.5,3.1,4.1,5.7,4.1H383c2.6,0,4.9-1.7,5.7-4.1l25.8-79.4c0.8-2.5-0.1-5.2-2.2-6.7l-67.5-49.1
				C342.7,249.1,339.8,249.1,337.7,250.6z"/>
		</defs>
		<clipPath id="SVGID_00000050661702911111505960000018070369990145012632_">
			<use xlink:href="#SVGID_00000159467366031100911890000003964717073102134157_"  style="overflow:visible;"/>
		</clipPath>
		
			<circle style="opacity:0.39;clip-path:url(#SVGID_00000050661702911111505960000018070369990145012632_);fill:#D80B2E;enable-background:new    ;" cx="390.7" cy="292.7" r="42.4"/>
	</g>
	<g>
		<defs>
			<path id="SVGID_00000071552715993103876670000007770680968553579945_" d="M337.7,250.6l-67.6,49.1c-2.1,1.5-3,4.2-2.2,6.7
				l25.8,79.4c0.8,2.5,3.1,4.1,5.7,4.1H383c2.6,0,4.9-1.7,5.7-4.1l25.8-79.4c0.8-2.5-0.1-5.2-2.2-6.7l-67.5-49.1
				C342.7,249.1,339.8,249.1,337.7,250.6z"/>
		</defs>
		<clipPath id="SVGID_00000053517696552321006890000018185162612187380148_">
			<use xlink:href="#SVGID_00000071552715993103876670000007770680968553579945_"  style="overflow:visible;"/>
		</clipPath>
		
			<circle style="opacity:0.39;clip-path:url(#SVGID_00000053517696552321006890000018185162612187380148_);fill:#D80B2E;enable-background:new    ;" cx="362.4" cy="264.5" r="28.2"/>
	</g>
</g>
<g>
	<g>
		<path class="st4" d="M314.5,316.8c1.2,0,2.3,0.2,3.2,0.8s1.7,1.2,2.3,2.1s0.8,1.9,0.8,3.1c0,1.1-0.3,2.2-0.8,3.1s-1.3,1.6-2.3,2.1
			c-1,0.5-2,0.8-3.2,0.8c-1.2,0-2.3-0.2-3.2-0.8s-1.7-1.2-2.3-2.1c-0.6-0.9-0.8-1.9-0.8-3.1c0-1.2,0.3-2.2,0.8-3.1
			c0.5-0.9,1.3-1.6,2.3-2.1S313.4,316.8,314.5,316.8z M314.5,319.1c-0.7,0-1.3,0.1-1.9,0.4s-1,0.7-1.3,1.2s-0.5,1.2-0.5,1.9
			c0,0.7,0.2,1.4,0.5,1.9c0.3,0.5,0.8,0.9,1.3,1.2s1.2,0.4,1.9,0.4s1.3-0.1,1.9-0.4s1-0.7,1.3-1.2s0.5-1.2,0.5-1.9
			c0-0.7-0.2-1.4-0.5-1.9c-0.3-0.5-0.8-0.9-1.3-1.2C315.9,319.3,315.2,319.1,314.5,319.1z M311.9,330.7h2.7v6.4h-2.7V330.7z
			 M311.9,336.2H328v2.2h-16.2V336.2z M324.6,315.2h2.7v17.2h-2.7V315.2z"/>
		<path class="st4" d="M336.3,318.9h2.1v2.5c0,1.4-0.1,2.8-0.3,4.1s-0.5,2.5-1,3.6c-0.4,1.1-1,2.1-1.7,3c-0.7,0.9-1.5,1.6-2.4,2.2
			l-1.7-2.1c1.2-0.7,2.1-1.5,2.8-2.6s1.2-2.3,1.6-3.7c0.4-1.4,0.5-2.9,0.5-4.5L336.3,318.9L336.3,318.9z M332,317.8h10.9v2.2H332
			V317.8z M336.9,318.9h2.1v2.5c0,1.4,0.2,2.8,0.5,4.1c0.4,1.3,0.9,2.4,1.6,3.5c0.7,1,1.7,1.8,2.8,2.4l-1.6,2.1
			c-1.3-0.7-2.3-1.6-3.1-2.9c-0.8-1.2-1.4-2.6-1.8-4.2s-0.6-3.2-0.6-5L336.9,318.9L336.9,318.9z M344.4,315.6h2.6v22.2h-2.6V315.6z
			 M346.2,324.5h4.3v2.2h-4.3V324.5z M349.5,315.2h2.6v23.8h-2.6V315.2z"/>
		<path class="st4" d="M361.1,316.4h2.3v2.3c0,1.5-0.3,3-0.8,4.3c-0.5,1.3-1.3,2.5-2.2,3.5s-2.2,1.8-3.5,2.3l-1.5-2.2
			c1.2-0.4,2.3-1.1,3.2-1.9c0.9-0.8,1.5-1.8,1.9-2.8c0.4-1,0.6-2.1,0.6-3.3L361.1,316.4L361.1,316.4z M366.5,330
			c1.6,0,3,0.2,4.2,0.5c1.2,0.4,2.1,0.9,2.7,1.5c0.6,0.7,1,1.5,1,2.4c0,0.9-0.3,1.7-1,2.4c-0.6,0.7-1.5,1.2-2.7,1.5
			c-1.2,0.4-2.6,0.5-4.2,0.5c-1.6,0-3-0.2-4.2-0.5c-1.2-0.4-2.1-0.9-2.7-1.5c-0.6-0.7-1-1.5-1-2.4c0-0.9,0.3-1.7,1-2.4
			s1.5-1.2,2.7-1.5C363.5,330.2,364.9,330,366.5,330z M366.5,332.2c-1.1,0-2,0.1-2.8,0.3s-1.4,0.4-1.8,0.8s-0.6,0.8-0.6,1.3
			c0,0.5,0.2,0.9,0.6,1.2c0.4,0.4,1,0.6,1.8,0.8c0.8,0.2,1.7,0.3,2.8,0.3c1.1,0,2-0.1,2.8-0.3c0.8-0.2,1.4-0.5,1.8-0.8
			c0.4-0.4,0.6-0.8,0.6-1.2c0-0.5-0.2-0.9-0.6-1.3s-1-0.6-1.8-0.8C368.6,332.2,367.6,332.2,366.5,332.2z M361.7,316.4h2.2v2.5
			c0,0.8,0.1,1.5,0.4,2.2s0.6,1.4,1.1,2c0.5,0.6,1.1,1.2,1.8,1.7s1.5,0.9,2.4,1.2l-1.4,2.1c-1.3-0.5-2.5-1.2-3.4-2.1s-1.7-2-2.2-3.2
			s-0.8-2.5-0.8-3.9L361.7,316.4L361.7,316.4z M371.5,315.2h2.7v14.2h-2.7V315.2z M373.4,321h4.1v2.3h-4.1V321z"/>
	</g>
</g>
<circle class="st10" cx="341.2" cy="167.4" r="3"/>
<circle class="st10" cx="493" cy="277.1" r="3"/>
<circle class="st10" cx="189.4" cy="278.5" r="3"/>
<circle class="st10" cx="248.4" cy="456" r="3"/>
<circle class="st10" cx="435.3" cy="455.1" r="3"/>
<g>
	<g>
		<path class="st0" d="M91.6,238.1v-15.6h3.4l2.7,7.3c0.2,0.5,0.3,0.9,0.5,1.5c0.2,0.5,0.3,1,0.5,1.5h0.1c0.2-0.5,0.3-1,0.5-1.5
			s0.3-1,0.4-1.5l2.6-7.3h3.4v15.6h-2.8v-6.5c0-0.5,0-1.1,0.1-1.7s0.1-1.2,0.2-1.8c0.1-0.6,0.1-1.1,0.2-1.6h-0.1l-1.3,3.6l-2.4,6.5
			h-1.8l-2.4-6.5l-1.2-3.6H94c0.1,0.5,0.1,1,0.2,1.6s0.1,1.2,0.2,1.8c0.1,0.6,0.1,1.1,0.1,1.7v6.5H91.6z"/>
		<path class="st0" d="M109.6,238.1v-15.6h3.1v15.6H109.6z"/>
		<path class="st0" d="M121.1,238.4c-1,0-2.1-0.2-3-0.6s-1.9-0.9-2.6-1.7l1.8-2.1c0.6,0.5,1.2,0.9,1.9,1.2s1.4,0.5,2.1,0.5
			c0.8,0,1.4-0.2,1.8-0.5c0.4-0.3,0.6-0.8,0.6-1.3c0-0.4-0.1-0.7-0.3-0.9c-0.2-0.2-0.5-0.4-0.8-0.6s-0.8-0.4-1.2-0.6l-2.1-0.9
			c-0.5-0.2-1-0.5-1.5-0.9s-0.9-0.8-1.2-1.4c-0.3-0.6-0.5-1.2-0.5-1.9c0-0.9,0.2-1.6,0.7-2.3s1.1-1.2,1.9-1.6
			c0.8-0.4,1.7-0.6,2.8-0.6c0.9,0,1.8,0.2,2.7,0.5c0.8,0.4,1.6,0.9,2.2,1.5l-1.6,1.9c-0.5-0.4-1-0.7-1.5-0.9s-1.1-0.3-1.8-0.3
			c-0.7,0-1.2,0.1-1.6,0.4s-0.6,0.7-0.6,1.2c0,0.4,0.1,0.7,0.3,0.9c0.2,0.2,0.5,0.4,0.9,0.6s0.8,0.4,1.2,0.5l2,0.8
			c0.6,0.2,1.2,0.6,1.7,0.9c0.5,0.4,0.8,0.8,1.1,1.4c0.3,0.5,0.4,1.2,0.4,1.9c0,0.8-0.2,1.6-0.7,2.3c-0.5,0.7-1.1,1.3-1.9,1.7
			C123.3,238.1,122.3,238.4,121.1,238.4z"/>
		<path class="st0" d="M134.2,238.4c-1,0-2.1-0.2-3-0.6s-1.9-0.9-2.6-1.7l1.8-2.1c0.6,0.5,1.2,0.9,1.9,1.2s1.4,0.5,2.1,0.5
			c0.8,0,1.4-0.2,1.9-0.5c0.4-0.3,0.6-0.8,0.6-1.3c0-0.4-0.1-0.7-0.3-0.9s-0.5-0.4-0.8-0.6s-0.8-0.4-1.2-0.6l-2.1-0.9
			c-0.5-0.2-1-0.5-1.5-0.9s-0.9-0.8-1.2-1.4c-0.3-0.6-0.5-1.2-0.5-1.9c0-0.9,0.2-1.6,0.7-2.3s1.1-1.2,1.9-1.6s1.7-0.6,2.8-0.6
			c0.9,0,1.8,0.2,2.7,0.5c0.9,0.4,1.6,0.9,2.2,1.5l-1.6,1.9c-0.5-0.4-1-0.7-1.5-0.9s-1.1-0.3-1.8-0.3c-0.7,0-1.2,0.1-1.6,0.4
			s-0.6,0.7-0.6,1.2c0,0.4,0.1,0.7,0.3,0.9c0.2,0.2,0.5,0.4,0.9,0.6s0.8,0.4,1.2,0.5l2,0.8c0.6,0.2,1.2,0.6,1.6,0.9
			c0.5,0.4,0.8,0.8,1.1,1.4c0.3,0.5,0.4,1.2,0.4,1.9c0,0.8-0.2,1.6-0.7,2.3c-0.5,0.7-1.1,1.3-1.9,1.7
			C136.4,238.1,135.4,238.4,134.2,238.4z"/>
		<path class="st0" d="M142.7,238.1v-15.6h3.1v15.6H142.7z"/>
		<path class="st0" d="M155.8,238.4c-1.4,0-2.6-0.3-3.6-1s-1.9-1.6-2.4-2.8c-0.6-1.2-0.9-2.7-0.9-4.4c0-1.7,0.3-3.1,0.9-4.3
			c0.6-1.2,1.4-2.1,2.4-2.7c1-0.6,2.2-0.9,3.6-0.9c1.4,0,2.6,0.3,3.6,1c1,0.6,1.9,1.6,2.4,2.7s0.9,2.6,0.9,4.3
			c0,1.7-0.3,3.1-0.9,4.4c-0.6,1.2-1.4,2.1-2.4,2.8C158.4,238,157.2,238.4,155.8,238.4z M155.8,235.7c0.8,0,1.4-0.2,2-0.7
			c0.6-0.4,1-1.1,1.3-1.9c0.3-0.8,0.5-1.8,0.5-2.9s-0.1-2.1-0.5-2.9c-0.3-0.8-0.8-1.4-1.3-1.8c-0.6-0.4-1.2-0.6-2-0.6
			s-1.4,0.2-2,0.6s-1,1-1.3,1.8c-0.3,0.8-0.4,1.7-0.4,2.9s0.1,2.1,0.4,2.9c0.3,0.8,0.7,1.4,1.3,1.9
			C154.4,235.4,155,235.7,155.8,235.7z"/>
		<path class="st0" d="M165.8,238.1v-15.6h3.2l4.5,8.3l1.6,3.4h0.1c-0.1-0.8-0.2-1.7-0.3-2.7c-0.1-1-0.1-1.9-0.1-2.8v-6.2h2.9V238
			h-3.2l-4.5-8.3l-1.6-3.3h-0.1c0.1,0.8,0.1,1.7,0.2,2.7s0.1,1.9,0.1,2.8v6.2L165.8,238.1L165.8,238.1z"/>
	</g>
</g>
<g>
	<g>
		<path class="st0" d="M41.7,260.3h6.8v9.7h-6.8V260.3z M46.9,261.7h-3.6v7h3.6V261.7z M51.3,259H53v14.7h-1.7V259z"/>
		<path class="st0" d="M56,260.5h5.5v5.4h-3.8v3.5h-1.6v-4.8h3.8v-2.7h-3.9C56.1,261.8,56.1,260.5,56,260.5z M56.1,268.8h1
			c0.9,0,1.7,0,2.6-0.1c0.8,0,1.7-0.1,2.7-0.3l0.1,1.4c-1,0.2-1.9,0.3-2.7,0.3s-1.7,0.1-2.6,0.1h-1V268.8z M63.2,259.3h1.6v13.6
			h-1.6V259.3z M64.3,264.6h2.7v1.4h-2.7V264.6z M66.5,259h1.6v14.6h-1.6V259z"/>
		<path class="st0" d="M76.5,260.5h1.7c0,1.1-0.1,2.1-0.3,3.1c-0.2,1-0.6,1.9-1.1,2.8s-1.2,1.7-2.1,2.5s-1.9,1.4-3.2,2l-0.9-1.3
			c1.4-0.7,2.6-1.5,3.4-2.3c0.9-0.9,1.5-1.9,1.9-2.9s0.6-2.3,0.6-3.6C76.5,260.8,76.5,260.5,76.5,260.5z M71.2,260.5h6v1.3h-6V260.5
			z M80.8,259h1.7v14.6h-1.7V259z"/>
		<path class="st0" d="M85.1,264.9h13.2v1.3H85.1V264.9z M90.8,259h1.4v0.4c0,0.5-0.1,1-0.3,1.4s-0.5,0.8-0.8,1.2
			c-0.4,0.4-0.8,0.7-1.3,1s-1,0.5-1.6,0.7s-1.2,0.3-1.9,0.4l-0.6-1.3c0.6-0.1,1.1-0.2,1.7-0.3c0.5-0.1,1-0.3,1.4-0.5
			c0.4-0.2,0.8-0.5,1.1-0.7s0.5-0.5,0.7-0.9c0.2-0.3,0.2-0.6,0.2-1L90.8,259L90.8,259z M86.6,267.5h10v3.5h-8.3v1.5h-1.7v-2.7H95
			v-1.1h-8.3V267.5z M86.7,272.2H97v1.3H86.7V272.2z M90.8,265.9h1.7v2.1h-1.7V265.9z M91.1,259h1.4v0.4c0,0.3,0.1,0.6,0.2,1
			c0.2,0.3,0.4,0.6,0.7,0.9c0.3,0.3,0.7,0.5,1.1,0.7s0.9,0.4,1.4,0.5s1.1,0.2,1.7,0.3l-0.6,1.3c-0.7-0.1-1.3-0.2-1.9-0.4
			s-1.1-0.4-1.6-0.7c-0.5-0.3-0.9-0.6-1.3-1s-0.6-0.8-0.8-1.2c-0.2-0.4-0.3-0.9-0.3-1.4C91.1,259.5,91.1,259,91.1,259z"/>
		<path class="st0" d="M99.8,265.1H113v1.3H99.8V265.1z M106.4,259.2c1.6,0,2.9,0.2,3.8,0.6s1.4,1,1.4,1.9s-0.5,1.4-1.4,1.9
			s-2.2,0.7-3.8,0.7s-2.9-0.2-3.8-0.7s-1.4-1.1-1.4-1.9s0.5-1.4,1.4-1.9C103.5,259.4,104.8,259.2,106.4,259.2z M101.3,267.5h10v3.5
			H103v1.5h-1.7v-2.7h8.3v-1.1h-8.3V267.5z M101.4,272.2h10.4v1.3h-10.4V272.2z M106.4,260.5c-0.8,0-1.4,0-1.9,0.1
			c-0.5,0.1-0.9,0.2-1.2,0.4c-0.3,0.2-0.4,0.4-0.4,0.7s0.1,0.5,0.4,0.7s0.7,0.3,1.2,0.4c0.5,0.1,1.2,0.1,1.9,0.1s1.4,0,1.9-0.1
			c0.5-0.1,0.9-0.2,1.2-0.4s0.4-0.4,0.4-0.7s-0.1-0.5-0.4-0.7s-0.7-0.3-1.2-0.4C107.8,260.5,107.2,260.5,106.4,260.5z"/>
		<path class="st0" d="M119,260.4h8.6v1.3H119V260.4z M123.3,262.4c0.7,0,1.3,0.1,1.8,0.3c0.5,0.2,0.9,0.5,1.2,0.9
			c0.3,0.4,0.4,0.9,0.4,1.4c0,0.5-0.2,1-0.4,1.4c-0.3,0.4-0.7,0.7-1.2,0.9s-1.1,0.3-1.8,0.3c-0.7,0-1.3-0.1-1.9-0.3
			s-0.9-0.5-1.2-0.9s-0.4-0.9-0.4-1.4c0-0.5,0.2-1,0.4-1.4c0.3-0.4,0.7-0.7,1.2-0.9S122.6,262.4,123.3,262.4z M121.1,268.5h9.3v4.9
			h-9.3V268.5z M123.3,263.6c-0.6,0-1.1,0.1-1.4,0.4s-0.5,0.6-0.5,1s0.2,0.8,0.5,1s0.8,0.4,1.4,0.4c0.6,0,1-0.1,1.4-0.4
			s0.5-0.6,0.5-1s-0.2-0.8-0.5-1C124.4,263.7,123.9,263.6,123.3,263.6z M122.5,258.9h1.7v2.3h-1.7V258.9z M128.8,269.9h-6.1v2.2h6.1
			V269.9z M128.7,259h1.7v8.8h-1.7V259z M130,262.7h2.5v1.4H130V262.7z"/>
		<path class="st0" d="M135.9,260.7h1.4c0,0.9,0,1.7-0.1,2.5s-0.2,1.7-0.4,2.5c-0.2,0.8-0.4,1.6-0.7,2.4c-0.3,0.8-0.7,1.5-1.2,2.2
			l-1.3-0.7c0.5-0.7,0.9-1.3,1.1-2c0.3-0.7,0.5-1.4,0.7-2.1c0.2-0.7,0.3-1.5,0.3-2.2s0.1-1.6,0.1-2.4L135.9,260.7L135.9,260.7z
			 M134,260.7h2.7v1.4H134V260.7z M139.1,260.7h1.4c0,0.9,0,1.7-0.1,2.6s-0.1,1.8-0.3,2.7c-0.1,0.9-0.4,1.8-0.7,2.7
			c-0.3,0.9-0.7,1.7-1.3,2.5l-1.3-0.8c0.4-0.6,0.7-1.2,1-1.8s0.5-1.2,0.7-1.9s0.3-1.3,0.4-2c0.1-0.7,0.1-1.3,0.1-2s0-1.3,0-2
			L139.1,260.7L139.1,260.7z M137.8,260.7h2.3v1.4h-2.3V260.7z M139.8,264.6h2.4v1.4h-2.4V264.6z M141.9,259.3h1.6v13.6h-1.6V259.3z
			 M144.7,259h1.6v14.6h-1.6V259z"/>
		<path class="st0" d="M148.4,261.2h8.6v1.3h-8.6V261.2z M152.7,263.6c0.7,0,1.3,0.1,1.9,0.4s1,0.7,1.3,1.2c0.3,0.5,0.5,1.1,0.5,1.8
			c0,0.7-0.2,1.3-0.5,1.8c-0.3,0.5-0.7,0.9-1.3,1.2c-0.5,0.3-1.2,0.4-1.9,0.4c-0.7,0-1.3-0.1-1.9-0.4c-0.5-0.3-1-0.7-1.3-1.2
			c-0.3-0.5-0.5-1.1-0.5-1.8c0-0.7,0.2-1.2,0.5-1.8s0.7-0.9,1.3-1.2C151.4,263.8,152,263.6,152.7,263.6z M152.7,265
			c-0.4,0-0.7,0.1-1,0.3s-0.6,0.4-0.7,0.7s-0.3,0.7-0.3,1.1c0,0.4,0.1,0.8,0.3,1.1c0.2,0.3,0.4,0.5,0.7,0.7c0.3,0.2,0.7,0.3,1,0.3
			c0.4,0,0.7-0.1,1.1-0.3c0.3-0.2,0.5-0.4,0.7-0.7c0.2-0.3,0.3-0.7,0.3-1.1c0-0.4-0.1-0.8-0.3-1.1c-0.2-0.3-0.4-0.5-0.7-0.7
			C153.4,265.1,153.1,265,152.7,265z M151.9,259.2h1.7v2.6h-1.7V259.2z M158.1,259h1.7v14.6h-1.7V259z M159.4,264.9h2.6v1.4h-2.6
			V264.9z"/>
		<path class="st0" d="M163.2,266.3h13.2v1.3h-13.2V266.3z M164.8,269h1.7v3.3h-1.7V269z M164.8,271.9H175v1.3h-10.2V271.9z
			 M164.9,259.5h1.7v4.4h-1.7V259.5z M164.9,263.2h10v1.3h-10V263.2z"/>
		<path class="st0" d="M7,287h13.2v1.4H7V287z M8.7,278.8h9.9v1.3h-8.3v4.5H8.7V278.8z M8.7,284.3h10.1v1.3H8.7V284.3z M9.9,281.5
			h8.4v1.3H9.9V281.5z M12.8,287.4h1.7v5.4h-1.7V287.4z"/>
		<path class="st0" d="M22.4,279.2h6.8v6.6h-6.8V279.2z M27.5,280.6H24v3.9h3.5V280.6z M29,287.2c1.5,0,2.7,0.2,3.6,0.7
			c0.9,0.5,1.3,1.2,1.3,2.1s-0.4,1.6-1.3,2.1c-0.9,0.5-2.1,0.7-3.6,0.7s-2.7-0.2-3.6-0.7c-0.9-0.5-1.3-1.2-1.3-2.1s0.4-1.6,1.3-2.1
			C26.2,287.4,27.4,287.2,29,287.2z M29,288.5c-0.7,0-1.3,0.1-1.8,0.2c-0.5,0.1-0.9,0.3-1.1,0.5c-0.3,0.2-0.4,0.5-0.4,0.8
			c0,0.3,0.1,0.6,0.4,0.8c0.3,0.2,0.6,0.4,1.1,0.5s1.1,0.2,1.8,0.2s1.3-0.1,1.8-0.2s0.9-0.3,1.1-0.5c0.3-0.2,0.4-0.5,0.4-0.8
			c0-0.3-0.1-0.6-0.4-0.8c-0.3-0.2-0.6-0.4-1.1-0.5C30.2,288.6,29.7,288.5,29,288.5z M28.7,280.4h4v1.4h-4V280.4z M28.7,283.3h4v1.4
			h-4V283.3z M32.2,278.2h1.7v8.6h-1.7V278.2z"/>
		<path class="st0" d="M42.2,279.2H44c0,1.3-0.3,2.4-0.8,3.4c-0.5,1-1.3,1.9-2.3,2.6s-2.2,1.3-3.7,1.7l-0.7-1.3
			c1.2-0.4,2.3-0.8,3.1-1.4c0.8-0.5,1.5-1.2,1.9-1.9c0.4-0.7,0.6-1.5,0.6-2.3L42.2,279.2L42.2,279.2z M37.4,279.2h6v1.4h-6V279.2z
			 M43.8,287c1,0,1.8,0.1,2.6,0.4s1.3,0.6,1.7,1c0.4,0.4,0.6,0.9,0.6,1.5s-0.2,1.1-0.6,1.5s-1,0.8-1.7,1s-1.6,0.4-2.6,0.4
			c-1,0-1.8-0.1-2.6-0.4s-1.3-0.6-1.7-1s-0.6-1-0.6-1.5c0-0.6,0.2-1.1,0.6-1.5c0.4-0.4,1-0.8,1.7-1C41.9,287.1,42.8,287,43.8,287z
			 M43.8,288.3c-0.7,0-1.2,0.1-1.7,0.2s-0.9,0.3-1.1,0.5c-0.3,0.2-0.4,0.5-0.4,0.9c0,0.3,0.1,0.6,0.4,0.9c0.3,0.2,0.6,0.4,1.1,0.5
			c0.5,0.1,1.1,0.2,1.7,0.2s1.2-0.1,1.7-0.2s0.8-0.3,1.1-0.5c0.3-0.2,0.4-0.5,0.4-0.9c0-0.3-0.1-0.6-0.4-0.9
			c-0.3-0.2-0.6-0.4-1.1-0.5C45,288.3,44.4,288.3,43.8,288.3z M43.3,283.7H47v1.4h-3.7V283.7z M43.5,280.7h3.7v1.3h-3.7V280.7z
			 M46.9,278.2h1.7v8.6h-1.7V278.2z"/>
		<path class="st0" d="M55.2,279c0.7,0,1.4,0.1,2,0.5c0.6,0.3,1,0.7,1.4,1.2s0.5,1.1,0.5,1.8c0,0.7-0.2,1.3-0.5,1.8
			s-0.8,0.9-1.4,1.2s-1.2,0.5-2,0.5c-0.7,0-1.4-0.1-1.9-0.5c-0.6-0.3-1-0.7-1.4-1.2s-0.5-1.1-0.5-1.8s0.2-1.3,0.5-1.8
			s0.8-0.9,1.4-1.2C53.8,279.1,54.4,279,55.2,279z M55.2,280.4c-0.4,0-0.8,0.1-1.1,0.3c-0.3,0.2-0.6,0.4-0.8,0.7s-0.3,0.7-0.3,1.1
			c0,0.4,0.1,0.8,0.3,1.1c0.2,0.3,0.5,0.6,0.8,0.7s0.7,0.3,1.1,0.3c0.4,0,0.8-0.1,1.1-0.3c0.3-0.2,0.6-0.4,0.8-0.7
			c0.2-0.3,0.3-0.7,0.3-1.1c0-0.4-0.1-0.8-0.3-1.1s-0.5-0.5-0.8-0.7S55.6,280.4,55.2,280.4z M58.4,287.1c1,0,1.9,0.1,2.6,0.3
			c0.7,0.2,1.3,0.5,1.7,1s0.6,0.9,0.6,1.5s-0.2,1.1-0.6,1.5s-1,0.8-1.7,1c-0.7,0.2-1.6,0.3-2.6,0.3s-1.9-0.1-2.6-0.3
			c-0.7-0.2-1.3-0.5-1.7-1s-0.6-0.9-0.6-1.5s0.2-1.1,0.6-1.5s1-0.7,1.7-1C56.5,287.2,57.4,287.1,58.4,287.1z M58.4,288.4
			c-0.7,0-1.3,0.1-1.8,0.2s-0.9,0.3-1.1,0.5s-0.4,0.5-0.4,0.8s0.1,0.6,0.4,0.8c0.3,0.2,0.6,0.4,1.1,0.5c0.5,0.1,1.1,0.2,1.8,0.2
			s1.3-0.1,1.8-0.2s0.9-0.3,1.1-0.5c0.3-0.2,0.4-0.5,0.4-0.8s-0.1-0.6-0.4-0.8s-0.6-0.4-1.1-0.5S59.1,288.4,58.4,288.4z M57.7,280.2
			h4.4v1.3h-4.4V280.2z M57.7,283.5h4.4v1.4h-4.4V283.5z M61.6,278.2h1.7v8.6h-1.7V278.2z"/>
		<path class="st0" d="M65.9,289.6h13.2v1.4H65.9V289.6z M72.5,279c1,0,1.9,0.2,2.7,0.5c0.8,0.3,1.4,0.8,1.9,1.4s0.7,1.3,0.7,2.2
			c0,0.8-0.2,1.5-0.7,2.2s-1.1,1.1-1.9,1.4s-1.7,0.5-2.7,0.5c-1,0-1.9-0.2-2.7-0.5s-1.5-0.8-1.9-1.4s-0.7-1.3-0.7-2.2
			c0-0.8,0.2-1.6,0.7-2.2s1.1-1.1,1.9-1.4C70.6,279.2,71.5,279,72.5,279z M72.5,280.4c-0.7,0-1.4,0.1-1.9,0.3s-1,0.5-1.3,1
			c-0.3,0.4-0.5,0.9-0.5,1.5c0,0.6,0.2,1,0.5,1.5c0.3,0.4,0.8,0.7,1.3,1c0.6,0.2,1.2,0.3,1.9,0.3s1.4-0.1,1.9-0.3s1-0.5,1.3-1
			s0.5-0.9,0.5-1.5c0-0.5-0.2-1-0.5-1.5s-0.8-0.7-1.3-1S73.2,280.4,72.5,280.4z"/>
		<path class="st0" d="M80.6,289.7h13.2v1.4H80.6V289.7z M82.2,279.2h10.1v4.6h-8.4v2.7h-1.7v-4h8.4v-2h-8.4V279.2z M82.2,285.9
			h10.4v1.3H82.2V285.9z M86.4,286.7H88v3.5h-1.7V286.7z"/>
		<path class="st0" d="M102.7,279.5h1.3v2.6c0,0.8-0.1,1.6-0.2,2.3s-0.3,1.5-0.6,2.1c-0.3,0.7-0.6,1.3-1,1.8s-0.9,1-1.5,1.3l-1-1.3
			c0.5-0.3,1-0.7,1.4-1.1s0.7-1,1-1.5c0.3-0.6,0.4-1.2,0.6-1.8s0.2-1.2,0.2-1.9C102.7,282.2,102.7,279.5,102.7,279.5z M103,279.5
			h1.3v2.6c0,0.6,0.1,1.2,0.2,1.8s0.3,1.1,0.5,1.7c0.2,0.5,0.5,1,0.9,1.5s0.8,0.8,1.3,1.1l-0.9,1.3c-0.6-0.3-1-0.8-1.4-1.3
			s-0.7-1.1-1-1.8c-0.3-0.7-0.4-1.4-0.6-2.1s-0.2-1.5-0.2-2.2L103,279.5L103,279.5z M105.6,283.3h2.6v1.4h-2.6V283.3z M107.7,278.5
			h1.6v13.6h-1.6V278.5z M110.7,278.2h1.6v14.6h-1.6V278.2z"/>
		<path class="st0" d="M119.2,280h1.6c0,1.3-0.2,2.6-0.5,3.8s-0.9,2.3-1.7,3.3c-0.8,1-1.8,1.9-3.2,2.7l-1-1.2c1.1-0.7,2-1.4,2.7-2.3
			c0.7-0.8,1.2-1.7,1.5-2.7c0.3-1,0.5-2.1,0.5-3.2L119.2,280L119.2,280z M115.1,280h4.6v1.4h-4.6V280z M120.1,285.8h3.2v1.4h-3.2
			V285.8z M120.2,282.1h3.1v1.3h-3.1V282.1z M122.4,278.5h1.6v13.6h-1.6V278.5z M125.4,278.2h1.6v14.6h-1.6V278.2z"/>
		<path class="st0" d="M137.4,279.4h1.4v2.4c0,0.9-0.1,1.7-0.3,2.6c-0.2,0.8-0.5,1.6-0.8,2.3s-0.8,1.3-1.3,1.9
			c-0.5,0.5-1.1,1-1.8,1.3l-1-1.4c0.6-0.3,1.1-0.6,1.6-1.1c0.5-0.5,0.9-1,1.2-1.6s0.6-1.2,0.8-1.9s0.3-1.4,0.3-2.1L137.4,279.4
			L137.4,279.4z M137.8,279.4h1.4v2.4c0,0.7,0.1,1.3,0.3,2c0.2,0.6,0.4,1.3,0.8,1.8s0.7,1.1,1.2,1.5s1,0.8,1.6,1.1l-1,1.3
			c-0.6-0.3-1.2-0.7-1.7-1.2c-0.5-0.5-0.9-1.1-1.3-1.8c-0.4-0.7-0.6-1.4-0.8-2.2s-0.3-1.6-0.3-2.5V279.4z M144.1,278.2h1.7v14.7
			h-1.7V278.2z"/>
		<path class="st0" d="M151.9,279.8h1.4v1.1c0,0.9-0.2,1.8-0.5,2.6c-0.3,0.8-0.8,1.5-1.4,2.1s-1.4,1-2.2,1.4l-0.9-1.3
			c0.8-0.3,1.4-0.6,1.9-1.1c0.5-0.5,0.9-1,1.2-1.6c0.3-0.6,0.4-1.2,0.4-1.9L151.9,279.8L151.9,279.8z M148.8,279.2h7.9v1.4h-7.9
			V279.2z M155.1,287.2c1,0,1.9,0.1,2.6,0.3c0.7,0.2,1.3,0.5,1.7,0.9s0.6,0.9,0.6,1.5c0,0.6-0.2,1.1-0.6,1.5s-0.9,0.7-1.7,0.9
			c-0.7,0.2-1.6,0.3-2.6,0.3s-1.9-0.1-2.6-0.3s-1.3-0.5-1.7-0.9s-0.6-0.9-0.6-1.5c0-0.6,0.2-1.1,0.6-1.5s0.9-0.7,1.7-0.9
			C153.3,287.4,154.1,287.2,155.1,287.2z M155.1,288.6c-0.7,0-1.2,0-1.7,0.2s-0.9,0.3-1.1,0.5s-0.4,0.5-0.4,0.8
			c0,0.3,0.1,0.6,0.4,0.8c0.3,0.2,0.6,0.4,1.1,0.5s1.1,0.2,1.7,0.2c0.7,0,1.3-0.1,1.7-0.2s0.8-0.3,1.1-0.5c0.3-0.2,0.4-0.5,0.4-0.8
			c0-0.3-0.1-0.6-0.4-0.8s-0.6-0.4-1.1-0.5S155.8,288.6,155.1,288.6z M152.2,279.8h1.4v1.1c0,0.6,0.1,1.2,0.4,1.7
			c0.3,0.5,0.7,1,1.2,1.5c0.5,0.4,1.1,0.8,1.9,1l-0.8,1.3c-0.9-0.3-1.6-0.7-2.2-1.2s-1-1.2-1.4-1.9c-0.3-0.7-0.5-1.5-0.5-2.4
			L152.2,279.8L152.2,279.8z M158.2,278.2h1.7v8.7h-1.7V278.2z M159.4,281.7h2.5v1.4h-2.5V281.7z"/>
		<path class="st0" d="M166.4,279.3c0.6,0,1.2,0.2,1.7,0.6s0.8,1,1.1,1.8c0.3,0.8,0.4,1.7,0.4,2.8c0,1.1-0.1,2-0.4,2.8
			c-0.3,0.8-0.6,1.4-1.1,1.8s-1,0.6-1.7,0.6c-0.6,0-1.2-0.2-1.6-0.6c-0.5-0.4-0.8-1-1.1-1.8s-0.4-1.7-0.4-2.8c0-1.1,0.1-2,0.4-2.8
			c0.3-0.8,0.6-1.4,1.1-1.8S165.8,279.3,166.4,279.3z M166.5,280.9c-0.3,0-0.6,0.1-0.9,0.4c-0.2,0.3-0.4,0.7-0.6,1.2
			c-0.1,0.5-0.2,1.2-0.2,2s0.1,1.4,0.2,2s0.3,1,0.6,1.2s0.5,0.4,0.9,0.4s0.6-0.1,0.9-0.4s0.4-0.7,0.6-1.2s0.2-1.2,0.2-2
			s-0.1-1.4-0.2-2c-0.1-0.5-0.3-1-0.6-1.2C167.1,281,166.8,280.9,166.5,280.9z M169.1,283.7h2.6v1.4h-2.6V283.7z M171.1,278.5h1.6
			v13.6h-1.6V278.5z M174,278.2h1.6v14.6H174V278.2z"/>
		<path class="st0" d="M73.8,299h1.4v1.4c0,0.9-0.2,1.7-0.5,2.5c-0.3,0.8-0.8,1.5-1.4,2.1s-1.4,1-2.2,1.4l-0.9-1.3
			c0.8-0.3,1.4-0.6,2-1.1c0.5-0.5,0.9-1,1.2-1.6c0.3-0.6,0.4-1.2,0.4-1.9C73.8,300.4,73.8,299,73.8,299z M70.7,298.5h8v1.4h-8V298.5
			z M72.6,307h1.7v3.9h-1.7V307z M72.6,310.3h9.9v1.4h-9.9V310.3z M74.2,299h1.4v1.4c0,0.5,0.1,0.9,0.2,1.4s0.4,0.9,0.7,1.2
			s0.7,0.7,1.1,1c0.4,0.3,0.9,0.5,1.5,0.7l-0.9,1.3c-0.8-0.3-1.6-0.7-2.2-1.3s-1.1-1.2-1.4-2s-0.5-1.6-0.5-2.4L74.2,299L74.2,299z
			 M80.4,297.4h1.7V308h-1.7V297.4z"/>
		<path class="st0" d="M84.8,303.8H98v1.2H84.8V303.8z M90.5,299.2h1.5v0.3c0,0.5-0.2,1-0.4,1.5c-0.3,0.4-0.7,0.8-1.2,1.1
			s-1.2,0.6-1.9,0.8c-0.7,0.2-1.6,0.3-2.5,0.4l-0.5-1.2c0.8,0,1.5-0.1,2.1-0.3c0.6-0.1,1.2-0.3,1.6-0.5s0.8-0.5,1-0.8
			s0.3-0.6,0.3-0.9L90.5,299.2L90.5,299.2z M86.1,298.6h10.6v1.2H86.1V298.6z M86.3,306.1h10v3.4H88v1.6h-1.7v-2.8h8.3v-1h-8.3
			V306.1z M86.4,310.6h10.4v1.2H86.4V310.6z M90.6,297.3h1.7v1.8h-1.7V297.3z M90.6,304.7h1.7v2.2h-1.7V304.7z M90.8,299.2h1.5v0.3
			c0,0.3,0.1,0.6,0.3,0.9c0.2,0.3,0.6,0.5,1,0.8s1,0.4,1.6,0.5s1.3,0.2,2.1,0.3l-0.5,1.2c-0.9-0.1-1.7-0.2-2.5-0.4
			c-0.7-0.2-1.4-0.4-1.9-0.8s-0.9-0.7-1.2-1.1s-0.4-0.9-0.4-1.5C90.8,299.5,90.8,299.2,90.8,299.2z"/>
		<path class="st0" d="M99.4,299.6h8.6v1.3h-8.6V299.6z M103.8,302c0.7,0,1.3,0.1,1.9,0.4s1,0.7,1.3,1.2c0.3,0.5,0.5,1.1,0.5,1.8
			c0,0.7-0.2,1.3-0.5,1.8c-0.3,0.5-0.7,0.9-1.3,1.2c-0.5,0.3-1.2,0.4-1.9,0.4c-0.7,0-1.3-0.1-1.9-0.4c-0.5-0.3-1-0.7-1.3-1.2
			c-0.3-0.5-0.5-1.1-0.5-1.8c0-0.7,0.2-1.2,0.5-1.8s0.7-0.9,1.3-1.2C102.5,302.2,103.1,302,103.8,302z M103.8,303.4
			c-0.4,0-0.7,0.1-1,0.3s-0.6,0.4-0.7,0.7s-0.3,0.7-0.3,1.1c0,0.4,0.1,0.8,0.3,1.1c0.2,0.3,0.4,0.5,0.7,0.7c0.3,0.2,0.7,0.3,1,0.3
			c0.4,0,0.7-0.1,1.1-0.3c0.3-0.2,0.5-0.4,0.7-0.7s0.3-0.7,0.3-1.1c0-0.4-0.1-0.8-0.3-1.1c-0.2-0.3-0.4-0.5-0.7-0.7
			C104.5,303.5,104.2,303.4,103.8,303.4z M102.9,297.6h1.7v2.6h-1.7V297.6z M109.2,297.4h1.7V312h-1.7V297.4z M110.5,303.2h2.6v1.4
			h-2.6V303.2z"/>
		<path class="st0" d="M118.9,298.4h1.7c0,1.2-0.2,2.3-0.6,3.2s-1,1.8-1.8,2.6s-1.8,1.4-3.1,1.9l-0.8-1.2c1.1-0.4,1.9-0.9,2.6-1.5
			c0.7-0.6,1.2-1.2,1.5-2c0.3-0.7,0.5-1.5,0.5-2.4V298.4z M115,298.4h4.6v1.4H115V298.4z M117.8,306.2h1.3v0.8c0,0.7-0.1,1.3-0.4,2
			s-0.6,1.2-1.1,1.7s-1.1,0.9-1.8,1.2l-0.8-1.2c0.6-0.2,1.1-0.5,1.6-0.9c0.4-0.4,0.7-0.8,0.9-1.3c0.2-0.5,0.3-1,0.3-1.4L117.8,306.2
			L117.8,306.2z M118.2,306.2h1.2v0.8c0,0.5,0.1,1,0.3,1.5c0.2,0.5,0.5,0.9,0.8,1.3s0.9,0.7,1.5,1l-0.7,1.2
			c-0.7-0.3-1.3-0.7-1.8-1.2s-0.8-1.1-1-1.8s-0.3-1.3-0.3-2V306.2z M119.1,301.4h3.3v1.4h-3.3V301.4z M123.2,306.2h1.2v0.8
			c0,0.6-0.1,1.2-0.3,1.9s-0.5,1.3-1,1.8c-0.4,0.5-1,1-1.8,1.3l-0.7-1.2c0.6-0.3,1.1-0.6,1.4-1c0.4-0.4,0.7-0.9,0.8-1.4
			c0.2-0.5,0.3-0.9,0.3-1.4V306.2z M122.1,297.7h1.6v7.9h-1.6V297.7z M123.6,306.2h1.3v0.8c0,0.5,0.1,1,0.3,1.5s0.5,0.9,0.9,1.3
			s0.9,0.7,1.6,0.9l-0.8,1.2c-0.8-0.3-1.4-0.6-1.8-1.1s-0.8-1-1.1-1.7c-0.2-0.6-0.4-1.3-0.4-2L123.6,306.2L123.6,306.2z M125,297.4
			h1.6v8.4H125V297.4z"/>
		<path class="st0" d="M128.9,303.9h13.2v1.3h-13.2V303.9z M134.7,297.5h1.4v0.6c0,0.5-0.1,1-0.3,1.5c-0.2,0.5-0.5,0.9-0.8,1.3
			s-0.8,0.7-1.3,1c-0.5,0.3-1,0.6-1.6,0.8c-0.6,0.2-1.2,0.4-1.9,0.5l-0.6-1.3c0.6-0.1,1.1-0.2,1.6-0.4c0.5-0.2,1-0.4,1.4-0.6
			s0.8-0.5,1.1-0.8c0.3-0.3,0.5-0.6,0.7-0.9s0.2-0.6,0.2-1L134.7,297.5L134.7,297.5z M130.6,306.1h1.6v1.5h6.6v-1.5h1.6v5.7h-9.9
			L130.6,306.1L130.6,306.1z M132.2,308.9v1.6h6.6v-1.6H132.2z M135,297.5h1.4v0.6c0,0.3,0.1,0.7,0.2,1c0.2,0.3,0.4,0.6,0.7,0.9
			c0.3,0.3,0.7,0.5,1.1,0.8s0.9,0.4,1.4,0.6c0.5,0.2,1.1,0.3,1.6,0.4l-0.6,1.3c-0.7-0.1-1.3-0.2-1.9-0.5c-0.6-0.2-1.1-0.5-1.6-0.8
			c-0.5-0.3-0.9-0.7-1.3-1c-0.4-0.4-0.6-0.8-0.8-1.3c-0.2-0.5-0.3-0.9-0.3-1.5V297.5z"/>
		<path class="st0" d="M144.5,298.8h1.7v9.1h-1.7V298.8z M144.5,306.9h1.2c1.1,0,2.2,0,3.4-0.1c1.2-0.1,2.4-0.3,3.6-0.5l0.2,1.4
			c-1.3,0.3-2.5,0.4-3.7,0.5c-1.2,0.1-2.4,0.1-3.5,0.1h-1.2V306.9z M154.1,297.4h1.7V312h-1.7V297.4z"/>
		<path class="st0" d="M159,298.8h6.8v1.4h-5.1v7.6H159V298.8z M159,307h1.2c0.9,0,1.7,0,2.4,0s1.4-0.1,2.1-0.1s1.4-0.2,2.1-0.3
			l0.2,1.4c-0.7,0.1-1.5,0.2-2.2,0.3s-1.4,0.1-2.2,0.1c-0.8,0-1.6,0-2.5,0H159L159,307L159,307z M168,297.4h1.7V312H168V297.4z
			 M169.4,303h2.6v1.4h-2.6V303z"/>
		<path class="st0" d="M174.8,310.9c-0.3,0-0.6-0.1-0.9-0.4c-0.2-0.2-0.4-0.6-0.4-0.9s0.1-0.7,0.4-0.9s0.5-0.4,0.9-0.4
			c0.4,0,0.6,0.1,0.9,0.4s0.4,0.5,0.4,0.9c0,0.4-0.1,0.7-0.4,0.9C175.4,310.8,175.1,310.9,174.8,310.9z"/>
	</g>
</g>
<g>
	<g>
		<path class="st0" d="M122.2,481.7c-1,0-1.9-0.2-2.8-0.5s-1.6-0.9-2.3-1.5s-1.2-1.5-1.5-2.5c-0.4-1-0.6-2.1-0.6-3.4
			s0.2-2.4,0.6-3.4s0.9-1.9,1.6-2.5s1.4-1.2,2.3-1.6c0.9-0.4,1.8-0.5,2.8-0.5c1,0,1.9,0.2,2.7,0.6c0.8,0.4,1.4,0.9,1.9,1.4l-1.6,2
			c-0.4-0.4-0.8-0.7-1.3-0.9c-0.5-0.2-1-0.4-1.6-0.4c-0.8,0-1.5,0.2-2.1,0.6c-0.6,0.4-1.1,1-1.5,1.8s-0.5,1.8-0.5,2.9
			c0,1.1,0.2,2.1,0.5,2.9c0.3,0.8,0.8,1.4,1.4,1.9c0.6,0.4,1.3,0.6,2.1,0.6c0.7,0,1.3-0.1,1.8-0.4c0.5-0.3,1-0.6,1.4-1.1l1.7,1.9
			c-0.6,0.8-1.4,1.3-2.2,1.7S123.2,481.7,122.2,481.7z"/>
		<path class="st0" d="M135.8,481.7c-1.4,0-2.6-0.3-3.6-1c-1-0.6-1.9-1.6-2.4-2.8s-0.9-2.7-0.9-4.4c0-1.7,0.3-3.1,0.9-4.3
			c0.6-1.2,1.4-2.1,2.4-2.7s2.2-1,3.6-1c1.4,0,2.6,0.3,3.6,1c1,0.6,1.9,1.5,2.4,2.7c0.6,1.2,0.9,2.6,0.9,4.3c0,1.7-0.3,3.1-0.9,4.4
			c-0.6,1.2-1.4,2.1-2.4,2.8C138.4,481.4,137.2,481.7,135.8,481.7z M135.8,479c0.8,0,1.4-0.2,2-0.7c0.6-0.5,1-1.1,1.3-1.9
			s0.5-1.8,0.5-2.9c0-1.1-0.1-2-0.5-2.9c-0.3-0.8-0.8-1.4-1.3-1.8c-0.6-0.4-1.2-0.6-2-0.6c-0.8,0-1.4,0.2-2,0.6
			c-0.6,0.4-1,1-1.3,1.8c-0.3,0.8-0.4,1.7-0.4,2.9c0,1.1,0.1,2.1,0.4,2.9s0.7,1.5,1.3,1.9C134.4,478.8,135,479,135.8,479z"/>
		<path class="st0" d="M145.8,481.4v-15.6h5.4c1.1,0,2.1,0.1,3,0.4s1.6,0.8,2.1,1.5s0.8,1.6,0.8,2.8c0,1.1-0.3,2.1-0.8,2.8
			c-0.5,0.7-1.2,1.3-2.1,1.6c-0.9,0.3-1.9,0.5-3,0.5h-2.3v5.9L145.8,481.4L145.8,481.4z M148.9,473.1h2c1,0,1.8-0.2,2.3-0.6
			s0.8-1,0.8-1.9c0-0.8-0.3-1.4-0.8-1.8c-0.5-0.3-1.3-0.5-2.3-0.5h-2V473.1z M154.2,481.4l-3.6-6.7l2.2-1.9l4.9,8.6H154.2z"/>
		<path class="st0" d="M160.1,481.4v-15.6h9.5v2.6h-6.4v3.6h5.4v2.6h-5.4v4.2h6.7v2.6L160.1,481.4L160.1,481.4z"/>
		<path class="st0" d="M180.5,481.4l-4.8-15.6h3.3l2,7.6c0.2,0.9,0.5,1.7,0.7,2.5c0.2,0.8,0.4,1.6,0.6,2.5h0.1
			c0.2-0.9,0.5-1.7,0.7-2.5s0.4-1.6,0.6-2.5l2-7.6h3.1l-4.8,15.6H180.5z"/>
		<path class="st0" d="M188.8,481.4l5-15.6h3.7l5,15.6h-3.3l-2.2-8.1c-0.2-0.8-0.5-1.7-0.7-2.5c-0.2-0.9-0.4-1.7-0.7-2.5h-0.1
			c-0.2,0.8-0.4,1.7-0.6,2.6s-0.5,1.7-0.7,2.5l-2.2,8.1H188.8z M191.9,477.4V475h7.4v2.4H191.9z"/>
		<path class="st0" d="M204.2,481.4v-15.6h3.1v13h6.3v2.6H204.2z"/>
		<path class="st0" d="M222.4,481.7c-1,0-1.8-0.1-2.6-0.4s-1.4-0.7-1.9-1.3c-0.5-0.6-0.9-1.3-1.2-2.3c-0.3-0.9-0.4-2-0.4-3.3v-8.6
			h3.1v8.8c0,1.1,0.1,1.9,0.4,2.6s0.6,1.1,1,1.4c0.4,0.3,1,0.4,1.6,0.4s1.1-0.1,1.6-0.4c0.4-0.3,0.8-0.7,1-1.4s0.4-1.5,0.4-2.6v-8.8
			h3v8.6c0,1.3-0.1,2.4-0.4,3.3c-0.3,0.9-0.7,1.7-1.2,2.3c-0.5,0.6-1.1,1-1.9,1.3S223.3,481.7,222.4,481.7z"/>
		<path class="st0" d="M232.1,481.4v-15.6h9.5v2.6h-6.4v3.6h5.4v2.6h-5.4v4.2h6.7v2.6L232.1,481.4L232.1,481.4z"/>
	</g>
</g>
<g>
	<g>
		<path class="st0" d="M123.7,507.8h13.2v1.3h-13.2C123.7,509.1,123.7,507.8,123.7,507.8z M130.3,510c1.6,0,2.8,0.2,3.7,0.7
			s1.3,1.1,1.3,1.9c0,0.8-0.4,1.5-1.3,1.9c-0.9,0.4-2.1,0.7-3.7,0.7c-1.6,0-2.8-0.2-3.7-0.7c-0.9-0.4-1.3-1.1-1.3-1.9
			c0-0.8,0.4-1.5,1.3-1.9S128.7,510,130.3,510z M125.4,500.9h1.7v1.5h6.5v-1.5h1.7v5.5h-9.8L125.4,500.9L125.4,500.9z M130.3,511.3
			c-0.7,0-1.3,0-1.8,0.1s-0.9,0.2-1.1,0.4c-0.3,0.2-0.4,0.4-0.4,0.7c0,0.3,0.1,0.5,0.4,0.7s0.6,0.4,1.1,0.5s1.1,0.2,1.8,0.2
			c0.7,0,1.3-0.1,1.8-0.2c0.5-0.1,0.9-0.2,1.1-0.5c0.3-0.2,0.4-0.4,0.4-0.7c0-0.3-0.1-0.5-0.4-0.7c-0.3-0.2-0.6-0.3-1.1-0.4
			S131,511.3,130.3,511.3z M127.1,503.7v1.4h6.5v-1.4H127.1z M129.4,505.9h1.7v2.3h-1.7V505.9z"/>
		<path class="st0" d="M141.9,501.8h1.4v2.4c0,0.8-0.1,1.7-0.3,2.5c-0.2,0.8-0.4,1.6-0.8,2.3s-0.8,1.3-1.3,1.9
			c-0.5,0.5-1.1,1-1.7,1.3l-1-1.4c0.6-0.3,1.1-0.6,1.5-1.1c0.5-0.5,0.9-1,1.2-1.6c0.3-0.6,0.6-1.2,0.7-1.9c0.2-0.7,0.3-1.3,0.3-2
			L141.9,501.8L141.9,501.8z M142.2,501.8h1.4v2.4c0,0.6,0.1,1.3,0.2,1.9c0.2,0.6,0.4,1.2,0.7,1.8c0.3,0.6,0.7,1.1,1.1,1.5
			s0.9,0.8,1.5,1.1l-1,1.3c-0.6-0.3-1.1-0.7-1.6-1.3s-0.9-1.1-1.2-1.8s-0.6-1.4-0.8-2.2c-0.2-0.8-0.3-1.6-0.3-2.4L142.2,501.8
			L142.2,501.8z M148.1,500.6h1.7v14.6h-1.7V500.6z M149.4,506.3h2.6v1.4h-2.6V506.3z"/>
		<path class="st0" d="M158.6,507.9c0-0.2,0.1-0.4,0.2-0.6s0.3-0.3,0.4-0.5c0.2-0.1,0.4-0.2,0.6-0.2c0.2,0,0.4,0.1,0.6,0.2
			c0.2,0.1,0.3,0.3,0.4,0.5c0.1,0.2,0.1,0.4,0.1,0.6c0,0.3-0.1,0.6-0.3,0.8c-0.2,0.2-0.5,0.4-0.9,0.4c-0.2,0-0.4-0.1-0.6-0.2
			s-0.3-0.3-0.4-0.5C158.7,508.3,158.6,508.1,158.6,507.9z"/>
		<path class="st0" d="M171.4,501.3h1.4v1.4c0,1-0.2,1.9-0.5,2.7c-0.3,0.8-0.8,1.5-1.4,2.2c-0.6,0.6-1.4,1.1-2.2,1.4l-0.9-1.4
			c0.8-0.3,1.4-0.6,2-1.1c0.5-0.5,0.9-1.1,1.2-1.7s0.4-1.3,0.4-2V501.3z M175.1,509.6c1.5,0,2.7,0.2,3.6,0.7s1.3,1.2,1.3,2.1
			s-0.4,1.6-1.3,2.1s-2.1,0.7-3.6,0.7s-2.7-0.2-3.6-0.7c-0.9-0.5-1.3-1.2-1.3-2.1s0.4-1.6,1.3-2.1
			C172.4,509.8,173.6,509.6,175.1,509.6z M171.7,501.3h1.4v1.3c0,0.7,0.1,1.3,0.4,1.9c0.3,0.6,0.6,1.1,1.2,1.6
			c0.5,0.5,1.1,0.8,1.9,1.1l-0.9,1.3c-0.8-0.3-1.5-0.7-2.1-1.3s-1-1.2-1.3-2s-0.4-1.6-0.4-2.5L171.7,501.3L171.7,501.3z
			 M175.1,510.9c-0.7,0-1.3,0.1-1.8,0.2s-0.9,0.3-1.1,0.5s-0.4,0.5-0.4,0.8c0,0.3,0.1,0.6,0.4,0.8c0.3,0.2,0.6,0.4,1.1,0.5
			s1.1,0.2,1.8,0.2s1.3-0.1,1.8-0.2s0.9-0.3,1.1-0.5c0.3-0.2,0.4-0.5,0.4-0.8c0-0.3-0.1-0.6-0.4-0.8s-0.6-0.4-1.1-0.5
			S175.8,510.9,175.1,510.9z M175.3,503.5h3.2v1.4h-3.2V503.5z M178.3,500.6h1.7v8.6h-1.7V500.6z"/>
		<path class="st0" d="M186.2,500.9h1.4v1.1c0,0.9-0.2,1.7-0.5,2.5c-0.3,0.8-0.8,1.5-1.4,2.1s-1.4,1-2.3,1.3l-0.8-1.3
			c0.6-0.2,1.1-0.5,1.6-0.8c0.4-0.3,0.8-0.7,1.1-1.1c0.3-0.4,0.5-0.9,0.7-1.3s0.2-1,0.2-1.4L186.2,500.9L186.2,500.9z M185,508.7
			h9.6v3.7h-7.9v1.8h-1.6v-3h7.9v-1.2H185L185,508.7L185,508.7z M185.1,513.7h10v1.3h-10V513.7z M186.5,500.9h1.4v1.1
			c0,0.5,0.1,0.9,0.2,1.4s0.4,0.9,0.7,1.3s0.7,0.7,1.1,1c0.4,0.3,0.9,0.5,1.5,0.7l-0.8,1.3c-0.6-0.2-1.2-0.5-1.7-0.9
			c-0.5-0.4-0.9-0.8-1.3-1.3s-0.6-1-0.8-1.6s-0.3-1.2-0.3-1.9L186.5,500.9L186.5,500.9z M192.9,500.6h1.7v7.5h-1.7V500.6z"/>
		<path class="st0" d="M202.8,507.9c0-0.2,0.1-0.4,0.2-0.6s0.3-0.3,0.4-0.5c0.2-0.1,0.4-0.2,0.6-0.2c0.2,0,0.4,0.1,0.6,0.2
			c0.2,0.1,0.3,0.3,0.4,0.5c0.1,0.2,0.1,0.4,0.1,0.6c0,0.3-0.1,0.6-0.3,0.8c-0.2,0.2-0.5,0.4-0.9,0.4c-0.2,0-0.4-0.1-0.6-0.2
			s-0.3-0.3-0.4-0.5C202.9,508.3,202.8,508.1,202.8,507.9z"/>
		<path class="st0" d="M215.8,502.2h1.4v1.4c0,0.9-0.2,1.7-0.5,2.5c-0.3,0.8-0.8,1.5-1.4,2.1s-1.4,1-2.2,1.4l-0.9-1.3
			c0.8-0.3,1.4-0.6,2-1.1c0.5-0.5,0.9-1,1.2-1.6c0.3-0.6,0.4-1.2,0.4-1.9V502.2z M212.6,501.7h8v1.4h-8V501.7z M214.5,510.2h1.7v3.9
			h-1.7V510.2z M214.5,513.5h9.9v1.4h-9.9V513.5z M216.1,502.2h1.4v1.4c0,0.5,0.1,0.9,0.2,1.4s0.4,0.9,0.7,1.2s0.7,0.7,1.1,1
			c0.4,0.3,0.9,0.5,1.5,0.7l-0.9,1.3c-0.9-0.3-1.6-0.7-2.2-1.3s-1.1-1.2-1.4-2c-0.3-0.8-0.5-1.6-0.5-2.4L216.1,502.2L216.1,502.2z
			 M222.4,500.6h1.7v10.6h-1.7V500.6z"/>
		<path class="st0" d="M226.9,510.1l-0.2-1.4c0.9,0,1.9,0,3,0c1.1,0,2.2-0.1,3.3-0.1s2.2-0.2,3.2-0.3l0.1,1.2
			c-1.1,0.2-2.1,0.3-3.3,0.4c-1.1,0.1-2.2,0.1-3.2,0.2S227.8,510.1,226.9,510.1z M230.7,503.2h1.4v0.2c0,0.7-0.2,1.4-0.5,2
			c-0.3,0.6-0.8,1.1-1.4,1.5s-1.3,0.7-2.2,0.9l-0.7-1.3c0.7-0.2,1.3-0.4,1.8-0.7s0.9-0.7,1.1-1.1s0.4-0.9,0.4-1.4L230.7,503.2
			L230.7,503.2z M227.6,502.1h7.8v1.3h-7.8V502.1z M230.7,500.6h1.7v2.5h-1.7V500.6z M230.7,508.9h1.7v5.8h-1.7V508.9z M231,503.2
			h1.4v0.2c0,0.5,0.1,0.9,0.4,1.3c0.3,0.4,0.6,0.7,1.1,1s1.1,0.5,1.8,0.7l-0.7,1.3c-0.9-0.2-1.6-0.5-2.2-0.9
			c-0.6-0.4-1.1-0.9-1.4-1.5c-0.3-0.6-0.5-1.2-0.5-1.9L231,503.2L231,503.2z M237.1,500.6h1.7v14.6h-1.7V500.6z"/>
	</g>
</g>
<g>
	<g>
		<path class="st0" d="M450,481.7c-1.4,0-2.6-0.3-3.6-1c-1-0.6-1.9-1.6-2.5-2.8c-0.6-1.2-0.9-2.7-0.9-4.4c0-1.7,0.3-3.1,0.9-4.3
			s1.4-2.1,2.5-2.7s2.2-1,3.6-1c1.4,0,2.6,0.3,3.6,1c1,0.6,1.9,1.5,2.4,2.7c0.6,1.2,0.9,2.6,0.9,4.3c0,1.7-0.3,3.1-0.9,4.4
			s-1.4,2.1-2.4,2.8C452.6,481.4,451.4,481.7,450,481.7z M450,479c0.8,0,1.4-0.2,2-0.7c0.6-0.5,1-1.1,1.3-1.9s0.5-1.8,0.5-2.9
			c0-1.1-0.1-2-0.5-2.9c-0.3-0.8-0.8-1.4-1.3-1.8c-0.6-0.4-1.2-0.6-2-0.6c-0.8,0-1.4,0.2-2,0.6c-0.6,0.4-1,1-1.3,1.8
			c-0.3,0.8-0.5,1.7-0.5,2.9c0,1.1,0.1,2.1,0.5,2.9c0.3,0.8,0.7,1.5,1.3,1.9C448.6,478.8,449.2,479,450,479z"/>
		<path class="st0" d="M460,481.4v-15.6h5.4c1.1,0,2.1,0.1,3,0.4s1.6,0.8,2.1,1.5s0.8,1.6,0.8,2.8c0,1.1-0.3,2.1-0.8,2.8
			c-0.5,0.7-1.2,1.3-2.1,1.6c-0.9,0.3-1.9,0.5-3,0.5h-2.3v5.9L460,481.4L460,481.4z M463.1,473.1h2c1,0,1.8-0.2,2.3-0.6
			s0.8-1,0.8-1.9c0-0.8-0.3-1.4-0.8-1.8c-0.5-0.3-1.3-0.5-2.3-0.5h-2V473.1z M468.5,481.4l-3.6-6.7l2.2-1.9l4.9,8.6H468.5z"/>
		<path class="st0" d="M481,481.7c-1.4,0-2.7-0.3-3.8-0.9s-2-1.5-2.7-2.7s-1-2.6-1-4.4c0-1.3,0.2-2.4,0.6-3.4c0.4-1,0.9-1.9,1.6-2.5
			c0.7-0.7,1.5-1.2,2.4-1.6c0.9-0.4,1.9-0.5,2.9-0.5c1.1,0,2.1,0.2,2.9,0.6s1.4,0.9,1.9,1.4l-1.7,2c-0.4-0.4-0.8-0.7-1.3-0.9
			s-1-0.4-1.8-0.4c-0.9,0-1.6,0.2-2.3,0.6c-0.7,0.4-1.2,1-1.5,1.8s-0.5,1.8-0.5,2.9c0,1.1,0.2,2.1,0.5,2.9s0.9,1.4,1.5,1.9
			c0.7,0.4,1.5,0.6,2.5,0.6c0.4,0,0.7,0,1.1-0.2c0.4-0.1,0.6-0.2,0.8-0.4v-3.1h-2.8v-2.5h5.5v7c-0.5,0.5-1.2,1-2.1,1.3
			C483.1,481.5,482.1,481.7,481,481.7z"/>
		<path class="st0" d="M487.4,481.4l5-15.6h3.7l5,15.6h-3.3l-2.2-8.1c-0.2-0.8-0.5-1.7-0.7-2.5c-0.2-0.9-0.4-1.7-0.7-2.5h-0.1
			c-0.2,0.8-0.4,1.7-0.6,2.6s-0.5,1.7-0.7,2.5l-2.2,8.1H487.4z M490.5,477.4V475h7.4v2.4H490.5z"/>
		<path class="st0" d="M502.9,481.4v-15.6h3.2l4.5,8.3l1.6,3.4h0.1c-0.1-0.8-0.2-1.7-0.3-2.7c-0.1-1-0.1-1.9-0.1-2.8v-6.2h2.9v15.6
			h-3.2l-4.5-8.3l-1.6-3.3h-0.1c0.1,0.8,0.1,1.7,0.2,2.7s0.1,1.9,0.1,2.8v6.2L502.9,481.4L502.9,481.4z"/>
		<path class="st0" d="M518.6,481.4v-15.6h3.1v15.6H518.6z"/>
		<path class="st0" d="M524.5,481.4v-1.9l7.2-11.1h-6.6v-2.6h10.4v1.9l-7.2,11.1h7.3v2.6H524.5z"/>
		<path class="st0" d="M536.4,481.4l5-15.6h3.7l5,15.6h-3.3l-2.2-8.1c-0.2-0.8-0.5-1.7-0.7-2.5c-0.2-0.9-0.5-1.7-0.7-2.5h-0.1
			c-0.2,0.8-0.4,1.7-0.6,2.6c-0.2,0.9-0.5,1.7-0.7,2.5l-2.2,8.1H536.4z M539.5,477.4V475h7.4v2.4H539.5z"/>
		<path class="st0" d="M554.9,481.4v-13h-4.4v-2.6h11.9v2.6H558v13H554.9z"/>
		<path class="st0" d="M565,481.4v-15.6h3.1v15.6H565z"/>
		<path class="st0" d="M578.1,481.7c-1.4,0-2.6-0.3-3.6-1c-1-0.6-1.9-1.6-2.5-2.8s-0.9-2.7-0.9-4.4c0-1.7,0.3-3.1,0.9-4.3
			s1.4-2.1,2.5-2.7c1-0.6,2.2-1,3.6-1c1.4,0,2.6,0.3,3.6,1c1,0.6,1.8,1.5,2.4,2.7c0.6,1.2,0.9,2.6,0.9,4.3c0,1.7-0.3,3.1-0.9,4.4
			s-1.4,2.1-2.4,2.8C580.7,481.4,579.5,481.7,578.1,481.7z M578.1,479c0.8,0,1.4-0.2,2-0.7s1-1.1,1.3-1.9s0.5-1.8,0.5-2.9
			c0-1.1-0.2-2-0.5-2.9c-0.3-0.8-0.8-1.4-1.3-1.8c-0.6-0.4-1.2-0.6-2-0.6s-1.4,0.2-2,0.6c-0.6,0.4-1,1-1.3,1.8s-0.5,1.7-0.5,2.9
			c0,1.1,0.2,2.1,0.5,2.9s0.7,1.5,1.3,1.9C576.6,478.8,577.3,479,578.1,479z"/>
		<path class="st0" d="M588.1,481.4v-15.6h3.2l4.5,8.3l1.6,3.4h0.1c-0.1-0.8-0.2-1.7-0.3-2.7c-0.1-1-0.2-1.9-0.2-2.8v-6.2h2.9v15.6
			h-3.2l-4.5-8.3l-1.6-3.3h-0.1c0.1,0.8,0.2,1.7,0.2,2.7s0.2,1.9,0.2,2.8v6.2L588.1,481.4L588.1,481.4z"/>
	</g>
</g>
<g>
	<g>
		<path class="st0" d="M443.8,513.3h13.2v1.4h-13.2V513.3z M449.5,503.8h1.4v0.7c0,0.6-0.1,1.2-0.3,1.7s-0.5,1-0.8,1.5
			c-0.4,0.5-0.8,0.9-1.3,1.2s-1,0.7-1.6,0.9s-1.2,0.5-1.9,0.6l-0.7-1.3c0.6-0.1,1.1-0.2,1.6-0.5s1-0.5,1.4-0.8
			c0.4-0.3,0.8-0.6,1.1-1s0.6-0.8,0.7-1.2c0.2-0.4,0.3-0.8,0.3-1.3L449.5,503.8L449.5,503.8z M444.9,503.1h11v1.3h-11V503.1z
			 M449.6,509.9h1.7v3.8h-1.7V509.9z M449.9,503.8h1.4v0.7c0,0.4,0.1,0.9,0.3,1.3c0.2,0.4,0.4,0.8,0.7,1.2s0.7,0.7,1.1,1
			c0.4,0.3,0.9,0.5,1.4,0.7c0.5,0.2,1.1,0.4,1.7,0.4l-0.7,1.3c-0.7-0.1-1.3-0.3-1.9-0.6s-1.1-0.6-1.6-0.9s-0.9-0.8-1.3-1.2
			c-0.4-0.5-0.6-1-0.9-1.5s-0.3-1.1-0.3-1.7L449.9,503.8L449.9,503.8z"/>
		<path class="st0" d="M462.3,503.4h1.4v1.1c0,0.9-0.2,1.8-0.5,2.5s-0.8,1.5-1.4,2.1c-0.6,0.6-1.4,1-2.2,1.3l-0.9-1.3
			c0.8-0.3,1.4-0.6,2-1.1c0.5-0.5,0.9-1,1.2-1.6s0.4-1.2,0.4-1.9L462.3,503.4L462.3,503.4z M459.1,502.8h8v1.3h-8V502.8z
			 M460.7,511.4h9.8v5.1h-1.7v-3.7h-8.2V511.4z M462.6,503.4h1.4v1.1c0,0.5,0.1,0.9,0.2,1.4c0.1,0.4,0.4,0.9,0.7,1.2s0.7,0.7,1.1,1
			c0.4,0.3,1,0.5,1.5,0.7l-0.9,1.3c-0.9-0.3-1.6-0.7-2.2-1.3c-0.6-0.6-1.1-1.2-1.4-2c-0.3-0.8-0.5-1.6-0.5-2.4L462.6,503.4
			L462.6,503.4z M468.9,501.9h1.7v8.9h-1.7V501.9z"/>
		<path class="st0" d="M473.2,509.2h13.2v1.3h-13.2V509.2z M474.9,512h1.7v3.3h-1.7V512z M474.9,514.8H485v1.4h-10.2V514.8z
			 M474.9,502.5h9.9v5.3h-9.9V502.5z M483.1,503.9h-6.6v2.6h6.6V503.9z M479.1,510.1h1.7v3.2h-1.7V510.1z"/>
		<path class="st0" d="M488,513.9l-0.2-1.4c0.9,0,1.8,0,2.8,0s2.1,0,3.1-0.1c1.1-0.1,2.1-0.2,3.1-0.3l0.1,1.2
			c-1,0.2-2.1,0.3-3.1,0.4c-1.1,0.1-2.1,0.1-3.1,0.1S488.9,513.9,488,513.9z M488.1,503.6h8.7v1.3h-8.7V503.6z M492.4,505.6
			c0.7,0,1.3,0.1,1.8,0.3c0.5,0.2,0.9,0.5,1.2,1c0.3,0.4,0.5,0.9,0.5,1.4c0,0.5-0.1,1-0.5,1.4c-0.3,0.4-0.7,0.7-1.2,1
			s-1.1,0.3-1.8,0.3s-1.3-0.1-1.8-0.3c-0.5-0.2-0.9-0.5-1.2-1s-0.4-0.9-0.4-1.4c0-0.5,0.1-1,0.4-1.4c0.3-0.4,0.7-0.7,1.2-1
			C491.1,505.8,491.7,505.6,492.4,505.6z M492.4,506.9c-0.6,0-1,0.1-1.4,0.4s-0.5,0.6-0.5,1.1c0,0.5,0.2,0.8,0.5,1.1
			s0.8,0.4,1.4,0.4s1-0.1,1.4-0.4c0.4-0.3,0.5-0.6,0.5-1.1s-0.2-0.8-0.5-1.1C493.5,507,493,506.9,492.4,506.9z M491.6,501.9h1.7v2.6
			h-1.7V501.9z M491.6,510.6h1.7v2.4h-1.7V510.6z M497.7,501.9h1.7v14.6h-1.7V501.9z M498.8,508h2.6v1.4h-2.6V508z"/>
		<path class="st0" d="M507.2,519.7v-18h1.2v18H507.2z"/>
		<path class="st0" d="M516.6,503.6h1.4c0,0.8,0,1.7-0.1,2.5c-0.1,0.8-0.2,1.6-0.3,2.4s-0.4,1.5-0.7,2.3s-0.7,1.5-1.2,2.2l-1.3-0.8
			c0.5-0.6,0.8-1.3,1.1-1.9c0.3-0.7,0.5-1.3,0.7-2s0.3-1.4,0.3-2.2s0.1-1.5,0.1-2.3V503.6z M514.7,503.6h2.7v1.3h-2.7V503.6z
			 M520,503.6h1.4c0,0.8,0,1.7-0.1,2.6s-0.2,1.8-0.3,2.7s-0.4,1.8-0.7,2.6c-0.3,0.8-0.7,1.7-1.3,2.4l-1.3-0.7c0.4-0.6,0.7-1.1,1-1.8
			c0.3-0.6,0.5-1.2,0.7-1.9s0.3-1.3,0.4-1.9c0.1-0.6,0.1-1.3,0.2-2s0-1.3,0-2L520,503.6L520,503.6z M518.5,503.6h2.4v1.3h-2.4V503.6
			z M522.5,502.2h1.6v13.6h-1.6V502.2z M523.5,507.6h2.7v1.3h-2.7V507.6z M525.5,501.9h1.6v14.6h-1.6V501.9z"/>
		<path class="st0" d="M529.1,508.1h13.2v1.4h-13.2V508.1z M534.9,510.9h1.4v0.6c0,0.7-0.1,1.3-0.4,1.8c-0.3,0.5-0.7,1-1.2,1.5
			s-1.1,0.8-1.8,1.1c-0.7,0.3-1.5,0.5-2.3,0.6l-0.6-1.3c0.7-0.1,1.4-0.3,2-0.5c0.6-0.2,1.1-0.5,1.5-0.8c0.4-0.3,0.8-0.7,1-1.1
			s0.3-0.8,0.3-1.3L534.9,510.9L534.9,510.9z M530.3,502.6h3.7v1.3h-3.7V502.6z M533.5,502.6h1.6v0.5c0,0.4,0,0.8,0,1.4
			s-0.1,1.2-0.2,2s-0.3,1.6-0.6,2.6l-1.6-0.4c0.3-0.9,0.5-1.7,0.6-2.5c0.1-0.7,0.2-1.3,0.2-1.9s0-0.9,0-1.3L533.5,502.6L533.5,502.6
			z M535.1,510.9h1.4v0.6c0,0.5,0.1,0.9,0.3,1.3c0.2,0.4,0.5,0.8,1,1.1c0.4,0.3,0.9,0.6,1.5,0.8c0.6,0.2,1.3,0.4,2,0.5l-0.6,1.3
			c-0.8-0.1-1.6-0.3-2.3-0.6c-0.7-0.3-1.3-0.6-1.8-1.1s-0.9-0.9-1.2-1.5c-0.3-0.6-0.4-1.2-0.4-1.8L535.1,510.9L535.1,510.9z
			 M536,502.6h3.9v1.3H536V502.6z M539.2,502.6h1.6v0.6c0,0.4,0,0.8,0,1.4s-0.1,1.2-0.2,2c-0.1,0.8-0.2,1.6-0.5,2.5l-1.6-0.3
			c0.3-1.4,0.5-2.5,0.6-3.4s0.1-1.7,0.1-2.2V502.6z"/>
		<path class="st0" d="M543.8,503.5h8.6v1.3h-8.6V503.5z M548.2,505.6c0.7,0,1.3,0.1,1.8,0.3s1,0.5,1.2,1s0.5,0.9,0.5,1.5
			c0,0.5-0.2,1-0.5,1.4s-0.7,0.7-1.2,1s-1.2,0.4-1.8,0.4c-0.7,0-1.3-0.1-1.9-0.4s-1-0.6-1.2-1s-0.5-0.9-0.5-1.4c0-0.5,0.2-1,0.5-1.5
			s0.7-0.7,1.2-1S547.5,505.6,548.2,505.6z M546,512h1.7v3.5H546V512z M546,514.8h9.9v1.4H546V514.8z M548.2,506.9
			c-0.6,0-1,0.1-1.4,0.4s-0.5,0.6-0.5,1.1s0.2,0.8,0.5,1.1c0.4,0.3,0.8,0.4,1.4,0.4s1-0.1,1.4-0.4c0.3-0.3,0.5-0.6,0.5-1.1
			s-0.2-0.8-0.5-1.1C549.2,507,548.7,506.9,548.2,506.9z M547.3,501.9h1.7v2.3h-1.7V501.9z M553.6,501.9h1.7v10.9h-1.7V501.9z
			 M554.7,506.5h2.6v1.4h-2.6V506.5z"/>
		<path class="st0" d="M563,513.3h13.2v1.4H563V513.3z M568.8,503.8h1.4v0.7c0,0.6-0.1,1.2-0.3,1.7s-0.5,1-0.8,1.5
			c-0.4,0.5-0.8,0.9-1.3,1.2c-0.5,0.4-1,0.7-1.6,0.9c-0.6,0.3-1.2,0.5-1.8,0.6l-0.7-1.3c0.6-0.1,1.1-0.2,1.6-0.5s1-0.5,1.4-0.8
			c0.4-0.3,0.8-0.6,1.1-1c0.3-0.4,0.6-0.8,0.7-1.2s0.3-0.8,0.3-1.3L568.8,503.8L568.8,503.8z M564.1,503.1h11v1.3h-11V503.1z
			 M568.8,509.9h1.7v3.8h-1.7V509.9z M569.1,503.8h1.4v0.7c0,0.4,0.1,0.9,0.3,1.3s0.4,0.8,0.7,1.2c0.3,0.4,0.7,0.7,1.1,1
			c0.4,0.3,0.9,0.5,1.4,0.7c0.5,0.2,1.1,0.4,1.7,0.4l-0.7,1.3c-0.7-0.1-1.3-0.3-1.9-0.6s-1.1-0.6-1.6-0.9s-0.9-0.8-1.3-1.2
			c-0.4-0.5-0.7-1-0.8-1.5c-0.2-0.5-0.3-1.1-0.3-1.7L569.1,503.8L569.1,503.8z"/>
		<path class="st0" d="M581.5,503.4h1.4v1.1c0,0.9-0.2,1.8-0.5,2.5s-0.8,1.5-1.4,2.1c-0.6,0.6-1.4,1-2.2,1.3l-0.9-1.3
			c0.8-0.3,1.4-0.6,2-1.1c0.5-0.5,0.9-1,1.2-1.6c0.3-0.6,0.4-1.2,0.4-1.9V503.4z M578.3,502.8h8v1.3h-8V502.8z M580,511.4h9.8v5.1
			h-1.7v-3.7H580L580,511.4L580,511.4z M581.8,503.4h1.4v1.1c0,0.5,0.1,0.9,0.2,1.4c0.2,0.4,0.4,0.9,0.7,1.2s0.7,0.7,1.1,1
			s1,0.5,1.5,0.7l-0.9,1.3c-0.8-0.3-1.6-0.7-2.2-1.3c-0.6-0.6-1.1-1.2-1.4-2c-0.3-0.8-0.5-1.6-0.5-2.4L581.8,503.4L581.8,503.4z
			 M588.1,501.9h1.7v8.9h-1.7V501.9z"/>
		<path class="st0" d="M598,509.3c0-0.2,0.1-0.4,0.2-0.6s0.3-0.3,0.4-0.5c0.2-0.1,0.4-0.2,0.6-0.2c0.2,0,0.4,0.1,0.6,0.2
			s0.3,0.3,0.4,0.5c0.1,0.2,0.2,0.4,0.2,0.6c0,0.3-0.1,0.6-0.3,0.8c-0.2,0.2-0.5,0.4-0.8,0.4c-0.2,0-0.4-0.1-0.6-0.2
			c-0.2-0.1-0.3-0.3-0.4-0.5S598,509.5,598,509.3z"/>
		<path class="st0" d="M607.2,513.9l-0.2-1.4c0.9,0,1.8,0,2.8,0s2.1,0,3.2-0.1c1.1-0.1,2.1-0.2,3.1-0.3l0.1,1.2
			c-1,0.2-2.1,0.3-3.2,0.4c-1.1,0.1-2.1,0.1-3.1,0.1C609,513.9,608.1,513.9,607.2,513.9z M607.3,503.6h8.7v1.3h-8.7V503.6z
			 M611.6,505.6c0.7,0,1.3,0.1,1.8,0.3c0.5,0.2,0.9,0.5,1.2,1c0.3,0.4,0.5,0.9,0.5,1.4c0,0.5-0.2,1-0.5,1.4s-0.7,0.7-1.2,1
			s-1.1,0.3-1.8,0.3s-1.3-0.1-1.8-0.3c-0.5-0.2-0.9-0.5-1.2-1s-0.4-0.9-0.4-1.4c0-0.5,0.2-1,0.4-1.4c0.3-0.4,0.7-0.7,1.2-1
			C610.3,505.8,610.9,505.6,611.6,505.6z M611.6,506.9c-0.6,0-1,0.1-1.4,0.4c-0.3,0.3-0.5,0.6-0.5,1.1c0,0.5,0.2,0.8,0.5,1.1
			s0.8,0.4,1.4,0.4c0.6,0,1-0.1,1.4-0.4c0.3-0.3,0.5-0.6,0.5-1.1s-0.2-0.8-0.5-1.1S612.2,506.9,611.6,506.9z M610.8,501.9h1.7v2.6
			h-1.7V501.9z M610.8,510.6h1.7v2.4h-1.7V510.6z M616.9,501.9h1.7v14.6h-1.7V501.9z M618,508h2.6v1.4H618V508z"/>
		<path class="st0" d="M621.9,509.2h13.2v1.3h-13.2V509.2z M623.4,511.8h10.1v4.7h-1.7v-3.4h-8.5V511.8z M623.6,502.5h9.9v5.1h-9.9
			V502.5z M631.8,503.8h-6.6v2.4h6.6V503.8z M627.7,507.2h1.7v2.4h-1.7V507.2z"/>
		<path class="st0" d="M636.9,513.4l-0.2-1.4c0.9,0,1.9,0,2.9,0c1.1,0,2.1-0.1,3.3-0.1c1.1-0.1,2.2-0.2,3.2-0.3l0.1,1.2
			c-1.1,0.2-2.2,0.3-3.3,0.4c-1.1,0.1-2.2,0.1-3.2,0.2C638.7,513.4,637.8,513.4,636.9,513.4z M641.3,502.9c0.8,0,1.5,0.1,2,0.5
			s1.1,0.7,1.4,1.2c0.3,0.5,0.5,1.1,0.5,1.8c0,0.7-0.2,1.3-0.5,1.8s-0.8,1-1.4,1.2s-1.3,0.5-2,0.5c-0.8,0-1.4-0.1-2-0.5
			c-0.6-0.3-1.1-0.7-1.4-1.2s-0.5-1.1-0.5-1.8c0-0.7,0.2-1.3,0.5-1.8s0.8-0.9,1.4-1.2S640.6,502.9,641.3,502.9z M641.3,504.4
			c-0.4,0-0.8,0.1-1.2,0.2s-0.6,0.4-0.8,0.7s-0.3,0.7-0.3,1.1s0.1,0.8,0.3,1.1c0.2,0.3,0.5,0.6,0.8,0.7c0.4,0.2,0.8,0.3,1.2,0.3
			c0.5,0,0.8-0.1,1.2-0.3s0.6-0.4,0.8-0.7c0.2-0.3,0.3-0.7,0.3-1.1c0-0.4-0.1-0.8-0.3-1.1s-0.5-0.5-0.8-0.7
			C642.2,504.4,641.8,504.4,641.3,504.4z M647,501.9h1.7v14.7H647V501.9z"/>
		<path class="st0" d="M656.6,502.8h7v1.3h-5.3v5h-1.7V502.8z M656.6,508.5h1.2c1,0,1.9,0,2.7,0s1.5-0.1,2.2-0.1s1.3-0.1,2-0.3
			l0.2,1.3c-0.7,0.1-1.4,0.2-2.1,0.3s-1.4,0.1-2.2,0.1c-0.8,0-1.7,0-2.8,0h-1.2V508.5z M657.8,505.6h5.4v1.3h-5.4V505.6z
			 M658.3,511.3h9.5v5.1h-9.5V511.3z M666.2,512.6H660v2.4h6.3V512.6z M666.2,501.9h1.7v8.7h-1.7V501.9z"/>
		<path class="st0" d="M670.7,510.8l-0.2-1.4c0.9,0,1.9,0,3,0c1.1,0,2.2-0.1,3.3-0.1c1.1-0.1,2.2-0.2,3.3-0.3l0.1,1.2
			c-1.1,0.2-2.2,0.3-3.3,0.4c-1.1,0.1-2.2,0.1-3.2,0.2S671.6,510.8,670.7,510.8z M675.2,502.6c0.7,0,1.3,0.1,1.9,0.4s1,0.6,1.3,1
			c0.3,0.4,0.5,1,0.5,1.5s-0.2,1.1-0.5,1.5c-0.3,0.4-0.8,0.8-1.3,1s-1.2,0.4-1.9,0.4c-0.7,0-1.4-0.1-1.9-0.4s-1-0.6-1.3-1
			c-0.3-0.4-0.5-1-0.5-1.5s0.2-1.1,0.5-1.5s0.8-0.8,1.3-1S674.5,502.6,675.2,502.6z M675.2,503.8c-0.4,0-0.8,0.1-1.1,0.2
			s-0.6,0.3-0.8,0.6s-0.3,0.5-0.3,0.9c0,0.3,0.1,0.6,0.3,0.9s0.4,0.4,0.8,0.6c0.3,0.1,0.7,0.2,1.1,0.2s0.8-0.1,1.1-0.2
			s0.5-0.3,0.7-0.6c0.2-0.2,0.3-0.5,0.3-0.9c0-0.3-0.1-0.6-0.3-0.9c-0.2-0.2-0.4-0.4-0.7-0.6S675.7,503.8,675.2,503.8z M674.3,510.1
			h1.7v6h-1.7V510.1z M677.9,511.8h3.5v1.3h-3.5V511.8z M681,501.9h1.7v14.6H681V501.9z"/>
		<path class="st0" d="M685.3,513.2h13.2v1.4h-13.2V513.2z M695.7,507.3v1.2l-9.1,0.5l-0.2-1.4L695.7,507.3z M686.8,503.3h9.2v1.4
			h-9.2V503.3z M695.3,503.3h1.7v1.7c0,0.7,0,1.4,0,2.1s-0.1,1.5-0.2,2.3c-0.1,0.8-0.2,1.7-0.5,2.8l-1.7-0.1c0.2-1,0.4-1.8,0.5-2.6
			c0.1-0.8,0.2-1.6,0.2-2.3c0-0.7,0-1.4,0-2.1L695.3,503.3L695.3,503.3z"/>
		<path class="st0" d="M521.3,529.3c0-0.2,0.1-0.4,0.2-0.6s0.3-0.3,0.4-0.5s0.4-0.2,0.6-0.2c0.2,0,0.4,0.1,0.6,0.2s0.3,0.3,0.4,0.5
			s0.2,0.4,0.2,0.6c0,0.3-0.1,0.6-0.3,0.8c-0.2,0.2-0.5,0.4-0.8,0.4c-0.2,0-0.4-0.1-0.6-0.2c-0.2-0.1-0.3-0.3-0.4-0.5
			S521.3,529.5,521.3,529.3z"/>
		<path class="st0" d="M534.7,522.9c0.7,0,1.4,0.2,2,0.5s1,0.7,1.4,1.3s0.5,1.2,0.5,1.9c0,0.7-0.2,1.3-0.5,1.9
			c-0.3,0.5-0.8,1-1.4,1.3c-0.6,0.3-1.2,0.5-2,0.5c-0.7,0-1.4-0.2-2-0.5c-0.6-0.3-1-0.7-1.4-1.3c-0.3-0.5-0.5-1.2-0.5-1.9
			s0.2-1.3,0.5-1.9c0.3-0.5,0.8-1,1.4-1.3C533.3,523,534,522.9,534.7,522.9z M534.7,524.3c-0.4,0-0.8,0.1-1.2,0.3s-0.6,0.4-0.8,0.8
			s-0.3,0.7-0.3,1.2s0.1,0.8,0.3,1.2c0.2,0.3,0.5,0.6,0.8,0.8c0.3,0.2,0.7,0.3,1.2,0.3c0.4,0,0.8-0.1,1.2-0.3s0.6-0.4,0.8-0.8
			s0.3-0.7,0.3-1.2s-0.1-0.8-0.3-1.2c-0.2-0.3-0.5-0.6-0.8-0.8S535.1,524.3,534.7,524.3z M533,531.4h1.7v4H533V531.4z M533,534.8h10
			v1.4h-10V534.8z M540.9,521.9h1.7v10.6h-1.7V521.9z"/>
		<path class="st0" d="M550.9,523h1.8c0,1.3-0.3,2.5-0.8,3.5c-0.5,1-1.3,1.9-2.3,2.7c-1,0.8-2.2,1.3-3.7,1.8l-0.7-1.3
			c1.2-0.3,2.2-0.8,3.1-1.4s1.5-1.2,2-2c0.5-0.8,0.7-1.5,0.7-2.4L550.9,523L550.9,523z M545.8,523h6v1.4h-6V523z M547.4,531.4h1.7v4
			h-1.7V531.4z M547.4,534.8h9.8v1.4h-9.8V534.8z M555,521.9h1.7v10.6H555V521.9z M556.2,526.2h2.6v1.4h-2.6V526.2z"/>
		<path class="st0" d="M560,529.7h13.2v1.3H560V529.7z M565.5,523.3h1.5v0.4c0,0.6-0.1,1.2-0.4,1.7s-0.7,1-1.2,1.4s-1.1,0.8-1.8,1
			s-1.5,0.5-2.3,0.6l-0.6-1.3c0.6-0.1,1.1-0.2,1.6-0.3s0.9-0.3,1.3-0.5c0.4-0.2,0.7-0.5,1-0.7c0.3-0.3,0.5-0.5,0.7-0.8
			s0.2-0.6,0.2-0.9L565.5,523.3L565.5,523.3z M561.2,522.6H572v1.3h-10.8V522.6z M561.6,532.1h1.7v3.3h-1.7V532.1z M561.6,534.8
			h10.1v1.4h-10.1V534.8z M565.7,527.4h1.7v2.8h-1.7V527.4z M566.2,523.3h1.5v0.4c0,0.3,0.1,0.6,0.2,0.9c0.2,0.3,0.4,0.6,0.6,0.8
			s0.6,0.5,1,0.7s0.8,0.4,1.3,0.5c0.5,0.2,1,0.3,1.6,0.3l-0.6,1.3c-0.8-0.1-1.6-0.3-2.3-0.6c-0.7-0.3-1.3-0.6-1.8-1
			c-0.5-0.4-0.9-0.9-1.2-1.4s-0.4-1.1-0.4-1.7L566.2,523.3L566.2,523.3z"/>
		<path class="st0" d="M574.7,528.6h13.2v1.3h-13.2V528.6z M580.2,523.2h1.5v0.4c0,0.5-0.1,0.9-0.3,1.3c-0.2,0.4-0.4,0.8-0.8,1.1
			c-0.3,0.3-0.8,0.6-1.2,0.9c-0.5,0.3-1,0.5-1.6,0.7s-1.2,0.3-1.9,0.4l-0.6-1.3c0.6,0,1.1-0.2,1.6-0.3s0.9-0.3,1.3-0.5
			c0.4-0.2,0.7-0.4,1-0.7c0.3-0.2,0.5-0.5,0.7-0.8c0.2-0.3,0.2-0.5,0.2-0.8L580.2,523.2L580.2,523.2z M575.9,522.5h10.8v1.3h-10.8
			V522.5z M581.3,531.3c1.6,0,2.8,0.2,3.7,0.7s1.3,1.1,1.3,1.9s-0.5,1.5-1.3,1.9s-2.1,0.7-3.7,0.7c-1.6,0-2.8-0.2-3.7-0.7
			s-1.3-1.1-1.3-1.9s0.5-1.5,1.3-1.9S579.7,531.3,581.3,531.3z M581.3,532.6c-0.7,0-1.3,0-1.8,0.2c-0.5,0.1-0.9,0.2-1.1,0.4
			s-0.4,0.4-0.4,0.7s0.1,0.5,0.4,0.7c0.3,0.2,0.6,0.3,1.1,0.4s1.1,0.1,1.8,0.1c0.7,0,1.3,0,1.8-0.1c0.5-0.1,0.9-0.2,1.1-0.4
			s0.4-0.4,0.4-0.7s-0.1-0.5-0.4-0.7c-0.3-0.2-0.6-0.3-1.1-0.4C582.6,532.6,582,532.6,581.3,532.6z M580.5,529.2h1.7v2.6h-1.7V529.2
			z M580.9,523.2h1.5v0.4c0,0.3,0.1,0.6,0.2,0.8c0.2,0.3,0.4,0.5,0.6,0.8s0.6,0.5,1,0.6s0.8,0.3,1.3,0.5c0.5,0.1,1,0.2,1.6,0.3
			l-0.6,1.3c-0.7-0.1-1.3-0.2-1.9-0.4s-1.1-0.4-1.6-0.7s-0.9-0.6-1.2-0.9s-0.6-0.7-0.8-1.1c-0.2-0.4-0.3-0.8-0.3-1.3L580.9,523.2
			L580.9,523.2z"/>
	</g>
</g>
<g>
	<g>
		<path class="st0" d="M443.8,550.5h13.2v1.3h-13.2V550.5z M450.4,543.5c1,0,1.9,0.1,2.7,0.4s1.4,0.6,1.8,1s0.6,1,0.6,1.6
			c0,0.6-0.2,1.1-0.6,1.6c-0.4,0.5-1,0.8-1.8,1s-1.7,0.4-2.7,0.4c-1,0-1.9-0.1-2.7-0.4c-0.8-0.2-1.4-0.6-1.8-1s-0.6-1-0.6-1.6
			c0-0.6,0.2-1.1,0.6-1.6s1-0.8,1.8-1C448.5,543.6,449.4,543.5,450.4,543.5z M445.4,553.2h1.7v3.3h-1.7V553.2z M445.4,556.1h10.2
			v1.4h-10.2V556.1z M450.4,544.8c-0.7,0-1.3,0.1-1.8,0.2s-0.9,0.3-1.2,0.6c-0.3,0.2-0.4,0.5-0.4,0.9s0.1,0.6,0.4,0.9
			s0.7,0.4,1.2,0.6s1.1,0.2,1.8,0.2c0.7,0,1.3-0.1,1.8-0.2s0.9-0.3,1.2-0.6c0.3-0.2,0.4-0.5,0.4-0.9s-0.1-0.6-0.4-0.9
			s-0.7-0.4-1.2-0.6C451.7,544.9,451.1,544.8,450.4,544.8z M449.7,551.3h1.7v3.2h-1.7V551.3z"/>
		<path class="st0" d="M462.5,544c0.7,0,1.4,0.2,2,0.5c0.6,0.3,1,0.7,1.4,1.2s0.5,1.1,0.5,1.8c0,0.7-0.2,1.3-0.5,1.8
			s-0.8,0.9-1.4,1.2s-1.2,0.5-2,0.5c-0.7,0-1.4-0.2-1.9-0.5s-1-0.7-1.4-1.2c-0.3-0.5-0.5-1.1-0.5-1.8s0.2-1.3,0.5-1.8
			s0.8-0.9,1.4-1.2C461.2,544.2,461.8,544,462.5,544z M462.5,545.4c-0.4,0-0.8,0.1-1.1,0.3c-0.3,0.2-0.6,0.4-0.8,0.7
			s-0.3,0.7-0.3,1.1c0,0.4,0.1,0.8,0.3,1.1c0.2,0.3,0.5,0.6,0.8,0.7c0.3,0.2,0.7,0.3,1.1,0.3c0.4,0,0.8-0.1,1.1-0.3
			c0.3-0.2,0.6-0.4,0.8-0.7c0.2-0.3,0.3-0.7,0.3-1.1c0-0.4-0.1-0.8-0.3-1.1s-0.5-0.5-0.8-0.7S463,545.4,462.5,545.4z M465.8,552.1
			c1,0,1.9,0.1,2.6,0.3c0.7,0.2,1.3,0.5,1.7,1c0.4,0.4,0.6,0.9,0.6,1.5c0,0.6-0.2,1.1-0.6,1.5s-1,0.8-1.7,1
			c-0.7,0.2-1.6,0.3-2.6,0.3s-1.9-0.1-2.6-0.3c-0.7-0.2-1.3-0.5-1.7-1c-0.4-0.4-0.6-0.9-0.6-1.5s0.2-1.1,0.6-1.5
			c0.4-0.4,1-0.7,1.7-1C463.9,552.2,464.8,552.1,465.8,552.1z M465.8,553.4c-0.7,0-1.3,0.1-1.8,0.2s-0.9,0.3-1.1,0.5
			c-0.3,0.2-0.4,0.5-0.4,0.8s0.1,0.6,0.4,0.8s0.6,0.4,1.1,0.5s1.1,0.2,1.8,0.2s1.3-0.1,1.8-0.2s0.9-0.3,1.1-0.5
			c0.3-0.2,0.4-0.5,0.4-0.8s-0.1-0.6-0.4-0.8c-0.3-0.2-0.6-0.4-1.1-0.5S466.5,553.4,465.8,553.4z M465.1,545.2h4.4v1.3h-4.4V545.2z
			 M465.1,548.5h4.4v1.4h-4.4V548.5z M469,543.2h1.7v8.6H469V543.2z"/>
		<path class="st0" d="M473.4,551.2l-0.2-1.4c0.9,0,1.9,0,2.9,0c1.1,0,2.1,0,3.2-0.1c1.1-0.1,2.2-0.2,3.2-0.3l0.1,1.2
			c-1,0.2-2.1,0.3-3.2,0.4c-1.1,0.1-2.2,0.1-3.2,0.2C475.2,551.1,474.3,551.2,473.4,551.2z M477.9,543.7c0.7,0,1.4,0.1,1.9,0.3
			s1,0.5,1.3,0.9c0.3,0.4,0.5,0.8,0.5,1.3s-0.1,1-0.5,1.4c-0.3,0.4-0.7,0.7-1.3,0.9s-1.2,0.3-1.9,0.3c-0.7,0-1.3-0.1-1.9-0.3
			c-0.5-0.2-1-0.5-1.3-0.9s-0.5-0.8-0.5-1.4s0.1-1,0.5-1.3c0.3-0.4,0.7-0.7,1.3-0.9C476.6,543.8,477.2,543.7,477.9,543.7z
			 M475.1,553.2h1.7v3.3h-1.7V553.2z M475.1,556.1h10.6v1.4h-10.6V556.1z M477.9,545c-0.6,0-1.1,0.1-1.5,0.4c-0.4,0.2-0.6,0.6-0.6,1
			s0.2,0.7,0.6,1s0.9,0.4,1.5,0.4c0.6,0,1.1-0.1,1.5-0.4c0.4-0.2,0.6-0.6,0.6-1c0-0.3-0.1-0.5-0.3-0.7s-0.4-0.3-0.7-0.5
			C478.7,545,478.3,545,477.9,545z M477.2,550.6h1.7v3.2h-1.7V550.6z M480.8,551.7h3.3v1.2h-3.3V551.7z M483.7,543.2h1.7v11.1h-1.7
			V543.2z"/>
		<path class="st0" d="M491.8,545.8h1.4v0.6c0,0.8-0.2,1.7-0.5,2.4s-0.8,1.4-1.4,2c-0.6,0.5-1.4,1-2.2,1.2l-0.8-1.3
			c0.8-0.2,1.4-0.6,1.9-1s0.9-0.9,1.2-1.5c0.3-0.6,0.4-1.2,0.4-1.8L491.8,545.8L491.8,545.8z M488.6,544.8h8v1.3h-8V544.8z
			 M490.2,552.8h9.8v5h-1.7v-3.6h-8.2V552.8z M491.8,543.1h1.7v2.3h-1.7V543.1z M492,545.8h1.4v0.6c0,0.4,0.1,0.9,0.2,1.3
			c0.2,0.4,0.4,0.8,0.7,1.2s0.7,0.7,1.1,0.9c0.4,0.3,1,0.5,1.5,0.7l-0.8,1.3c-0.9-0.3-1.6-0.7-2.2-1.2s-1.1-1.2-1.4-1.9
			c-0.3-0.7-0.5-1.5-0.5-2.3L492,545.8L492,545.8z M498.3,543.2h1.7v9h-1.7V543.2z"/>
		<path class="st0" d="M507.2,561v-18h1.2v18H507.2z"/>
		<path class="st0" d="M517.6,556.5v-10.2h-3.4v-1.6h8.8v1.6h-3.5v10.2H517.6z"/>
		<path class="st0" d="M524.8,556.5v-8.8h1.5l0.2,1.6h0c0.3-0.6,0.7-1,1.1-1.3s0.9-0.5,1.4-0.5c0.2,0,0.4,0,0.5,0s0.3,0.1,0.4,0.1
			l-0.3,1.6c-0.2,0-0.3-0.1-0.4-0.1s-0.3,0-0.5,0c-0.3,0-0.7,0.1-1.1,0.4c-0.4,0.3-0.7,0.8-1,1.5v5.5L524.8,556.5L524.8,556.5z"/>
		<path class="st0" d="M533.4,556.7c-0.5,0-1-0.1-1.3-0.3s-0.7-0.5-0.9-0.9c-0.2-0.4-0.3-0.8-0.3-1.3c0-1,0.4-1.7,1.3-2.2
			s2.2-0.9,4-1.1c0-0.3-0.1-0.7-0.2-0.9c-0.1-0.3-0.3-0.5-0.5-0.7s-0.6-0.3-1-0.3c-0.5,0-0.9,0.1-1.3,0.3s-0.8,0.4-1.2,0.6l-0.7-1.2
			c0.3-0.2,0.7-0.4,1-0.5s0.8-0.3,1.2-0.4s0.9-0.2,1.3-0.2c0.7,0,1.3,0.2,1.8,0.4s0.8,0.7,1,1.3s0.3,1.2,0.3,2v5.3h-1.5l-0.1-1h-0.1
			c-0.4,0.3-0.8,0.6-1.3,0.9C534.5,556.6,534,556.7,533.4,556.7z M534,555.2c0.4,0,0.7-0.1,1.1-0.3c0.3-0.2,0.7-0.4,1-0.8V552
			c-0.9,0.1-1.5,0.2-2.1,0.4s-0.9,0.4-1.1,0.7s-0.3,0.5-0.3,0.9c0,0.4,0.1,0.8,0.4,0.9C533.3,555.1,533.6,555.2,534,555.2z"/>
		<path class="st0" d="M540.6,556.5v-8.8h1.5l0.2,1.2h0c0.4-0.4,0.8-0.7,1.3-1c0.5-0.3,1-0.4,1.6-0.4c0.9,0,1.6,0.3,2.1,0.9
			c0.4,0.6,0.7,1.5,0.7,2.6v5.5H546v-5.3c0-0.8-0.1-1.3-0.3-1.6s-0.6-0.5-1.1-0.5c-0.4,0-0.8,0.1-1.1,0.3s-0.7,0.5-1.1,0.9v6.2
			H540.6z"/>
		<path class="st0" d="M552.9,556.7c-0.6,0-1.2-0.1-1.8-0.3s-1.1-0.5-1.5-0.9l0.9-1.2c0.4,0.3,0.8,0.6,1.2,0.7
			c0.4,0.2,0.8,0.3,1.3,0.3c0.5,0,0.9-0.1,1.2-0.3c0.2-0.2,0.4-0.5,0.4-0.8c0-0.3-0.1-0.5-0.3-0.7s-0.4-0.3-0.7-0.5
			c-0.3-0.1-0.6-0.3-0.9-0.4c-0.4-0.2-0.8-0.3-1.2-0.5s-0.7-0.5-0.9-0.8s-0.4-0.7-0.4-1.2c0-0.5,0.1-0.9,0.4-1.3
			c0.2-0.4,0.6-0.7,1.1-0.9c0.5-0.2,1-0.3,1.7-0.3c0.6,0,1.1,0.1,1.6,0.3s0.9,0.5,1.2,0.7l-0.8,1.1c-0.3-0.2-0.6-0.4-0.9-0.5
			s-0.7-0.2-1-0.2c-0.5,0-0.8,0.1-1.1,0.3s-0.3,0.5-0.3,0.8c0,0.2,0.1,0.5,0.3,0.6s0.4,0.3,0.7,0.4c0.3,0.1,0.6,0.2,0.9,0.4
			c0.3,0.1,0.6,0.2,0.9,0.4s0.6,0.3,0.8,0.5c0.2,0.2,0.5,0.4,0.6,0.7c0.2,0.3,0.2,0.6,0.2,1c0,0.5-0.1,0.9-0.4,1.4s-0.6,0.7-1.1,1
			C554.3,556.6,553.7,556.7,552.9,556.7z"/>
		<path class="st0" d="M558.2,560v-12.4h1.5l0.2,1h0c0.4-0.3,0.8-0.6,1.3-0.8c0.5-0.2,0.9-0.3,1.4-0.3c0.7,0,1.4,0.2,1.9,0.6
			s0.9,0.9,1.2,1.6c0.3,0.7,0.4,1.5,0.4,2.4c0,1-0.2,1.9-0.5,2.6s-0.8,1.3-1.4,1.6s-1.2,0.6-1.9,0.6c-0.4,0-0.8-0.1-1.2-0.3
			c-0.4-0.2-0.8-0.4-1.1-0.7l0,1.5v2.8L558.2,560L558.2,560z M562,555.2c0.4,0,0.8-0.1,1.1-0.4c0.3-0.2,0.6-0.6,0.8-1.1
			s0.3-1,0.3-1.7c0-0.6-0.1-1.2-0.2-1.6c-0.1-0.4-0.4-0.8-0.7-1s-0.7-0.4-1.2-0.4c-0.3,0-0.7,0.1-1,0.3s-0.7,0.5-1.1,0.8v4.3
			c0.3,0.3,0.7,0.5,1,0.6C561.4,555.1,561.7,555.2,562,555.2z"/>
		<path class="st0" d="M570.4,556.7c-0.5,0-1-0.1-1.3-0.3s-0.7-0.5-0.9-0.9c-0.2-0.4-0.3-0.8-0.3-1.3c0-1,0.4-1.7,1.3-2.2
			s2.2-0.9,4-1.1c0-0.3-0.1-0.7-0.2-0.9c-0.1-0.3-0.3-0.5-0.5-0.7s-0.6-0.3-1-0.3c-0.5,0-0.9,0.1-1.3,0.3s-0.8,0.4-1.2,0.6l-0.7-1.2
			c0.3-0.2,0.7-0.4,1-0.5s0.8-0.3,1.2-0.4s0.9-0.2,1.3-0.2c0.7,0,1.3,0.2,1.8,0.4s0.8,0.7,1,1.3s0.3,1.2,0.3,2v5.3h-1.5l-0.1-1h-0.1
			c-0.4,0.3-0.8,0.6-1.3,0.9C571.4,556.6,570.9,556.7,570.4,556.7z M570.9,555.2c0.4,0,0.7-0.1,1.1-0.3c0.3-0.2,0.7-0.4,1-0.8V552
			c-0.9,0.1-1.5,0.2-2.1,0.4s-0.9,0.4-1.1,0.7s-0.3,0.5-0.3,0.9c0,0.4,0.1,0.8,0.4,0.9C570.2,555.1,570.6,555.2,570.9,555.2z"/>
		<path class="st0" d="M577.5,556.5v-8.8h1.5l0.2,1.6h0c0.3-0.6,0.7-1,1.1-1.3s0.9-0.5,1.4-0.5c0.2,0,0.4,0,0.5,0s0.3,0.1,0.4,0.1
			l-0.3,1.6c-0.2,0-0.3-0.1-0.4-0.1s-0.3,0-0.5,0c-0.3,0-0.7,0.1-1.1,0.4c-0.4,0.3-0.7,0.8-1,1.5v5.5L577.5,556.5L577.5,556.5z"/>
		<path class="st0" d="M587.7,556.7c-0.8,0-1.5-0.2-2.2-0.5c-0.7-0.4-1.2-0.9-1.5-1.6c-0.4-0.7-0.6-1.5-0.6-2.5
			c0-0.7,0.1-1.4,0.3-1.9c0.2-0.6,0.5-1.1,0.9-1.5c0.4-0.4,0.8-0.7,1.3-0.9c0.5-0.2,1-0.3,1.5-0.3c0.8,0,1.4,0.2,2,0.5
			s0.9,0.8,1.2,1.5s0.4,1.3,0.4,2.2c0,0.2,0,0.3,0,0.5c0,0.2,0,0.3-0.1,0.4h-5.7c0,0.5,0.2,1,0.4,1.4c0.2,0.4,0.5,0.7,0.9,0.9
			s0.8,0.3,1.3,0.3c0.4,0,0.8-0.1,1.1-0.2c0.3-0.1,0.7-0.3,1-0.5l0.6,1.2c-0.4,0.3-0.9,0.5-1.3,0.7S588.3,556.7,587.7,556.7z
			 M585.2,551.3h4.2c0-0.8-0.2-1.3-0.5-1.7s-0.8-0.6-1.5-0.6c-0.4,0-0.7,0.1-1,0.3s-0.6,0.5-0.8,0.8
			C585.4,550.3,585.3,550.8,585.2,551.3z"/>
		<path class="st0" d="M593.1,556.5v-8.8h1.5l0.2,1.2h0c0.4-0.4,0.8-0.7,1.3-1c0.5-0.3,1-0.4,1.6-0.4c0.9,0,1.6,0.3,2.1,0.9
			c0.4,0.6,0.7,1.5,0.7,2.6v5.5h-1.8v-5.3c0-0.8-0.1-1.3-0.3-1.6s-0.6-0.5-1.1-0.5c-0.4,0-0.8,0.1-1.1,0.3s-0.7,0.5-1.1,0.9v6.2
			H593.1z"/>
		<path class="st0" d="M606.7,556.7c-0.8,0-1.5-0.2-2.1-0.5s-1.1-0.9-1.5-1.6c-0.4-0.7-0.6-1.5-0.6-2.5c0-1,0.2-1.8,0.6-2.5
			c0.4-0.7,0.9-1.2,1.6-1.6c0.7-0.4,1.4-0.5,2.1-0.5c0.6,0,1.1,0.1,1.5,0.3c0.4,0.2,0.8,0.4,1.1,0.7l-0.9,1.2
			c-0.2-0.2-0.5-0.4-0.7-0.5s-0.5-0.2-0.8-0.2c-0.5,0-0.9,0.1-1.3,0.4s-0.7,0.6-0.9,1.1s-0.3,1-0.3,1.6s0.1,1.2,0.3,1.6
			s0.5,0.8,0.9,1.1s0.8,0.4,1.3,0.4c0.4,0,0.7-0.1,1-0.2c0.3-0.2,0.6-0.3,0.9-0.6l0.8,1.2c-0.4,0.4-0.9,0.6-1.4,0.8
			C607.7,556.6,607.2,556.7,606.7,556.7z"/>
		<path class="st0" d="M611.8,560.2c-0.2,0-0.4,0-0.6,0c-0.2,0-0.3-0.1-0.5-0.1l0.3-1.4c0.1,0,0.2,0,0.3,0.1c0.1,0,0.2,0,0.3,0
			c0.5,0,0.9-0.2,1.2-0.5c0.3-0.3,0.5-0.7,0.7-1.2l0.2-0.6l-3.5-8.8h1.9l1.6,4.5c0.1,0.4,0.3,0.8,0.4,1.2c0.1,0.4,0.3,0.8,0.4,1.3
			h0.1c0.1-0.4,0.2-0.8,0.3-1.2c0.1-0.4,0.2-0.8,0.3-1.2l1.4-4.5h1.8l-3.2,9.3c-0.2,0.6-0.5,1.2-0.8,1.7c-0.3,0.5-0.7,0.8-1.1,1.1
			S612.4,560.2,611.8,560.2z"/>
		<path class="st0" d="M624.9,550.6c0-0.2,0.1-0.4,0.2-0.6s0.3-0.3,0.4-0.5s0.4-0.2,0.6-0.2c0.2,0,0.4,0.1,0.6,0.2s0.3,0.3,0.4,0.5
			s0.2,0.4,0.2,0.6c0,0.3-0.1,0.6-0.3,0.8c-0.2,0.2-0.5,0.4-0.8,0.4c-0.2,0-0.4-0.1-0.6-0.2c-0.2-0.1-0.3-0.3-0.4-0.5
			S624.9,550.8,624.9,550.6z"/>
		<path class="st0" d="M639.4,556.7c-1,0-1.9-0.2-2.7-0.8c-0.8-0.5-1.4-1.2-1.8-2.1c-0.4-0.9-0.7-2-0.7-3.3c0-1.3,0.2-2.3,0.7-3.3
			s1-1.6,1.8-2.1s1.7-0.7,2.7-0.7c1,0,1.9,0.2,2.7,0.7c0.8,0.5,1.4,1.2,1.8,2.1s0.7,2,0.7,3.3c0,1.3-0.2,2.3-0.7,3.3
			c-0.4,0.9-1,1.6-1.8,2.1C641.3,556.5,640.4,556.7,639.4,556.7z M639.4,555.1c0.7,0,1.2-0.2,1.7-0.6s0.9-0.9,1.1-1.6
			s0.4-1.5,0.4-2.4s-0.1-1.7-0.4-2.4s-0.6-1.2-1.1-1.5s-1-0.5-1.7-0.5s-1.2,0.2-1.7,0.5s-0.9,0.9-1.1,1.5s-0.4,1.5-0.4,2.4
			s0.1,1.7,0.4,2.4s0.6,1.2,1.1,1.6S638.8,555.1,639.4,555.1z"/>
		<path class="st0" d="M646.8,560v-12.4h1.5l0.2,1h0c0.4-0.3,0.8-0.6,1.3-0.8c0.5-0.2,0.9-0.3,1.4-0.3c0.7,0,1.4,0.2,1.9,0.6
			s0.9,0.9,1.2,1.6c0.3,0.7,0.4,1.5,0.4,2.4c0,1-0.2,1.9-0.5,2.6s-0.8,1.3-1.4,1.6s-1.2,0.6-1.9,0.6c-0.4,0-0.8-0.1-1.2-0.3
			c-0.4-0.2-0.8-0.4-1.1-0.7l0,1.5v2.8L646.8,560L646.8,560z M650.6,555.2c0.4,0,0.8-0.1,1.1-0.4c0.3-0.2,0.6-0.6,0.8-1.1
			s0.3-1,0.3-1.7c0-0.6-0.1-1.2-0.2-1.6c-0.1-0.4-0.4-0.8-0.7-1s-0.7-0.4-1.2-0.4c-0.3,0-0.7,0.1-1,0.3s-0.7,0.5-1.1,0.8v4.3
			c0.3,0.3,0.7,0.5,1,0.6C650,555.1,650.3,555.2,650.6,555.2z"/>
		<path class="st0" d="M660.6,556.7c-0.8,0-1.5-0.2-2.2-0.5c-0.7-0.4-1.2-0.9-1.5-1.6c-0.4-0.7-0.6-1.5-0.6-2.5
			c0-0.7,0.1-1.4,0.3-1.9c0.2-0.6,0.5-1.1,0.9-1.5c0.4-0.4,0.8-0.7,1.3-0.9c0.5-0.2,1-0.3,1.5-0.3c0.8,0,1.4,0.2,2,0.5
			s0.9,0.8,1.2,1.5s0.4,1.3,0.4,2.2c0,0.2,0,0.3,0,0.5c0,0.2,0,0.3-0.1,0.4h-5.7c0,0.5,0.2,1,0.4,1.4c0.2,0.4,0.5,0.7,0.9,0.9
			s0.8,0.3,1.3,0.3c0.4,0,0.8-0.1,1.1-0.2c0.3-0.1,0.7-0.3,1-0.5l0.6,1.2c-0.4,0.3-0.9,0.5-1.3,0.7S661.2,556.7,660.6,556.7z
			 M658.1,551.3h4.2c0-0.8-0.2-1.3-0.5-1.7s-0.8-0.6-1.5-0.6c-0.4,0-0.7,0.1-1,0.3s-0.6,0.5-0.8,0.8
			C658.3,550.3,658.2,550.8,658.1,551.3z"/>
		<path class="st0" d="M666,556.5v-8.8h1.5l0.2,1.2h0c0.4-0.4,0.8-0.7,1.3-1c0.5-0.3,1-0.4,1.6-0.4c0.9,0,1.6,0.3,2.1,0.9
			c0.4,0.6,0.7,1.5,0.7,2.6v5.5h-1.8v-5.3c0-0.8-0.1-1.3-0.3-1.6s-0.6-0.5-1.1-0.5c-0.4,0-0.8,0.1-1.1,0.3s-0.7,0.5-1.1,0.9v6.2H666
			z"/>
		<path class="st0" d="M676,556.5v-8.8h1.5l0.2,1.2h0c0.4-0.4,0.8-0.7,1.3-1c0.5-0.3,1-0.4,1.6-0.4c0.9,0,1.6,0.3,2.1,0.9
			c0.4,0.6,0.7,1.5,0.7,2.6v5.5h-1.8v-5.3c0-0.8-0.1-1.3-0.3-1.6s-0.6-0.5-1.1-0.5c-0.4,0-0.8,0.1-1.1,0.3s-0.7,0.5-1.1,0.9v6.2H676
			z"/>
		<path class="st0" d="M689.6,556.7c-0.8,0-1.5-0.2-2.2-0.5c-0.7-0.4-1.2-0.9-1.5-1.6c-0.4-0.7-0.6-1.5-0.6-2.5
			c0-0.7,0.1-1.4,0.3-1.9c0.2-0.6,0.5-1.1,0.9-1.5c0.4-0.4,0.8-0.7,1.3-0.9c0.5-0.2,1-0.3,1.5-0.3c0.8,0,1.4,0.2,2,0.5
			s0.9,0.8,1.2,1.5s0.4,1.3,0.4,2.2c0,0.2,0,0.3,0,0.5c0,0.2,0,0.3-0.1,0.4h-5.7c0,0.5,0.2,1,0.4,1.4c0.2,0.4,0.5,0.7,0.9,0.9
			s0.8,0.3,1.3,0.3c0.4,0,0.8-0.1,1.1-0.2c0.3-0.1,0.7-0.3,1-0.5l0.6,1.2c-0.4,0.3-0.9,0.5-1.3,0.7S690.2,556.7,689.6,556.7z
			 M687.1,551.3h4.2c0-0.8-0.2-1.3-0.5-1.7s-0.8-0.6-1.5-0.6c-0.4,0-0.7,0.1-1,0.3s-0.6,0.5-0.8,0.8
			C687.3,550.3,687.2,550.8,687.1,551.3z"/>
		<path class="st0" d="M697.4,556.7c-0.6,0-1.2-0.1-1.8-0.3s-1.1-0.5-1.5-0.9l0.9-1.2c0.4,0.3,0.8,0.6,1.2,0.7
			c0.4,0.2,0.8,0.3,1.3,0.3c0.5,0,0.9-0.1,1.2-0.3c0.2-0.2,0.4-0.5,0.4-0.8c0-0.3-0.1-0.5-0.3-0.7s-0.4-0.3-0.7-0.5
			c-0.3-0.1-0.6-0.3-0.9-0.4c-0.4-0.2-0.8-0.3-1.2-0.5s-0.7-0.5-0.9-0.8s-0.4-0.7-0.4-1.2c0-0.5,0.1-0.9,0.4-1.3
			c0.2-0.4,0.6-0.7,1.1-0.9c0.5-0.2,1-0.3,1.7-0.3c0.6,0,1.1,0.1,1.6,0.3s0.9,0.5,1.2,0.7l-0.8,1.1c-0.3-0.2-0.6-0.4-0.9-0.5
			s-0.7-0.2-1-0.2c-0.5,0-0.8,0.1-1.1,0.3s-0.3,0.5-0.3,0.8c0,0.2,0.1,0.5,0.3,0.6s0.4,0.3,0.7,0.4c0.3,0.1,0.6,0.2,0.9,0.4
			c0.3,0.1,0.6,0.2,0.9,0.4s0.6,0.3,0.8,0.5c0.2,0.2,0.5,0.4,0.6,0.7c0.2,0.3,0.2,0.6,0.2,1c0,0.5-0.1,0.9-0.4,1.4s-0.6,0.7-1.1,1
			C698.7,556.6,698.1,556.7,697.4,556.7z"/>
		<path class="st0" d="M705.1,556.7c-0.6,0-1.2-0.1-1.8-0.3s-1.1-0.5-1.5-0.9l0.9-1.2c0.4,0.3,0.8,0.6,1.2,0.7
			c0.4,0.2,0.8,0.3,1.3,0.3c0.5,0,0.9-0.1,1.2-0.3c0.2-0.2,0.4-0.5,0.4-0.8c0-0.3-0.1-0.5-0.3-0.7s-0.4-0.3-0.7-0.5
			c-0.3-0.1-0.6-0.3-0.9-0.4c-0.4-0.2-0.8-0.3-1.2-0.5s-0.7-0.5-0.9-0.8s-0.4-0.7-0.4-1.2c0-0.5,0.1-0.9,0.4-1.3
			c0.2-0.4,0.6-0.7,1.1-0.9c0.5-0.2,1-0.3,1.7-0.3c0.6,0,1.1,0.1,1.6,0.3s0.9,0.5,1.2,0.7l-0.8,1.1c-0.3-0.2-0.6-0.4-0.9-0.5
			s-0.7-0.2-1-0.2c-0.5,0-0.8,0.1-1.1,0.3s-0.3,0.5-0.3,0.8c0,0.2,0.1,0.5,0.3,0.6s0.4,0.3,0.7,0.4c0.3,0.1,0.6,0.2,0.9,0.4
			c0.3,0.1,0.6,0.2,0.9,0.4s0.6,0.3,0.8,0.5c0.2,0.2,0.5,0.4,0.6,0.7c0.2,0.3,0.2,0.6,0.2,1c0,0.5-0.1,0.9-0.4,1.4s-0.6,0.7-1.1,1
			C706.4,556.6,705.8,556.7,705.1,556.7z"/>
		<path class="st0" d="M521.3,570.6c0-0.2,0.1-0.4,0.2-0.6s0.3-0.3,0.4-0.5s0.4-0.2,0.6-0.2c0.2,0,0.4,0.1,0.6,0.2s0.3,0.3,0.4,0.5
			s0.2,0.4,0.2,0.6c0,0.3-0.1,0.6-0.3,0.8c-0.2,0.2-0.5,0.4-0.8,0.4c-0.2,0-0.4-0.1-0.6-0.2c-0.2-0.1-0.3-0.3-0.4-0.5
			S521.3,570.8,521.3,570.6z"/>
		<path class="st0" d="M531.3,576.5v-11.8h7v1.6h-5.1v3.6h4.4v1.5h-4.4v5.1H531.3z"/>
		<path class="st0" d="M542.3,576.7c-0.5,0-1-0.1-1.3-0.3s-0.7-0.5-0.9-0.9c-0.2-0.4-0.3-0.8-0.3-1.3c0-1,0.4-1.7,1.3-2.2
			s2.2-0.9,4-1.1c0-0.3-0.1-0.7-0.2-0.9c-0.1-0.3-0.3-0.5-0.5-0.7s-0.6-0.3-1-0.3c-0.5,0-0.9,0.1-1.3,0.3s-0.8,0.4-1.2,0.6l-0.7-1.2
			c0.3-0.2,0.7-0.4,1-0.5s0.8-0.3,1.2-0.4s0.9-0.2,1.3-0.2c0.7,0,1.3,0.2,1.8,0.4s0.8,0.7,1,1.3s0.3,1.2,0.3,2v5.3h-1.5l-0.1-1h-0.1
			c-0.4,0.3-0.8,0.6-1.3,0.9C543.3,576.6,542.8,576.7,542.3,576.7z M542.9,575.2c0.4,0,0.7-0.1,1.1-0.3c0.3-0.2,0.7-0.4,1-0.8V572
			c-0.9,0.1-1.5,0.2-2.1,0.4s-0.9,0.4-1.1,0.7s-0.3,0.5-0.3,0.9c0,0.4,0.1,0.8,0.4,0.9C542.2,575.1,542.5,575.2,542.9,575.2z"/>
		<path class="st0" d="M550.4,566c-0.3,0-0.6-0.1-0.8-0.3s-0.3-0.5-0.3-0.8c0-0.3,0.1-0.6,0.3-0.8s0.5-0.3,0.8-0.3
			c0.3,0,0.6,0.1,0.8,0.3c0.2,0.2,0.3,0.5,0.3,0.8c0,0.3-0.1,0.6-0.3,0.8C551,565.9,550.7,566,550.4,566z M549.4,576.5v-8.8h1.8v8.8
			H549.4z"/>
		<path class="st0" d="M554,576.5v-8.8h1.5l0.2,1.6h0c0.3-0.6,0.7-1,1.1-1.3s0.9-0.5,1.4-0.5c0.2,0,0.4,0,0.5,0s0.3,0.1,0.4,0.1
			l-0.3,1.6c-0.2,0-0.3-0.1-0.4-0.1s-0.3,0-0.5,0c-0.3,0-0.7,0.1-1.1,0.4c-0.4,0.3-0.7,0.8-1,1.5v5.5L554,576.5L554,576.5z"/>
		<path class="st0" d="M560.6,576.5v-8.8h1.5l0.2,1.2h0c0.4-0.4,0.8-0.7,1.3-1c0.5-0.3,1-0.4,1.6-0.4c0.9,0,1.6,0.3,2.1,0.9
			c0.4,0.6,0.7,1.5,0.7,2.6v5.5h-1.8v-5.3c0-0.8-0.1-1.3-0.3-1.6s-0.6-0.5-1.1-0.5c-0.4,0-0.8,0.1-1.1,0.3s-0.7,0.5-1.1,0.9v6.2
			H560.6z"/>
		<path class="st0" d="M574.3,576.7c-0.8,0-1.5-0.2-2.2-0.5c-0.7-0.4-1.2-0.9-1.5-1.6c-0.4-0.7-0.6-1.5-0.6-2.5
			c0-0.7,0.1-1.4,0.3-1.9c0.2-0.6,0.5-1.1,0.9-1.5c0.4-0.4,0.8-0.7,1.3-0.9c0.5-0.2,1-0.3,1.5-0.3c0.8,0,1.4,0.2,2,0.5
			s0.9,0.8,1.2,1.5s0.4,1.3,0.4,2.2c0,0.2,0,0.3,0,0.5c0,0.2,0,0.3-0.1,0.4h-5.7c0,0.5,0.2,1,0.4,1.4c0.2,0.4,0.5,0.7,0.9,0.9
			s0.8,0.3,1.3,0.3c0.4,0,0.8-0.1,1.1-0.2c0.3-0.1,0.7-0.3,1-0.5l0.6,1.2c-0.4,0.3-0.9,0.5-1.3,0.7S574.8,576.7,574.3,576.7z
			 M571.7,571.3h4.2c0-0.8-0.2-1.3-0.5-1.7s-0.8-0.6-1.5-0.6c-0.4,0-0.7,0.1-1,0.3s-0.6,0.5-0.8,0.8
			C572,570.3,571.8,570.8,571.7,571.3z"/>
		<path class="st0" d="M582,576.7c-0.6,0-1.2-0.1-1.8-0.3s-1.1-0.5-1.5-0.9l0.9-1.2c0.4,0.3,0.8,0.6,1.2,0.7
			c0.4,0.2,0.8,0.3,1.3,0.3c0.5,0,0.9-0.1,1.2-0.3c0.2-0.2,0.4-0.5,0.4-0.8c0-0.3-0.1-0.5-0.3-0.7s-0.4-0.3-0.7-0.5
			c-0.3-0.1-0.6-0.3-0.9-0.4c-0.4-0.2-0.8-0.3-1.2-0.5s-0.7-0.5-0.9-0.8s-0.4-0.7-0.4-1.2c0-0.5,0.1-0.9,0.4-1.3
			c0.2-0.4,0.6-0.7,1.1-0.9c0.5-0.2,1-0.3,1.7-0.3c0.6,0,1.1,0.1,1.6,0.3s0.9,0.5,1.2,0.7l-0.8,1.1c-0.3-0.2-0.6-0.4-0.9-0.5
			s-0.7-0.2-1-0.2c-0.5,0-0.8,0.1-1.1,0.3s-0.3,0.5-0.3,0.8c0,0.2,0.1,0.5,0.3,0.6s0.4,0.3,0.7,0.4c0.3,0.1,0.6,0.2,0.9,0.4
			c0.3,0.1,0.6,0.2,0.9,0.4s0.6,0.3,0.8,0.5c0.2,0.2,0.5,0.4,0.6,0.7c0.2,0.3,0.2,0.6,0.2,1c0,0.5-0.1,0.9-0.4,1.4s-0.6,0.7-1.1,1
			C583.4,576.6,582.8,576.7,582,576.7z"/>
		<path class="st0" d="M589.7,576.7c-0.6,0-1.2-0.1-1.8-0.3s-1.1-0.5-1.5-0.9l0.9-1.2c0.4,0.3,0.8,0.6,1.2,0.7
			c0.4,0.2,0.8,0.3,1.3,0.3c0.5,0,0.9-0.1,1.2-0.3c0.2-0.2,0.4-0.5,0.4-0.8c0-0.3-0.1-0.5-0.3-0.7s-0.4-0.3-0.7-0.5
			c-0.3-0.1-0.6-0.3-0.9-0.4c-0.4-0.2-0.8-0.3-1.2-0.5s-0.7-0.5-0.9-0.8s-0.4-0.7-0.4-1.2c0-0.5,0.1-0.9,0.4-1.3
			c0.2-0.4,0.6-0.7,1.1-0.9c0.5-0.2,1-0.3,1.7-0.3c0.6,0,1.1,0.1,1.6,0.3s0.9,0.5,1.2,0.7l-0.8,1.1c-0.3-0.2-0.6-0.4-0.9-0.5
			s-0.7-0.2-1-0.2c-0.5,0-0.8,0.1-1.1,0.3s-0.3,0.5-0.3,0.8c0,0.2,0.1,0.5,0.3,0.6s0.4,0.3,0.7,0.4c0.3,0.1,0.6,0.2,0.9,0.4
			c0.3,0.1,0.6,0.2,0.9,0.4s0.6,0.3,0.8,0.5c0.2,0.2,0.5,0.4,0.6,0.7c0.2,0.3,0.2,0.6,0.2,1c0,0.5-0.1,0.9-0.4,1.4s-0.6,0.7-1.1,1
			C591,576.6,590.4,576.7,589.7,576.7z"/>
	</g>
</g>
</svg>
